<?xml version="1.0" encoding="UTF-8"?>
<svg id="Layer_1" data-name="Layer 1" xmlns="http://www.w3.org/2000/svg" viewBox="0 0 238.63 152.97">
  <defs>
    <style>
      .cls-1 {
        fill: #fff;
      }

      .cls-2 {
        fill: #eb001b;
      }

      .cls-3 {
        fill: #ff5f00;
      }

      .cls-4 {
        fill: #f79e1b;
      }
    </style>
  </defs>
  <path d="M12.24,0h214.15c6.76,0,12.24,5.48,12.24,12.24v128.49c0,6.76-5.48,12.24-12.24,12.24H12.24c-6.76,0-12.24-5.48-12.24-12.24V12.24C0,5.48,5.48,0,12.24,0Z"/>
  <g>
    <path class="cls-1" d="M70.36,135.72v-7.91c0-3.03-1.85-5.01-4.87-5.01-1.59,0-3.29.53-4.48,2.23-.92-1.45-2.23-2.23-4.22-2.23-1.5-.06-2.94.63-3.82,1.85v-1.59h-2.5v12.65h2.5v-7.24c0-2.23,1.32-3.29,3.16-3.29s2.9,1.19,2.9,3.29v7.25h2.5v-7.25c0-2.23,1.32-3.29,3.16-3.29s2.9,1.19,2.9,3.29v7.25h2.76ZM111.47,123.2h-4.61v-3.82h-2.5v3.82h-2.63v2.23h2.63v5.94c0,2.9,1.05,4.61,4.22,4.61,1.2-.02,2.37-.34,3.42-.92l-.79-2.23c-.71.44-1.54.67-2.37.66-1.32,0-1.98-.79-1.98-2.11v-6.06h4.61v-2.13ZM134.93,122.8c-1.39-.03-2.69.67-3.43,1.85v-1.59h-2.5v12.65h2.5v-7.1c0-2.11,1.05-3.43,2.77-3.43.58.02,1.15.11,1.71.26l.79-2.37c-.6-.15-1.22-.24-1.85-.26h0ZM99.48,124.12c-1.32-.92-3.16-1.32-5.14-1.32-3.16,0-5.14,1.45-5.14,3.95,0,2.11,1.45,3.29,4.22,3.69l1.32.13c1.45.26,2.37.79,2.37,1.45,0,.92-1.05,1.59-3.03,1.59-1.51.03-2.99-.43-4.22-1.32l-1.32,1.98c1.85,1.32,4.09,1.59,5.41,1.59,3.69,0,5.67-1.71,5.67-4.09,0-2.23-1.59-3.29-4.35-3.69l-1.32-.13c-1.19-.13-2.23-.53-2.23-1.32,0-.92,1.05-1.59,2.5-1.59,1.59,0,3.16.66,3.95,1.05l1.29-1.99ZM137.7,129.39c0,3.82,2.5,6.59,6.59,6.59,1.85,0,3.16-.39,4.48-1.45l-1.32-1.98c-.93.76-2.09,1.17-3.29,1.19-2.23,0-3.95-1.71-3.95-4.22s1.71-4.2,3.95-4.2c1.2.01,2.36.43,3.29,1.19l1.32-1.98c-1.32-1.05-2.63-1.45-4.48-1.45-3.95-.26-6.59,2.5-6.59,6.33v-.02ZM120.04,122.8c-3.69,0-6.19,2.63-6.19,6.59s2.63,6.59,6.46,6.59c1.86.04,3.67-.57,5.14-1.71l-1.32-1.85c-1.06.82-2.35,1.28-3.69,1.32-1.71,0-3.56-1.05-3.82-3.29h9.36v-1.05c0-3.95-2.37-6.59-5.93-6.59h0ZM119.91,125.18c1.85,0,3.16,1.19,3.29,3.16h-6.85c.39-1.85,1.59-3.16,3.56-3.16ZM85.78,129.39v-6.33h-2.5v1.59c-.92-1.19-2.23-1.85-4.09-1.85-3.56,0-6.19,2.77-6.19,6.59s2.63,6.59,6.19,6.59c1.85,0,3.16-.66,4.09-1.85v1.59h2.5v-6.34ZM75.63,129.39c0-2.37,1.45-4.22,3.95-4.22,2.37,0,3.82,1.85,3.82,4.22,0,2.5-1.59,4.22-3.82,4.22-2.5.13-3.95-1.85-3.95-4.22ZM173.02,122.8c-1.39-.03-2.69.67-3.43,1.85v-1.59h-2.5v12.65h2.5v-7.1c0-2.11,1.05-3.43,2.77-3.43.58.02,1.15.11,1.71.26l.79-2.37c-.6-.15-1.22-.24-1.85-.26h0ZM163.26,129.39v-6.33h-2.5v1.59c-.92-1.19-2.23-1.85-4.09-1.85-3.56,0-6.19,2.77-6.19,6.59s2.63,6.59,6.19,6.59c1.85,0,3.16-.66,4.09-1.85v1.59h2.5v-6.34ZM153.12,129.39c0-2.37,1.45-4.22,3.95-4.22,2.37,0,3.82,1.85,3.82,4.22,0,2.5-1.59,4.22-3.82,4.22-2.5.13-3.95-1.85-3.95-4.22ZM188.7,129.39v-11.33h-2.5v6.59c-.92-1.19-2.23-1.85-4.09-1.85-3.56,0-6.19,2.77-6.19,6.59s2.63,6.59,6.19,6.59c1.85,0,3.16-.66,4.09-1.85v1.59h2.5v-6.33ZM178.55,129.39c0-2.37,1.45-4.22,3.95-4.22,2.37,0,3.82,1.85,3.82,4.22,0,2.5-1.59,4.22-3.82,4.22-2.51.13-3.96-1.84-3.96-4.22h0Z"/>
    <path class="cls-3" d="M96.58,27.13h45.73v74.59h-45.73V27.13Z"/>
    <path class="cls-2" d="M101.19,64.42c0-14.54,6.65-28.27,18.05-37.29-19.45-15.29-47.38-13.07-64.17,5.11-16.79,18.17-16.79,46.2,0,64.37,16.79,18.17,44.72,20.4,64.17,5.11-11.4-9.02-18.05-22.76-18.05-37.29Z"/>
    <path class="cls-4" d="M196.08,64.42c.01,18.15-10.34,34.71-26.66,42.65-16.32,7.94-35.75,5.86-50.02-5.36,11.4-9.02,18.05-22.76,18.05-37.29s-6.65-28.28-18.05-37.29c14.27-11.22,33.69-13.3,50.02-5.36,16.32,7.94,26.68,24.5,26.66,42.65Z"/>
  </g>
</svg>