<?xml version="1.0" encoding="UTF-8"?>
<svg id="Layer_1" data-name="Layer 1" xmlns="http://www.w3.org/2000/svg" viewBox="0 0 238.63 152.97">
  <defs>
    <style>
      .cls-1 {
        fill: #fff;
      }

      .cls-2 {
        fill: #2557d6;
      }
    </style>
  </defs>
  <path class="cls-2" d="M12.24,0h214.15c6.76,0,12.24,5.48,12.24,12.24v128.49c0,6.76-5.48,12.24-12.24,12.24H12.24C5.48,152.97,0,147.49,0,140.73V12.24C0,5.48,5.48,0,12.24,0Z"/>
  <path class="cls-1" d="M.08,72.11h11.45l2.58-5.97h5.78l2.58,5.97h22.54v-4.56l2.01,4.58h11.7l2.01-4.65v4.63h56.01l-.03-9.8h1.08c.76.03.98.09.98,1.29v8.5h28.97v-2.28c2.34,1.2,5.97,2.28,10.75,2.28h12.19l2.61-5.97h5.78l2.55,5.97h23.49v-5.67l3.56,5.67h18.82v-37.48h-18.63v4.43l-2.61-4.43h-19.11v4.43l-2.39-4.43h-25.81c-4.32,0-8.12.58-11.19,2.19v-2.19h-17.81v2.19c-1.95-1.66-4.61-2.19-7.57-2.19H57.28l-4.37,9.68-4.48-9.68h-20.5v4.43l-2.25-4.43H8.2L.08,52.45v19.66h0ZM72.38,66.7h-6.87l-.03-21.05-9.72,21.05h-5.89l-9.75-21.06v21.06h-13.64l-2.58-5.99h-13.96l-2.6,5.99H.08l12.01-26.87h9.96l11.4,25.44v-25.44h10.94l8.77,18.23,8.06-18.23h11.16v26.87ZM21.63,55.13l-4.59-10.71-4.56,10.71h9.15ZM99.73,66.7h-22.4v-26.87h22.4v5.6h-15.69v4.84h15.32v5.51h-15.32v5.37h15.69v5.56ZM131.29,47.06c0,4.28-2.98,6.5-4.72,7.16,1.47.53,2.72,1.48,3.32,2.26.95,1.34,1.11,2.53,1.11,4.93v5.28h-6.76l-.03-3.39c0-1.62.16-3.94-1.06-5.24-.98-.95-2.47-1.15-4.89-1.15h-7.2v9.77h-6.7v-26.87h15.42c3.43,0,5.95.09,8.12,1.29,2.12,1.2,3.39,2.95,3.39,5.95h0ZM122.82,51.05c-.92.54-2.01.55-3.32.55h-8.14v-5.97h8.25c1.17,0,2.39.05,3.18.48.87.39,1.41,1.22,1.41,2.38s-.51,2.12-1.38,2.55ZM142.04,66.7h-6.84v-26.87h6.84v26.87ZM221.45,66.7h-9.5l-12.71-20.17v20.17h-13.65l-2.61-5.99h-13.93l-2.53,5.99h-7.85c-3.26,0-7.38-.69-9.72-2.97-2.36-2.28-3.58-5.37-3.58-10.26,0-3.99.73-7.63,3.61-10.51,2.17-2.14,5.56-3.13,10.18-3.13h6.49v5.76h-6.35c-2.45,0-3.83.35-5.16,1.59-1.14,1.13-1.93,3.27-1.93,6.09s.6,4.95,1.84,6.31c1.03,1.06,2.91,1.39,4.67,1.39h3.01l9.45-21.13h10.05l11.35,25.42v-25.42h10.21l11.78,18.72v-18.72h6.87v26.87ZM180.7,55.13l-4.64-10.71-4.61,10.71h9.25ZM238.54,109.61c-1.63,2.28-4.8,3.44-9.1,3.44h-12.95v-5.76h12.89c1.28,0,2.17-.16,2.71-.67.51-.45.8-1.09.79-1.75,0-.78-.33-1.41-.82-1.78-.49-.41-1.19-.6-2.36-.6-6.29-.2-14.15.19-14.15-8.32,0-3.9,2.58-8,9.62-8h13.35v-5.35h-12.41c-3.74,0-6.46.86-8.39,2.19v-2.2h-18.35c-2.94,0-6.38.7-8.01,2.2v-2.2h-32.77v2.2c-2.61-1.8-7.01-2.2-9.04-2.2h-21.62v2.2c-2.06-1.91-6.65-2.2-9.45-2.2h-24.19l-5.54,5.74-5.19-5.74h-36.14v37.5h35.46l5.7-5.83,5.37,5.83,21.86.02v-8.82h2.15c2.9.04,6.32-.07,9.34-1.32v10.12h18.03v-9.78h.87c1.11,0,1.22.04,1.22,1.11v8.67h54.77c3.48,0,7.11-.85,9.12-2.4v2.4h17.37c3.61,0,7.14-.49,9.83-1.73v-6.99s0,0,0,0ZM129.95,95.18c0,7.47-5.81,9.01-11.67,9.01h-8.37v9.02h-13.03l-8.26-8.9-8.58,8.9h-26.56v-26.88h26.96l8.25,8.81,8.53-8.81h21.42c5.32,0,11.3,1.41,11.3,8.86ZM76.65,107.55h-16.48v-5.35h14.72v-5.48h-14.72v-4.89h16.81l7.33,7.83-7.66,7.89ZM103.21,110.63l-10.29-10.95,10.29-10.6v21.55ZM118.43,98.68h-8.66v-6.84h8.74c2.42,0,4.1.95,4.1,3.3s-1.6,3.55-4.18,3.55ZM163.82,86.33h22.38v5.56h-15.7v4.89h15.32v5.48h-15.32v5.35l15.7.02v5.58h-22.38v-26.88ZM155.21,100.72c1.49.53,2.71,1.47,3.28,2.26.95,1.31,1.08,2.54,1.11,4.91v5.33h-6.73v-3.36c0-1.62.16-4.01-1.08-5.26-.98-.96-2.47-1.19-4.92-1.19h-7.16v9.82h-6.74v-26.88h15.48c3.39,0,5.87.14,8.07,1.27,2.12,1.22,3.45,2.9,3.45,5.97,0,4.29-2.99,6.48-4.75,7.15h0ZM151.43,97.32c-.9.51-2.01.55-3.31.55h-8.14v-6.04h8.25c1.19,0,2.39.02,3.2.49.87.44,1.39,1.27,1.39,2.42s-.52,2.08-1.39,2.58h0ZM211.95,99.03c1.31,1.29,2.01,2.93,2.01,5.69,0,5.78-3.77,8.48-10.53,8.48h-13.06v-5.76h13.01c1.27,0,2.17-.16,2.74-.67.46-.42.79-1.02.79-1.75,0-.78-.36-1.4-.82-1.78-.51-.41-1.22-.6-2.39-.6-6.27-.2-14.12.19-14.12-8.32,0-3.9,2.56-8,9.58-8h13.44v5.72h-12.3c-1.22,0-2.01.04-2.69.49-.73.44-1.01,1.08-1.01,1.93,0,1.01.62,1.7,1.47,2,.71.24,1.47.3,2.61.3l3.61.09c3.64.08,6.14.69,7.66,2.16h0ZM238.55,91.83h-12.22c-1.22,0-2.03.04-2.71.49-.71.44-.98,1.08-.98,1.93,0,1.01.6,1.7,1.47,2,.71.24,1.47.3,2.58.3l3.63.09c3.67.09,6.11.69,7.61,2.16.27.2.44.44.62.67v-7.65h0Z"/>
</svg>