<?xml version="1.0" encoding="UTF-8"?>
<svg id="Layer_1" data-name="Layer 1" xmlns="http://www.w3.org/2000/svg" viewBox="0 0 238.63 152.97">
  <defs>
    <style>
      .cls-1 {
        fill: #f47216;
      }

      .cls-1, .cls-2 {
        fill-rule: evenodd;
      }

      .cls-3 {
        fill: #4d4d4d;
      }

      .cls-2 {
        fill: #fff;
      }
    </style>
  </defs>
  <path class="cls-3" d="M12.24,0h214.15c6.76,0,12.24,5.48,12.24,12.24v128.49c0,6.76-5.48,12.24-12.24,12.24H12.24C5.48,152.97,0,147.49,0,140.73V12.24C0,5.48,5.48,0,12.24,0Z"/>
  <path class="cls-2" d="M100.09,49.38c2.7,0,4.97.55,7.73,1.86v6.96c-2.61-2.41-4.88-3.41-7.88-3.41-5.89,0-10.53,4.59-10.53,10.42,0,6.14,4.49,10.46,10.82,10.46,2.85,0,5.07-.95,7.59-3.32v6.96c-2.86,1.27-5.17,1.77-7.88,1.77-9.57,0-17-6.91-17-15.83s7.63-15.87,17.15-15.87h0ZM70.38,49.57c3.53,0,6.76,1.14,9.47,3.36l-3.29,4.05c-1.64-1.73-3.18-2.46-5.07-2.46-2.71,0-4.68,1.45-4.68,3.36,0,1.64,1.11,2.5,4.88,3.82,7.15,2.46,9.27,4.64,9.27,9.46,0,5.87-4.58,9.96-11.11,9.96-4.78,0-8.26-1.77-11.15-5.77l4.06-3.68c1.45,2.63,3.86,4.05,6.86,4.05,2.8,0,4.88-1.82,4.88-4.28,0-1.27-.63-2.37-1.88-3.14-.63-.37-1.88-.91-4.34-1.73-5.9-2-7.93-4.14-7.93-8.32,0-4.96,4.35-8.69,10.05-8.69ZM142.19,50.1h6.86l8.59,20.37,8.7-20.37h6.81l-13.92,31.11h-3.38l-13.67-31.11ZM20.62,50.14h9.22c10.19,0,17.3,6.24,17.3,15.19,0,4.46-2.17,8.78-5.85,11.64-3.09,2.42-6.62,3.5-11.5,3.5h-9.18v-30.33ZM50.04,50.14h6.28v30.33h-6.28v-30.33ZM176,50.14h17.82v5.14h-11.54v6.73h11.12v5.14h-11.12v8.19h11.54v5.14h-17.82v-30.33h0ZM197.98,50.14h9.32c7.25,0,11.4,3.28,11.4,8.96,0,4.64-2.6,7.69-7.34,8.6l10.14,12.78h-7.73l-8.7-12.18h-.82v12.18h-6.28v-30.33ZM204.26,54.92v9.19h1.84c4.01,0,6.14-1.64,6.14-4.69s-2.13-4.5-6.04-4.5h-1.94ZM26.9,55.28v20.06h1.69c4.06,0,6.63-.73,8.6-2.41,2.17-1.82,3.48-4.73,3.48-7.64s-1.31-5.73-3.48-7.55c-2.08-1.77-4.54-2.45-8.6-2.45h-1.69Z"/>
  <path d="M109.86,65.3h0c0-8.92,7.67-16.14,17.14-16.14s17.14,7.22,17.14,16.13h0c0,8.92-7.68,16.14-17.14,16.14s-17.14-7.22-17.14-16.13Z"/>
  <path class="cls-1" d="M127,49.16c-9.47,0-17.14,7.22-17.14,16.13h0c0,8.92,7.67,16.14,17.14,16.14s17.14-7.22,17.14-16.13h0c0-8.92-7.68-16.14-17.14-16.14Z"/>
  <path class="cls-1" d="M238.63,88.07v52.67c0,6.76-5.47,12.23-12.23,12.23H68.47c102.82-19.41,162.21-59.3,170.16-64.9Z"/>
</svg>