<?xml version="1.0" encoding="UTF-8"?>
<svg id="Layer_1" data-name="Layer 1" xmlns="http://www.w3.org/2000/svg" viewBox="0 0 253.73 195.25">
  <defs>
    <style>
      .cls-1 {
        fill: #f1f2f2;
        fill-rule: evenodd;
      }
    </style>
  </defs>
  <path class="cls-1" d="M139.5,1.18l112.32,92.5c.27.22.53.47.76.74,1.77,2.15,1.47,5.35-.7,7.11l-112.05,92.27c-.92.89-2.17,1.45-3.56,1.45-2.81,0-5.08-2.27-5.08-5.08v-60.45H5.08c-2.81,0-5.08-2.28-5.08-5.08v-54.07c0-2.81,2.27-5.08,5.08-5.08h126.12V5.06c.02-1.13.4-2.27,1.16-3.21,1.77-2.15,4.96-2.46,7.11-.7l.02.03Z"/>
</svg>