<?xml version="1.0" encoding="UTF-8"?>
<svg id="Layer_1" data-name="Layer 1" xmlns="http://www.w3.org/2000/svg" viewBox="0 0 202.91 202.91">
  <defs>
    <style>
      .cls-1 {
        fill: "currentColor";
      }
    </style>
  </defs>
  <path class="cls-1" d="M125.63,101.46c0,13.34-10.81,24.15-24.15,24.16-13.35,0-24.17-10.81-24.17-24.15-.01-13.35,10.81-24.17,24.15-24.17s24.16,10.81,24.17,24.16Z"/>
  <path class="cls-1" d="M157.96,58.73h-.02c-2.48-6.3-7.47-11.29-13.77-13.78-9.51-3.75-32.16-2.91-42.71-2.91s-33.18-.87-42.72,2.91c-6.3,2.49-11.28,7.48-13.77,13.78-3.75,9.51-2.91,32.18-2.91,42.72s-.84,33.19,2.93,42.73c2.48,6.3,7.47,11.29,13.77,13.77,9.51,3.76,32.16,2.92,42.72,2.92s33.17.87,42.71-2.92c6.3-2.48,11.29-7.47,13.77-13.77,3.78-9.51,2.91-32.18,2.91-42.72s.87-33.19-2.91-42.73ZM101.55,138.6h-.09c-20.51,0-37.14-16.63-37.14-37.14s16.63-37.14,37.14-37.14,37.14,16.62,37.14,37.14c.02,20.48-16.56,37.11-37.05,37.14ZM148.79,62.76c.03,4.78-3.83,8.66-8.61,8.68-.01.01-.02.01-.03.01l-.02-.02c-4.79,0-8.67-3.88-8.67-8.67-.01-4.79,3.87-8.67,8.66-8.67s8.67,3.88,8.67,8.66h0Z"/>
  <path class="cls-1" d="M194.75,0H8.15C3.65,0,0,3.65,0,8.16v186.6c0,4.5,3.65,8.15,8.15,8.15h186.6c4.51,0,8.16-3.65,8.16-8.15V8.16c0-4.51-3.65-8.16-8.16-8.16ZM173.42,131.35c-.58,11.61-3.23,21.89-11.71,30.35-8.47,8.45-18.75,11.15-30.34,11.7-11.97.68-47.83.68-59.79,0-11.61-.58-21.86-3.23-30.35-11.7-8.48-8.47-11.15-18.76-11.71-30.35-.67-11.97-.67-47.83,0-59.79.59-11.61,3.21-21.89,11.71-30.34,8.51-8.46,18.79-11.13,30.35-11.68,11.96-.67,47.82-.67,59.79,0,11.6.58,21.89,3.24,30.34,11.71,8.46,8.47,11.16,18.76,11.71,30.37.68,11.92.68,47.75,0,59.73Z"/>
</svg>