<?xml version="1.0" encoding="UTF-8"?>
<svg id="Layer_1" xmlns="http://www.w3.org/2000/svg" viewBox="0 0 1253.1 697.68">
  <defs>
    <style>
      .cls-1 {
        fill: #ee3524;
      }

      .cls-2 {
        fill: #423937;
      }
    </style>
  </defs>
  <path class="cls-2" d="M825.83,100.47c-5.24-.61-17.99-6.18-26.21-10.74,2.27-3.24,3.79-6.05,3.79-7.93-.03-1.55-1.26-2.78-2.78-2.78-3.62,0-11.1-.1-17.73-.23-3.17-7.28-8.22-18.19-11.2-21.36-.55-.61-1.33-.91-2.14-.91-.81.03-1.59.42-2.07,1.07-5.21,6.6-14.56,16.31-20.39,21.2-.94.78-1.26,2.04-.81,3.17,1.84,4.53,2.78,11.26,3.14,14.66-3.66.26-7.61.61-11.75,1.16.61-4.27,1.13-7.96.97-10.32-.06-.91-.55-1.72-1.36-2.17-.74-.45-1.72-.52-2.56-.16-3.37,1.52-11.16,5.34-17.67,8.51.29-7.61,1.72-18.32,1.81-20.55.1-2.33,7.02-7.64,12.01-11.13,4.56.81,10.13,1.91,12.39,2.65.23.06.49.1.74.13.65.03,1.26-.19,1.78-.58l10-7.48c.74-.55,1.13-1.46,1.07-2.39,0-.13-.71-12.04.29-22.56.1-1.07-.45-2.14-1.39-2.69-.94-.52-2.1-.49-3.01.16-1.36,1-4.43,1.91-8.22,2.72,1.84-10.19,2.04-24.95-.06-28.41-.52-.81-1.46-1.42-2.33-1.33-.94-.03-1.84.42-2.36,1.23-1.42,2.1-12.82,7.93-24.47,13.11-1.52-2.43-2.78-4.72-3.59-6.63-.42-1-1.68-1.81-2.49-1.72-1.07,0-2.1.58-2.59,1.55-1.59,3.27-9.26,9.48-14.34,13.59-1.42,1.13-2.72,2.2-3.82,3.11-.16-3.01-.26-6.38-.32-9.26-.13-3.62-.23-6.83-.36-8.58-.13-1.39-1.26-2.49-2.69-2.56-1.13-.03-7.09-1.04-29.09-5.63l-1.68-.36c-1.07-.19-2.17.23-2.82,1.07-.65.91-.71,2.07-.19,3.01,4.63,8.41,5.66,15.02,6.08,20.91.1,1.16.87,2.14,2.01,2.46,4.63,1.36,25.86,9.35,26.08,9.42.26.13.55.19.87.19.55,0,1.13-.19,1.62-.52.42,1.16.84,2.43,1.29,3.75l-28.38-10.84c-.91-.36-1.88-.19-2.65.36-.74.55-1.16,1.46-1.1,2.39.45,7.28.94,17.31.94,22.82-7.02-3.27-22.01-9.97-29.16-11.16-1.07-.23-2.14.26-2.75,1.16-.61.91-.65,2.07-.06,3.01,1.33,2.2,3.79,7.12,6.38,12.33,3.92,7.9,7.96,16.05,10.16,18.83,1.49,1.88,4.05,2.88,7.64,3.01,4.85.19,11-1.26,15.7-3.43-.52,5.24-1.55,10.74-2.69,15.18-.39,1.49.52,2.98,2.01,3.37,4.53,1.17,11.75,2.04,19.26,2.33,1.78.06,3.53.1,5.24.1,6.34,0,12.23-.45,17.09-1.29-.03.06-.03.13-.03.16-1.26.65-1.84,2.17-1.33,3.53l.61,1.52c-.32,2.3-.61,4.3-.78,5.79-.71,6.67-8.74,17.57-17.41,25.86-.23-4.53-.58-11.13-.84-14.17-.13-1.26-1.07-2.27-2.3-2.49-4.01-.74-19.06-6.63-24.08-9.71-.81-.45-1.78-.52-2.59-.16l-.61.29-2.52-7.64c-.26-.81-.91-1.49-1.72-1.75-3.33-1.2-7.61-2.78-11.65-4.34-.78-6.21-2.14-14.72-3.98-18.77-.52-1.13-1.72-1.81-2.94-1.62-1.75.29-6.41,2.49-10.97,4.79-3.75-7.28-10.1-18.45-15.86-22.91-.61-.45-1.36-.65-2.14-.52-.74.1-1.42.52-1.84,1.13-1.42,2.1-3.2,5.27-5.24,8.93-1.42,2.56-3.01,5.37-4.69,8.22l-28.06,2.04c-.26,0-.52.06-.78.16l-13.69-17.99c-.52-.65-1.29-1.07-2.1-1.1-4.56-.16-26.31-3.37-33.49-7.6-1.04-.58-2.3-.49-3.2.26-.91.78-1.23,2.01-.84,3.11,4.14,10.97,5.47,25.21,4.76,29-.23,1.33.52,2.65,1.78,3.11l20.13,7.38c-5.5,4.6-10.1,8.16-10.16,8.22-1.2.94-1.42,2.65-.49,3.88,2.14,2.78,11.29,9.74,23.04,18.58,3.33,2.49,6.21,4.69,7.99,6.08.1.06.19.1.29.16,6.99,10.58,15.27,23.43,17.28,26.7,3.4,5.6,3.79,27.38,4.24,31.04.49,3.66-2.75,9-5.66,5.86-2.91-3.14-12.36-9.55-15.83-13.92-2.27-2.88-7.83-8.77-13.07-13.56l11.39-1.42c1.04-.13,1.91-.81,2.27-1.78l4.08-10.78c.36-.97.13-2.1-.61-2.88-5.6-5.92-12.27-15.95-14.05-23.72-.26-.97-.97-1.72-1.84-2.01-.94-.32-1.94-.13-2.69.52l-24.17,20.42c-.97.81-1.2,2.14-.68,3.24-3.46-2.23-6.96-4.53-10.13-6.6,2.1-8.06,2.49-21.78,2.2-28.83-.03-1.2-.84-2.23-1.97-2.59-1.39-.39-3.27-1-5.37-1.72,2.14-6.89,4.53-16.02,4.63-18.61.03-1.2-.71-2.3-1.81-2.72-3.4-1.26-10.39-5.15-17.67-10.61-1.13-.84-2.78-.71-3.75.42-3.95,4.53-8.09,12.33-10.68,18.22-1.65-1.1-3.01-2.2-3.85-3.2-.81-.94-2.17-1.23-3.3-.71-1.13.55-1.78,1.75-1.55,3.01.19,1.1.32,2.62.45,4.24l-6.21-1.78c-11.23-.71-23.75-1.68-25.18-2.04-1.2-.42-2.56,0-3.27,1.07-.71,1.07-.61,2.49.26,3.43,4.14,4.47,9.03,14.79,12.23,22.56-6.41,1.39-12.17,2.91-15.5,4.3-.87.39-1.49,1.16-1.65,2.1s.16,1.88.87,2.52c4.76,4.37,21.04,18.9,30.19,22.82.32.16.65.23,1,.23.23,0,.45,0,.71-.06,4.66-1.1,14.17-8.12,23.66-15.6,4.95,1.2,10.61,2.65,15.18,4.05,5.02,3.4,10.94,7.51,16.73,11.65-9.9-.84-18.19-2.14-23.4-3.66-1.2-.36-2.49.16-3.14,1.2-1.78,2.88-3.07,5.28-4.21,7.38-2.1,4.01-3.53,6.63-6.89,9.77-.81.74-1.1,1.88-.78,2.91.36,1,1.26,1.75,2.33,1.91,22.14,2.69,33.95,5.6,42.1,10.36.42.26.84.36,1.29.39.94.03,1.88-.42,2.43-1.23,2.75-4.11,6.67-9.74,10.19-14.43,1.68,1.29,3.14,2.39,4.21,3.24,8.8,6.99,13.82,18.67,27.15,33.72,13.37,15.05,20.71,28.64,22.43,31.13,1.72,2.49,12.07,48.32,12.78,61.03.74,12.75-1.55,9.61-5.7,6.44-4.11-3.2-19.29-17.67-23.98-21.52-3.4-2.75-11.94-13.69-20.13-23.33l17.31-1.46c.13-.03.29-.06.45-.1.94-.23,1.68-.97,1.97-1.91.68-2.27,5.95-25.66,2.49-33.2-.52-1.13-1.75-1.78-2.98-1.59-4.08.65-13.33,4.47-20.68,7.86l6.21-8.22c.74-.94.78-2.27.06-3.27,0,0-8.64-12.49-10.94-15.6-.42-.58-1.39-1.52-3.24-1.62-6.25-.23-22.49,11.97-25.21,14.98-.74.84-1.1,1.97-.97,3.14.29,3.37,5.66,8.87,11.29,13.82l-20.32-7.9c-.97-.39-2.1-.16-2.91.58-.78.68-1.07,1.78-.78,2.82l9.68,32.46c.32,1.16,1.36,1.94,2.52,1.97h.29l26.25-1.49c6.38,6.76,14.92,15.89,17.02,18.54,3.46,4.37,1.46,9.16-2.82,10.19-4.27,1.04-10.94.78-20,.42-2.59-.1-6.05-.74-9.9-1.75l2.91-12.49c.32-1.49-.55-2.95-2.01-3.33-2.88-.74-11.2-6.15-17.25-10.06-4.53-2.94-8.41-5.5-10.65-6.57-1.13-.55-2.46-.29-3.3.65-2.14,2.36-4.17,9.22-5.63,15.66-8.74-5.53-17.38-11.59-20.1-15.5-2.23-3.24-3.95-6.99-7.6-16.31,4.43.87,11.16,2.27,19.61,4.37.19.03.39.06.55.06.45.03.87-.03,1.26-.23,6.54-2.94,8.48-28.83,8.41-37.41,0-1.07-.61-2.04-1.59-2.49-.97-.49-2.1-.32-2.94.36-1.33,1.1-4.72,2.65-9.09,4.4-4.85-10.65-10.61-24.21-10.84-27.57-.06-.97-.65-1.88-1.52-2.3-.87-.45-1.94-.39-2.78.13-1.62,1.1-3.14,2.17-4.6,3.24-3.85-3.27-17.18-14.56-27.64-23.17-.94-.74-2.23-.84-3.24-.23-4.05,2.49-12.07,14.89-13.62,17.35-.42.65-.55,1.42-.36,2.2,1.16,4.43,2.52,9.35,3.82,13.56-.36-.06-.68-.1-1.04-.03-.13.03-14.5,2.39-25.53,1.97-1.17-.03-2.27.68-2.69,1.78-.45,1.1-.13,2.33.78,3.11.97.87,3.17,5.5,4.95,9.22,2.39,5.02,5.37,11.29,8.67,16.18.52.74,1.33,1.2,2.23,1.26,7.09.26,17.25-2.04,25.99-4.34,6.38,3.88,11.68,6.89,15.5,9.06,1.84,1.04,3.4,1.91,4.6,2.62,2.94,9.19,6.38,20.32,6.63,22.75.23,2.39,2.01,5.6,4.43,8.41-1.94,1.59-4.14,3.3-6.18,4.56-4.53-6.57-16.89-23.92-24.3-27.96-.49-.29-1.1-.42-1.68-.32-4.5.55-10.71.97-16.76,1.39-9.13.58-17.02,1.1-20.23,2.17-.81.29-1.46.94-1.75,1.75-.26.84-.16,1.75.36,2.46,2.01,2.91,4.69,7.38,7.25,11.68-9,3.2-22.85,8.12-24.63,8.93-1.49.68-2.43,1.94-2.56,3.46-.26,3.4,3.82,6.44,5.57,7.6,3.04,1.97,20.32,11.75,22.72,13.07.39.19,1.29.45,1.72.45,3.62.16,9.16-4.43,22.56-18.77,8.87.23,19.19.45,25.4.61-7.86,7.09-18.54,16.02-23.98,17.83-.87.26-1.55.97-1.81,1.84-.26.84-.06,1.78.49,2.49,2.72,3.43,7.35,10.58,10.42,15.31l2.04,3.14c.52.78,1.33,1.23,2.23,1.26h.26c4.3-.26,14.37-5.34,21.71-9.35l.29,4.11c.03.74.39,1.42.97,1.91.49.42,1.07.65,1.68.65.13.03.26,0,.42,0l10.84-1.16c-1.36,2.72-2.56,4.98-3.46,6.25-.65.87-.71,2.01-.23,2.95.55.94,1.49,1.52,2.62,1.46,3.56-.16,7.7-.16,11.97-.03.71.03,1.39.06,2.07.1,3.01,11.26,4.53,20.26,4.3,25.7-.03,1.04.49,1.97,1.36,2.49.42.26.87.39,1.33.42.52,0,1.04-.13,1.49-.39,4.92-2.85,9.9-6.02,14.47-8.9,1.81-1.16,3.66-2.33,5.47-3.46,3.14,3.53,5.89,7.09,7.18,9.45.42.74,1.1,1.23,1.91,1.39.13.03.29.06.45.06.65.03,1.33-.19,1.84-.61,5.37-4.34,16.86-16.86,21.97-23.92.58-.84.68-1.88.29-2.78-3.17-7.02-21.26-20.55-26.93-24.69l.49-2.07c3.37,1.49,5.79,2.39,6.7,2.43,4.85.16,35.66,1.97,39.26,2.72,3.62.71,9.84,5.99,10.84,7.38,6.54,9.09,19.22,30.1,19.58,36.15,1.55,25.44-4.14,51.03-18.71,83.79-5.15,11.52-30.45,62.2-35.79,66.83-5.31,4.66-9,1.04-13.62-.61-4.56-1.65-18.8-2.17-23.4-3.79-4.6-1.65-12.82.45-16.31,1.68-3.46,1.23-45.92,24.82-49.9,26.76-3.95,1.94-10.32.61-12.2.36-1.91-.29-5.11-.94-8.06-.39-2.98.52-56.76,36.57-63.49,40.23-5.99,4.17-4.01,5.05,1.75,2.78,5.73-2.27,39.93-20.68,44.95-23.43,5.05-2.75,13.3-1.17,16.96,1.88,3.59,3.04,7.93,1.68,13.3-1.13,12.36-6.54,53.69-26.21,57.54-28.77,3.85-2.52,9.32-2.88,12.62-1.62,3.3,1.23,12.49,4.5,19.77,7.48,7.28,3.01,17.48-1.88,25.5-5.15,7.99-3.3,17.25-3.11,20.68-1.26,3.4,1.84,7.22,6.08,13.11,8.09,5.92,2.01,10.65,7.93,5.21,11.97-5.4,4.05-5.47,7.15-5.05,9.51.42,2.39,4.11,9.09,2.62,17.96-1.49,8.87-14.85,23.56-22.52,28.61-7.7,5.08-6.96,9.26-5.02,13.2,1.91,3.95,11.65,16.96,13.98,23.33,2.39,6.31,6.41,18.51,15.02,21.88,8.58,3.4,59.09,30.29,70.35,35.95,8.09,4.08,10.23-1.23,2.14-5.31-45.08-22.69-76.83-68.58-79.87-71.75-3.01-3.14-5.44-6.38-1.2-10.23,4.24-3.82,16.44-14.63,20.55-19.06,4.11-4.4,5.05-9.48,4.79-14.37-.26-4.85.1-16.6.55-20.97.42-4.4,5.37-14.5,9.94-16.54,4.53-2.07,8.64.29,10.78,1.75,2.1,1.46,13.56,3.72,16.67,3.79,3.07.06,13.75-5.53,19.48-7.8,5.73-2.27,10.71-1.91,18.51.36,7.77,2.3,50.71,8.74,57.28,7.57,6.54-1.16,6.5-4.85-1.55-5.24-22.3-1.13-55.86-13.37-63.98-17.44-8.12-4.08-13.14-1.33-16.99,1.2-3.85,2.56-6.89,6.15-12.07,4.63-5.21-1.52-9.71-13.01-12.85-16.76-3.14-3.72-10.06-1.26-19.09-.26-9.03,1.04-9.03-5.76-8.09-10.81.94-5.11,14.27-47.64,18.19-55.34,3.95-7.73,9.97-22.65,12.59-27.99,2.62-5.37,2.2-10.19-2.49-14.01s-1.2-.65-5.15-8.06c-3.95-7.44,2.75-49.22,4.79-52.23,5.47-7.99,9.38-17.99,20.84-29.74h.03c.42-.03.81-.19,1.17-.42l-.36,23.17c0,1.52,1.2,2.78,2.69,2.82,11,.45,24.08,1.49,26.28,2.43.45.29.97.45,1.46.49.52,0,1-.1,1.46-.36,1-.55,1.59-1.68,1.42-2.78-.58-4.43-.65-13.75-.23-24.98.06-1.36-.91-2.59-2.27-2.85-7.64-1.46-15.79-1.94-21.2-2.3-1.97-.1-4.14-.26-5.08-.36,5.86-5.18,13.3-10.68,22.98-16.5,4.11,1.88,10.74,8.22,19.9,19.09.97,1.16,1.72,2.04,2.14,2.49.49.55,1.2.84,1.91.87.23.03.42,0,.65-.03,7.25-1.39,24.01-2.04,32.52-1.1,1.23.13,2.3-.52,2.82-1.62.49-1.07.26-2.33-.58-3.17l-2.33-2.27c-7.28-7.09-22.43-21.84-31.23-26.12-.36-.16-.71-.26-1.1-.29-.45,0-1.04.03-1.68.1,1.78-.65,4.37-1.42,7.38-2.17l21.1-3.5c.13,0,.23-.06.36-.13-.32,2.69-1.62,12.36-2.94,18.51-.29,1.29.52,2.72,1.78,3.2,11.81,4.66,33.79,13.37,39.61,18.32.52.45,1.2.68,1.88.68.16,0,.36-.03.52-.06.84-.19,1.55-.78,1.94-1.55,2.3-4.95,2.98-12.3,2.82-17.05,0-.55-.16-1.07-.52-1.55-2.56-3.62-11.68-13.95-12.07-14.4-.29-.36-.68-.61-1.16-.78-.52-.19-1.1-.39-1.68-.58,4.98-2.17,9.77-4.56,11.65-5.92.55-.39.94-.97,1.07-1.59.65-2.49,1.59-5.31,2.56-8.25,1.84-5.5,3.92-11.75,4.37-17.15.06-.94-.36-1.84-1.1-2.43-.74-.58-1.68-.71-2.59-.42-9.77,3.4-37.35,10.23-37.6,10.29-.87.23-1.59.84-1.91,1.65l-3.43,8.35c2.14-14.14,3.66-28.15.13-35.4-.36-.78-1.07-1.33-1.91-1.49-.84-.19-1.75.03-2.39.58-4.3,3.72-10.1,9.48-15.18,14.56-4.5,4.47-10.1,10-11.36,10.71-.84.49-1.39,1.36-1.42,2.36-.06,1.1,0,2.69.06,4.5.03.87.06,1.84.1,2.88-2.75-2.59-6.73-6.8-10.94-11.23-3.11-3.27-6.5-6.89-10.03-10.49-.61-.65-1.52-.94-2.39-.81-.91.16-1.68.68-2.07,1.52-.52,1.04-1.2,2.39-1.97,3.95-3.62-6.34-10.49-15.66-22.78-24.82-.71-.55-1.68-.71-2.52-.39-.87.26-1.52.94-1.78,1.81-1,3.33-1.78,6.15-2.46,8.64-2.07,7.57-3.11,11.33-6.93,15.27-.58.61-.87,1.46-.78,2.3.13.84.61,1.59,1.33,2.04,2.56,1.52,8.58,3.33,15.53,5.44,3.85,1.13,9.32,2.78,13.3,4.24-1.97,4.05-3.43,7.09-3.43,7.09-.61,1.23-.23,2.72.91,3.49,5.47,3.85,9.93,7.99,14.37,12.36-8.06,4.4-15.5,9.39-22.14,14.37,2.27-8.16,4.37-16.21,4.43-17.7.03-.74-.23-1.46-.74-1.97-3.46-3.75-15.05-16.89-15.05-16.89-.55-.65-1.39-.97-2.2-.94-.84.03-1.62.49-2.14,1.16-2.95,4.08-16.02,14.82-20.78,18.61-.74.58-1.13,1.52-1.07,2.46.1.94.68,1.78,1.52,2.2,4.95,2.46,16.57,12.59,23.62,23.07-10.16,8.74-16.83,15.86-18.54,16.96-4.34,2.88-5.95-2.65-5.95-2.65,0,0-.32-7.28-3.07-14.63-2.72-7.38-8.12-25.15-9.71-30.65-1.62-5.5.81-21.16,4.79-30.1,5.21-11.72,25.47-32.33,31.16-39.35.74-.91,2.04-2.33,3.69-4.08,5.92-.55,12.01-1.1,15.89-.97,2.04.1,2.65.32,2.69.32.97.74,2.36.71,3.33-.03.97-.78,1.33-2.07.87-3.24-.78-1.94-1.52-4.5-2.27-7.05,12.14-2.56,22.88-3.46,32.04-3.33l-9.71,16.44c-.1.1-.16.26-.23.42-.36.87-.19,1.91.42,2.69,1.46,1.88,17.77,18.16,25.95,19.74,1.2.23,2.46-.39,3.01-1.52,2.98-6.02,6.83-26.76,6.8-30.74-.03-1.39-1.07-2.56-2.43-2.72-1.97-.26-5.11-1.59-8.25-3.07,6.86,1.04,12.27,2.49,15.99,3.79,0,.03,0,.1.03.13l.1,2.49c.23,4.4,6.18,11.52,6.18,21.07-.03.19,0,.39.03.58.1.42.29.81.55,1.13,4.47,5.63,30.03,1.2,38.35-.94,1.04-.29,1.81-1.1,2.04-2.17.19-1.07-.23-2.14-1.1-2.75-3.95-2.95-15.76-21.23-22.27-32.07-.39-.65-1.04-1.13-1.78-1.29-.71-.16-1.52,0-2.14.39-.19.13-.74.49-1.49.91,3.04-7.02,5.53-14.66,5.76-16.89.1-1.1-.26-2.2-1.07-3.07-3.79-4.24-23.53.19-31.52.1-.55,0-1.1.16-1.59.49-.13.1-.26.19-.39.29-.52.52-.84,1.23-.84,1.97l-1.42,20.06c-17.44-3.95-36.83-3.56-51.39-1.23,11.49-11.16,23.53-22.62,27.73-26.54.91-.81,1.68-1.65,2.43-2.49,6.25,3.24,12.75,6.76,15.02,9.13.52.52,1.26.84,2.01.84.78-.03,1.52-.32,2.04-.91,6.31-6.8,16.57-16.89,19.64-18.06,1.17-.45,1.91-1.62,1.81-2.85-.13-1.26-1.04-2.27-2.3-2.49-3.33-.61-7.57-1.84-11.62-3.4l6.28-1.13c.91-.16,1.65-.71,2.04-1.52.39-.78.36-1.72-.03-2.49-.65-1.23-.36-5.11.13-9.03,4.82-1.1,9.81-1.81,14.47-2.23.29.29.61.61,1,.91l-4.27,5.02c-.39.45-.65,1.07-.65,1.68-.03.52-.45,12.75,2.98,22.33.26.74.81,1.36,1.55,1.65,1.39.55,2.85,1.26,4.5,2.04,6.28,2.98,14.92,7.09,29.03,9.09.1,0,.23,0,.29.03.87,0,1.72-.36,2.27-1.04.61-.74.81-1.78.45-2.69-2.1-5.99-4.21-15.08-4.6-19.48,3.69.61,7.96,1.17,12.07,1.33,3.4.13,6.38-.03,8.83-.49.94-.19,1.75-.84,2.1-1.75,2.23-5.95,14.82-12.94,19.48-14.5,1.23-.39,2.01-1.62,1.88-2.91-.13-1.29-1.13-2.33-2.43-2.46ZM465.15,280.07c-.87-3.37-1.49-6.34-1.68-8.22.74-.52,1.42-1,2.04-1.42,1.23-.84,3.53-1.2,5.92-1.13,3.27,1.65,8.67,4.4,14.92,7.57l-21.2,3.2ZM494.38,297.62l.78-9.48c1.59.74,3.3,1.55,5.11,2.36,5.79,2.69,12.72,5.86,17.25,8.9-5.73,1.16-15.95-.39-23.14-1.78ZM588.19,125.81c-.61,3.37-3.5,10.61-9.48,19.81-.19.29-.29.61-.36.97-3.75-4.11-10.23-14.37-14.04-20.49,1.07-3.04,2.17-7.73,3.33-13.79l14.05,7.41c.78.42,1.65.45,2.43.1.78-.32,1.36-1.04,1.59-1.84.03-.1,1-3.92,2.59-9.32.58,1.29,1.13,2.36,1.62,3.01.45.61,1.16,1.04,1.94,1.1,2.88.32,5.89.52,8.64.61,1.72.06,3.27.1,4.69.1-.32,2.43-.87,4.5-1.88,5.44-1.13,1.04-3.82,4.5-6.67,8.28-1.59-1.33-3.04-2.46-4.21-3.2-.78-.52-1.75-.61-2.62-.23-.84.36-1.46,1.13-1.62,2.04ZM612.56,410.59c2.65-6.44,2.3-13.01,1.81-16.02-.45-2.98,4.34-19.09,4.95-25.89.65-7.22,2.78-5.37,2.65-1.81-.1,3.04-1.75,14.85-2.52,19.55-.78,4.76,3.82,9.09,6.76,9.81,2.94.71,2.23,4.24-1.46,7.67-3.72,3.43-12.94,26.54-15.83,32.52-2.23,4.63-6.44,4.27-3.92-2.04,1-2.46,4.92-17.35,7.54-23.79ZM608.84,211.14c-3.14,3.53-6.34,8.22-8.12,6.96-1.78-1.29-6.96-8.16-9.77-13.69-2.82-5.57,1.13-29.64-1.36-43.66,0-.06.03-.13.03-.19,2.52.36,7.99,2.3,13.14,4.47.58,9.38,1.26,20.87,1.16,22.91,0,.78.26,1.49.78,2.04.52.55,1.2.81,2.01.87,9.87.03,16.67.13,21.33.49-10.13,10.32-18.03,18.54-19.19,19.81ZM678.68,142.99c-3.43,2.27-11,9.22-19.97,17.86-7.31-.78-16.63-1.97-24.72-4.01.58-3.01,1.59-8.25,2.52-11.84.19-.81.03-1.68-.45-2.36-.52-.68-1.29-1.1-2.14-1.13-4.6-.16-22.88-4.72-28.9-6.86-.16-.13-.32-.29-.49-.42,3.11-4.3,5.83-7.9,7.02-9.55.94-1.26,1.49-2.78,1.84-4.47,9.77-.1,31.26,3.24,40.68,4.79l2.23,9.97c.23,1.07,1.07,1.88,2.1,2.1l21.78,4.85c-.52.36-1.04.74-1.52,1.07ZM707.87,91.05l-9-17.09c-.39-.71-1.04-1.23-1.81-1.39-.19-.06-18.06-4.37-27.44-7.09-.65-.19-1.29-.06-1.91.19l-2.23-3.72c8.45-.45,18.03-1.33,18.51-1.36.58-.06,1.13-.29,1.59-.68,0,0,3.98-3.5,7.67-6.73.1.06.16.13.26.19,1.33.78,4.79,2.75,7.96,3.98,1.91,2.85,3.95,5.92,5.6,8.61,2.59,4.27,1.97,15.02.81,25.08ZM713.27,61.37l-2.72-5.05c2.3-1.55,5.76-4.27,11.07-8.96l-.1,10.78c0,1.04.58,1.94,1.42,2.43-3.14,2.88-9.68.81-9.68.81Z"/>
  <path class="cls-2" d="M499.94,616.61c-.67-.82-1.75-1.17-2.77-.95-1.02.23-1.83,1.03-2.08,2.04-.98,3.94-3.88,17.17-.41,22.26.79,1.15,2.35,2.52,5.35,2.52,5.6,0,13.71-5.04,14.63-5.61.71-.46,1.19-1.21,1.27-2.06.09-.83-.2-1.67-.8-2.27-.12-.12-11.46-11.4-15.19-15.94Z"/>
  <path class="cls-2" d="M466.87,628.48c-.84-.12-1.54.26-1.92.94l-7.73,13.12c-.52.87-.26,2.01.59,2.57l13.25,8.72c.33.21.69.31,1.05.31.39,0,.77-.12,1.11-.36.64-.44.93-1.26.74-2.01l-5.52-21.87c-.19-.75-.81-1.32-1.58-1.43Z"/>
  <path class="cls-2" d="M535.42,636.07c-.88-.55-1.98-.56-2.87-.03-.89.52-1.42,1.49-1.38,2.53l1.13,25.51c.05,1.03.67,1.94,1.58,2.39.39.17.79.26,1.2.26.58,0,1.16-.19,1.66-.55l18.15-13.52c.73-.55,1.15-1.43,1.11-2.35-.04-.92-.53-1.76-1.31-2.24l-19.28-11.98Z"/>
  <path class="cls-2" d="M573.89,649.14c-.62-.4-1.41-.45-2.07-.14-.67.33-1.13.96-1.23,1.68l-1.83,14.76c-.13,1.08.56,2.1,1.62,2.36l8.05,1.99c.16.04.34.07.51.07.43,0,.84-.14,1.21-.36l9.73-6.55c.6-.41.96-1.09.95-1.82,0-.72-.38-1.39-.99-1.79l-15.94-10.21Z"/>
  <path class="cls-2" d="M547.93,621.3l-.2-17.01c-.02-1.45-1.17-2.66-2.64-2.74-8.59-.45-23.1-1.38-25.46-1.93-1.09-.23-2.23.19-2.89,1.1-.65.92-.69,2.14-.09,3.1,2.06,3.28,6.45,14.71,7.96,18.84.41,1.09,1.45,1.83,2.62,1.83h.05l17.92-.38c1.53-.02,2.75-1.29,2.72-2.81Z"/>
  <path class="cls-2" d="M477.62,586.01c-.73-.8-1.86-1.08-2.87-.75l-10.3,3.27c-.94.28-1.64,1.05-1.87,2-.22.94.06,1.93.76,2.62l6.89,6.81c.53.52,1.23.8,1.95.8.16,0,.32-.01.49-.04l11.03-1.97c1-.17,1.83-.88,2.15-1.86.33-.97.09-2.04-.61-2.79l-7.62-8.1Z"/>
  <path class="cls-2" d="M412.92,580.53l-4.7-2.48c-.93-.49-2.04-.42-2.89.18l-10.95,7.65c-.75.52-1.19,1.38-1.19,2.28s.44,1.77,1.19,2.28l10.28,7.15c.47.34,1.03.5,1.59.5.25,0,.5-.03.75-.11.8-.21,1.46-.8,1.8-1.56l5.37-12.33c.58-1.33.04-2.89-1.25-3.57Z"/>
  <path class="cls-2" d="M334.39,570.54c-.64-.51-1.51-.6-2.25-.24l-7.69,3.69c-.69.32-1.15,1.01-1.21,1.78-.06.78.31,1.51.95,1.95l9.09,6.09c.36.24.77.36,1.19.36.24,0,.49-.04.71-.12.64-.23,1.14-.72,1.34-1.37l2.23-6.97c.27-.86-.02-1.81-.74-2.36l-3.64-2.82Z"/>
  <path class="cls-2" d="M376.51,582.65c.72,0,1.43-.28,1.95-.8l8.55-8.45c.56-.56.86-1.33.81-2.13-.04-.8-.42-1.54-1.05-2.04l-5.85-4.61c-.76-.6-1.76-.76-2.67-.43l-20.66,7.48c-1.12.4-1.85,1.49-1.83,2.67.02,1.19.81,2.25,1.95,2.58l17.96,5.59c.28.09.56.13.83.13Z"/>
  <path class="cls-2" d="M386.08,590.59c-.88-.6-2.02-.66-2.95-.14l-11.4,6.43c-.84.47-1.37,1.34-1.42,2.3-.04.94.41,1.86,1.19,2.41l9.33,6.49c.48.34,1.03.5,1.59.5.37,0,.73-.08,1.08-.22.89-.38,1.51-1.18,1.66-2.12l2.06-12.94c.18-1.05-.28-2.1-1.15-2.72Z"/>
  <path class="cls-2" d="M428.53,556.46c-.26-.93-.97-1.66-1.9-1.94l-14.59-4.28c-.93-.28-1.89-.06-2.6.56l-11.98,10.3c-.71.6-1.06,1.55-.94,2.48.13.94.71,1.73,1.57,2.15l14.42,6.85c.38.17.78.25,1.19.25.75,0,1.49-.29,2.02-.87l12.14-12.87c.67-.69.92-1.69.67-2.64Z"/>
  <path class="cls-2" d="M441.53,562.39c-.2-.81-.75-1.49-1.5-1.85-.75-.35-1.62-.36-2.38-.01l-8.69,4.07c-.95.43-1.57,1.39-1.61,2.42-.02,1.05.53,2.02,1.44,2.53l11.15,6.16c.42.22.88.33,1.35.33.6,0,1.19-.18,1.68-.56.88-.68,1.28-1.8,1.02-2.86l-2.46-10.23Z"/>
  <path class="cls-2" d="M492.3,525.74c-.5-.12-1.04-.17-1.64-.17-5.95,0-18.4,6.33-19.8,7.06-1.28.67-1.84,2.19-1.31,3.51l5.65,14.06c.33.82,1.04,1.44,1.89,1.66.24.07.46.08.69.08.64,0,1.26-.22,1.76-.63,5.62-4.65,12.75-9.94,14.35-10.38,2.54-.46,4.25-2.94,4.32-6.31.09-3.59-1.73-7.91-5.93-8.88Z"/>
  <path class="cls-2" d="M501.88,600.8c.73,0,2.1-.24,3.18-1.78,3-4.33,11.92-17.89,11.92-17.89.56-.87.6-1.97.12-2.86-.76-1.38-4.76-8.25-9.98-8.25-4.1.05-15.92,4.83-18.25,5.79-.95.39-1.51,1.32-1.62,2.35-.11,1.01.44,2.06,1.28,2.63,1.17.79,3.52,5.93,4.92,9.02,3.13,6.85,5.01,10.99,8.41,10.99Z"/>
  <path class="cls-2" d="M499.88,542.4l-10.32,12.54c-.74.91-.84,2.17-.25,3.17.5.87,1.43,1.38,2.39,1.38.17,0,.33-.02.5-.04.16-.03,15.11-2.71,19.85-2.96.75-.04,1.44-.37,1.94-.93.5-.56.74-1.28.69-2.03-.05-.75-.8-7.44-11.59-11.92-1.13-.46-2.44-.16-3.21.79Z"/>
  <path class="cls-2" d="M524.63,524.96c-5.01,0-13.69,3.94-14.66,4.38-.96.45-1.58,1.4-1.61,2.45-.02,1.06.54,2.04,1.48,2.54,6.37,3.37,16.01,9.14,17.53,11.43.8,1.23,1.79,1.84,2.94,1.84s2.31-.84,2.76-1.81c1.41-3.12-1.83-16.59-4.11-19.19-.95-1.08-2.41-1.64-4.32-1.64Z"/>
  <path class="cls-2" d="M537.53,553.28l-19.21,8.48c-1.12.49-1.78,1.67-1.64,2.88.15,1.22,1.08,2.2,2.29,2.41l28.52,4.93c.16.04.32.06.47.06.94,0,1.83-.47,2.35-1.28.61-.95.58-2.17-.06-3.08l-9.32-13.42c-.76-1.11-2.2-1.51-3.4-.96Z"/>
  <path class="cls-2" d="M562.89,566.42c.35.15.72.21,1.08.21.54,0,1.08-.16,1.54-.45,4.15-2.76,13.78-14.35,14.86-15.68.64-.76.8-1.8.47-2.74-.35-.92-1.15-1.61-2.12-1.77l-12.34-2.18c-.42-.09-.85-.05-1.25.06l-17.32,5c-1.07.31-1.85,1.22-2,2.32-.14,1.11.4,2.18,1.35,2.75,6.79,3.99,13.34,8.88,14.1,10.52.19.87.79,1.6,1.62,1.96Z"/>
  <path class="cls-2" d="M566.92,517.36c-.66-.81-1.71-1.2-2.74-.96l-18.16,3.88c-.97.21-1.76.92-2.07,1.85-.31.95-.09,1.99.57,2.72,4.84,5.4,11.07,12.03,13.21,12.95.35.15,1.18.31,1.56.31,3.35,0,11.56-4.71,14.92-6.74.69-.42,1.16-1.11,1.3-1.9.14-.8-.06-1.61-.58-2.24l-8.03-9.86Z"/>
  <path class="cls-2" d="M557.58,577.24c-.1.03-13.55,2.45-21.53,1.48-1.12-.09-2.24.43-2.78,1.43l-3.78,6.94c-.46.86-.44,1.88.04,2.72.48.84,1.36,1.36,2.33,1.4,0,0,1.4.04,3.58.04,4.82,0,11.66-.2,16.91-1.13.64-.11,1.22-.44,1.64-.95l6.22-7.41c.76-.89.87-2.16.28-3.18-.59-1.01-1.71-1.58-2.9-1.35Z"/>
  <path class="cls-2" d="M831.19,523.89l-4.97.27c-.24.01-.48.05-.72.13l-4.15,1.37c-.78.27-1.41.86-1.72,1.62-.3.77-.25,1.64.15,2.36.41.74,2.63,4.49,6.32,4.49.17,0,.75-.06.92-.09,3.44-.63,6.02-4.75,6.74-6,.49-.88.48-1.97-.06-2.84-.53-.87-1.5-1.49-2.51-1.31Z"/>
  <path class="cls-2" d="M523.02,683.97l-4.97.28c-.23,0-.48.05-.7.12l-4.17,1.36c-.79.25-1.42.84-1.72,1.61-.31.77-.25,1.63.15,2.36.4.75,2.64,4.49,6.31,4.49.17,0,.76-.05.92-.09,3.46-.61,6.05-4.73,6.77-6,.5-.89.48-1.97-.06-2.84-.54-.87-1.44-1.44-2.52-1.3Z"/>
  <path class="cls-2" d="M801,550.32c.51,0,1.01-.16,1.44-.5l8.82-6.86c.56-.44.89-1.11.89-1.84.01-.7-.32-1.38-.88-1.84l-13.55-10.8c-.96-.76-2.34-.67-3.18.25-.5.53-1.13,1.3-1.82,2.16-1.64,2.01-3.89,4.77-5.6,5.69-.91.49-1.38,1.5-1.18,2.51.19,1.01,1.03,1.77,2.06,1.87,1.75.18,7.29,4.63,11.35,8.67.46.46,1.05.69,1.65.69Z"/>
  <path class="cls-2" d="M725.2,572.8c.36.67,1,1.15,1.74,1.34.22.06.46.09.68.09.52,0,1.03-.14,1.48-.43.05-.02,5.12-3.2,9.68-5.22,1.03-.46,1.73-1.48,1.69-2.6-.03-1.12-.69-2.11-1.74-2.51-.75-.4-2.9-2.74-4.33-4.29-3.91-4.24-6.07-6.46-8.38-6.46-1.64,0-3.42,1.24-3.45,3.92-.09,10.99,2.35,15.66,2.63,16.16Z"/>
  <path class="cls-2" d="M801.8,576.83l-9.24-6.09c-.91-.6-2.09-.61-3.01-.03l-14.13,8.91c-.73.47-1.2,1.23-1.29,2.07l-.87,8.37c-.1,1,.34,1.97,1.15,2.56.48.33,1.05.5,1.63.5.4,0,.79-.09,1.16-.24l24.25-11.19c.92-.43,1.53-1.31,1.61-2.32.07-1-.4-1.97-1.25-2.53Z"/>
  <path class="cls-2" d="M772.1,529.07c0-.73-.31-1.45-.84-1.97-.54-.52-1.22-.81-2-.8l-5.83.14c-1.24.02-2.31.86-2.63,2.06-.31,1.2.2,2.46,1.27,3.1l5.83,3.49c.44.26.93.38,1.43.38.47,0,.95-.11,1.38-.37.87-.49,1.41-1.41,1.39-2.42v-3.62Z"/>
  <path class="cls-2" d="M451.78,616.16l-3.59-.38c-.73-.05-1.48.16-2.05.63-.58.47-.94,1.17-1,1.9l-.5,5.82c-.11,1.24.62,2.4,1.78,2.83.32.13.66.19.99.19.85,0,1.68-.4,2.23-1.12l4.09-5.45c.6-.8.72-1.86.32-2.78-.4-.92-1.26-1.55-2.26-1.65Z"/>
  <path class="cls-2" d="M778.62,604.64l-3.59-.36c-.73-.05-1.48.15-2.05.62-.58.48-.93,1.16-.99,1.9l-.5,5.81c-.11,1.23.62,2.39,1.77,2.84.32.14.66.18.99.18.86,0,1.68-.4,2.23-1.11l4.09-5.45c.6-.8.72-1.85.33-2.78-.41-.92-1.28-1.55-2.27-1.66Z"/>
  <path class="cls-2" d="M775.17,563.98c.33,0,.65-.07.95-.19l10.03-3.66c.93-.35,1.6-1.15,1.79-2.12l.95-5.2c.13-.75-.04-1.52-.49-2.14-.46-.61-1.14-1.01-1.9-1.11l-10.28-1.3c-.77-.12-1.53.11-2.11.6-.59.49-.97,1.2-1.02,1.96l-.69,10.17c-.06.96.35,1.86,1.11,2.43.49.37,1.07.56,1.67.56Z"/>
  <path class="cls-2" d="M761.35,566.87c-.18-.97-.87-1.78-1.8-2.12-.95-.33-1.98-.15-2.73.51l-7.45,6.31c-.64.56-1,1.35-.98,2.19.02.84.41,1.62,1.07,2.13l10.06,7.81c.5.39,1.1.59,1.71.59.5,0,1-.13,1.45-.4.98-.6,1.49-1.75,1.28-2.88l-2.59-14.14Z"/>
  <path class="cls-2" d="M645.47,646.86l10.54,6.28c.43.27.93.39,1.42.39.62,0,1.25-.22,1.76-.63l9.86-8.04c.68-.56,1.06-1.39,1.03-2.26-.04-.87-.47-1.67-1.19-2.18l-11.49-7.99c-1.15-.8-2.69-.63-3.64.41l-8.92,9.77c-.56.61-.82,1.46-.69,2.28.12.82.61,1.56,1.33,1.98Z"/>
  <path class="cls-2" d="M630.93,630.36c.5.4,1.11.6,1.72.6s1.27-.21,1.79-.64l3.83-3.18c.62-.54.99-1.3,1-2.12,0-.82-.35-1.59-.96-2.12l-5.32-4.6c-.4-.37-.9-.59-1.44-.67l-10.2-1.41c-1.25-.2-2.45.52-2.94,1.67-.49,1.16-.15,2.49.84,3.26l11.69,9.21Z"/>
  <path class="cls-2" d="M605.96,603.6c.23.99,1,1.78,1.98,2.05l22.43,6.03c.24.06.49.09.72.09.86,0,1.68-.39,2.22-1.09.68-.9.76-2.12.18-3.09l-9.96-17.06c-.42-.72-1.14-1.22-1.96-1.34-.85-.14-1.66.1-2.29.66l-12.47,11.02c-.77.69-1.1,1.72-.86,2.72Z"/>
  <path class="cls-2" d="M662.26,606.81c.27,0,.56-.03.82-.12.73-.22,1.34-.74,1.68-1.45l7.33-15.14c.36-.72.38-1.56.06-2.3-.32-.74-.94-1.31-1.71-1.55l-22.66-7.24c-1.22-.38-2.51.09-3.19,1.15l-6.39,9.93c-.41.64-.54,1.41-.36,2.16.18.74.66,1.37,1.31,1.76l21.72,12.44c.42.24.9.36,1.38.36Z"/>
  <path class="cls-2" d="M679.68,626.93c1.1,0,2.11-.66,2.55-1.68.49-1.13.18-2.43-.76-3.23l-11.1-9.3c-.75-.63-1.76-.83-2.68-.5-.92.31-1.61,1.08-1.82,2.03l-1.73,7.83c-.17.78,0,1.57.46,2.22.45.64,1.16,1.06,1.94,1.15l12.84,1.46c.1.02.21.02.32.02Z"/>
  <path class="cls-2" d="M696.36,618.39c.49.36,1.07.54,1.65.54.73,0,1.46-.29,2-.86l9.54-9.86c.63-.65.9-1.57.73-2.46-.17-.9-.76-1.64-1.59-2.02l-12.98-5.83c-.91-.42-1.99-.28-2.81.29l-8.87,6.63c-.7.53-1.1,1.36-1.1,2.23s.41,1.71,1.13,2.23l12.31,9.11Z"/>
  <path class="cls-2" d="M688.15,581.68l12.7,7.78c.44.28.94.41,1.45.41.4,0,.81-.09,1.18-.25.85-.4,1.44-1.19,1.57-2.11l.85-5.8c.19-1.26-.5-2.49-1.68-2.98l-9.5-3.96c-.74-.31-1.58-.29-2.28.08l-4.05,1.97c-.91.44-1.51,1.35-1.55,2.37-.05,1.01.46,1.98,1.32,2.5Z"/>
  <path class="cls-2" d="M740.38,583.17c-.23-.73-.73-1.35-1.42-1.69-.68-.35-1.48-.39-2.2-.13l-15,5.43c-.75.26-1.34.84-1.63,1.58-.3.72-.27,1.54.07,2.26l3.27,6.69c.47.96,1.44,1.56,2.49,1.56.06,0,.12,0,.18-.01l15.02-.94c.85-.05,1.63-.49,2.1-1.18.49-.68.64-1.57.4-2.39l-3.29-11.18Z"/>
  <path class="cls-2" d="M434.1,579.35c-.52-.56-1.25-.9-2.02-.91-.86-.03-1.5.29-2.04.85l-11.14,11.41c-.55.56-.83,1.33-.79,2.12.06.8.44,1.52,1.06,2.01l5.85,4.6c.51.4,1.11.6,1.72.6.46,0,.93-.13,1.37-.36l13.12-7.37c.74-.43,1.24-1.15,1.38-1.99.14-.83-.12-1.68-.69-2.32l-7.82-8.63Z"/>
  <path class="cls-2" d="M750.43,560.29c.73-.12,1.39-.51,1.83-1.1l9.1-12.31c.76-1.04.72-2.44-.09-3.43l-7.21-8.75c-.75-.91-2.02-1.24-3.1-.84l-20.05,7.36c-.96.35-1.64,1.19-1.79,2.21-.16,1,.26,2.01,1.07,2.62l18.16,13.7c.48.38,1.08.56,1.68.56.12,0,.26,0,.4-.02Z"/>
  <path class="cls-2" d="M711.53,572.95c.76-.33,1.32-1,1.54-1.79l6.14-21.82c.31-1.09-.06-2.23-.94-2.94-.87-.69-2.09-.8-3.06-.27l-24.03,13.09c-.92.51-1.48,1.47-1.46,2.51.03,1.05.62,1.99,1.57,2.44l17.88,8.73c.39.19.8.28,1.23.28.38,0,.76-.08,1.13-.24Z"/>
  <path class="cls-2" d="M669.26,578.37c.35.14.72.2,1.09.2s.73-.05,1.07-.2c.69-.29,1.23-.84,1.52-1.54l4.34-10.82c.3-.76.26-1.63-.13-2.35-.38-.73-1.06-1.24-1.87-1.41l-18.95-4.15c-.75-.17-1.56,0-2.2.46-.64.46-1.06,1.16-1.16,1.93l-1.01,8.34c-.15,1.23.54,2.43,1.68,2.91l15.62,6.62Z"/>
  <path class="cls-2" d="M684.5,543.62l-18.37-16.06c-.67-.59-1.6-.8-2.46-.56-.86.22-1.55.87-1.83,1.72l-6.11,18.11c-.26.74-.17,1.58.25,2.26.42.68,1.12,1.12,1.9,1.24l21.29,2.94c.13.03.26.03.37.03.91,0,1.75-.44,2.25-1.22l3.19-4.99c.71-1.12.5-2.59-.49-3.46Z"/>
  <path class="cls-2" d="M694.65,546.34h.12c.87,0,1.69-.42,2.23-1.11l7.1-9.44c.66-.87.74-2.05.21-3.01-.53-.96-1.57-1.52-2.65-1.43l-12.39.98c-.96.07-1.82.65-2.26,1.52-.43.86-.39,1.89.13,2.71l5.29,8.47c.49.79,1.32,1.28,2.24,1.31Z"/>
  <path class="cls-2" d="M633.28,564.27c.48,0,.96-.12,1.39-.37l6.26-3.65c.46-.27.85-.67,1.09-1.15l5.56-11.04c.69-1.38.14-3.04-1.22-3.73l-20.05-10.22c-1.33-.67-2.97-.19-3.7,1.13l-6.17,11.15c-.61,1.09-.41,2.48.52,3.36l14.4,13.76c.53.51,1.22.76,1.92.76Z"/>
  <path class="cls-2" d="M613.3,570.9l2.35,9.62c.18.75.66,1.39,1.33,1.76.43.24.9.36,1.37.36.28,0,.56-.04.82-.13l14.28-4.44c.94-.28,1.65-1.04,1.89-2,.23-.95-.06-1.95-.76-2.63l-7.6-7.43c-.69-.68-1.68-.95-2.62-.71l-9.01,2.24c-1.49.36-2.39,1.87-2.03,3.35Z"/>
  <path class="cls-2" d="M460.57,558.62l-2.89,11.82c-.34,1.39.43,2.8,1.77,3.29l9.38,3.34c.3.12.61.16.93.16s.59-.04.88-.14l8.32-2.74c1.32-.44,2.11-1.77,1.87-3.13l-2.18-12.17c-.28-1.52-1.74-2.51-3.23-2.24-.43.08-.83.25-1.17.5-.18-.05-.38-.09-.58-.1l-10.19-.68c-1.3-.12-2.57.8-2.89,2.1Z"/>
  <path class="cls-2" d="M456.71,602.82l-5.79-7.76c-.47-.63-1.25-.95-2.02-.84-.78.12-1.43.64-1.72,1.37l-2.56,6.75c-.23.62-.16,1.31.18,1.89.34.56.92.93,1.58,1.01l8.34,1.01c.09,0,.17.02.26.02.76,0,1.47-.42,1.86-1.07.43-.76.37-1.68-.13-2.37Z"/>
  <path class="cls-2" d="M729.28,621.42c-.2-.67-.7-1.2-1.35-1.43-.65-.22-1.36-.12-1.93.27l-6.15,4.23c-.73.49-1.07,1.39-.88,2.26.2.87.92,1.52,1.79,1.64l7.74,1.13c.11.02.2.02.31.02.62,0,1.22-.27,1.64-.74.47-.56.63-1.32.43-2.02l-1.6-5.36Z"/>
  <path class="cls-2" d="M816.34,558.57l-7.84-1.74c-.78-.21-1.67.14-2.18.8-.52.68-.58,1.58-.17,2.34l3.74,6.87c.34.64.98,1.05,1.7,1.11.06,0,.12,0,.19,0,.65,0,1.28-.29,1.68-.81l4.1-5.14c.47-.59.6-1.36.34-2.06-.24-.69-.83-1.21-1.57-1.37Z"/>
  <path class="cls-2" d="M567.11,687.63l-6.02-2.06c-.73-.24-1.52-.08-2.1.41-.58.49-.85,1.27-.71,2.01l1.42,7.91c.19,1.02,1.08,1.78,2.11,1.78h.12l4.98-.27c.57-.02,1.11-.28,1.5-.72.39-.41.57-1,.53-1.57l-.37-5.59c-.05-.87-.63-1.62-1.45-1.9Z"/>
  <path class="cls-2" d="M504.42,652.81c-.58-.66-1.44-.95-2.33-.91l-7.41.69c-.88.1-1.67.59-2.12,1.34-.45.76-.52,1.69-.18,2.5l2.2,5.27c.44,1.05,1.46,1.71,2.57,1.71.16,0,.33-.01.49-.04l9.12-1.62c.98-.19,1.81-.9,2.14-1.86.32-.94.11-2.01-.57-2.75l-3.9-4.33Z"/>
  <path class="cls-2" d="M569.41,632.99c.32-.94.11-2.01-.57-2.75l-3.9-4.33c-.59-.66-1.44-.95-2.32-.91l-7.41.69c-.88.1-1.66.59-2.12,1.34-.45.76-.53,1.69-.18,2.5l2.19,5.27c.45,1.05,1.46,1.7,2.57,1.7.16,0,.32,0,.49-.03l9.11-1.63c.99-.19,1.81-.89,2.14-1.85Z"/>
  <path class="cls-2" d="M482.86,607.88c-.66-.51-1.5-.65-2.31-.49l-12.67,2.9c-.9.2-1.63.85-1.97,1.7-.33.85-.22,1.83.3,2.58l8.48,12.3c.53.76,1.39,1.2,2.29,1.2.16,0,.32-.01.49-.03l4.86-.88c1.37-.25,2.35-1.46,2.29-2.86l-.67-14.33c-.04-.82-.44-1.58-1.1-2.09Z"/>
  <path class="cls-2" d="M430.73,607.5c-.29-.85-.97-1.49-1.81-1.74-.87-.27-1.78-.09-2.48.44l-8.41,6.32c-1.08.81-1.42,2.26-.82,3.46l2.21,4.47c.49.97,1.47,1.54,2.49,1.54.32,0,.64-.05.95-.16l8.85-3.21c1.43-.52,2.19-2.09,1.68-3.53l-2.66-7.6Z"/>
  <path class="cls-2" d="M402.48,616.41l-4.93-2.89c-.94-.55-2.11-.51-3.01.12l-7.24,5.07c-.86.6-1.31,1.64-1.16,2.69.15,1.04.88,1.9,1.87,2.23l7.36,2.45c.29.11.58.14.88.14.7,0,1.4-.27,1.93-.78l4.81-4.62c.64-.6.94-1.47.84-2.34-.1-.86-.6-1.63-1.35-2.06Z"/>
  <path class="cls-2" d="M456.22,543.39c-.35-.68-.98-1.2-1.72-1.41-.74-.2-1.54-.1-2.2.3l-7.36,4.46c-.75.45-1.25,1.24-1.33,2.11-.08.89.25,1.75.91,2.34l5.23,4.71c.53.47,1.2.72,1.86.72.54,0,1.08-.16,1.56-.48l5.05-3.43c1.16-.79,1.56-2.31.92-3.56l-2.93-5.75Z"/>
  <path class="cls-2" d="M37.2,435.19c-.38,0-1.36.06-2.28.13-.89.06-1.75.12-2.05.12-2.22,0-4.87-.01-5.68-.14-3.89-.46-6.13-3.32-6.13-7.85,0-.27.03-1.12.07-1.91.03-.65.05-1.26.05-1.43,0-.5-.07-1.85-.12-3.16-.06-1.27-.12-2.48-.12-2.91,0-2.12,0-4.73.13-6.73,0-1.2.05-1.96.09-2.47l.03-.57c0-.56-.1-2.07-.19-3.53-.09-1.42-.18-2.79-.18-3.28,0-.58.07-2.21.13-3.79.06-1.47.12-2.91.12-3.39,0-.69-.06-2.61-.13-4.48-.06-1.81-.12-3.58-.12-4.18,0-3.05.24-8.9.63-11.5-.01-.28.02-.64.06-1.01.02-.32.06-.63.06-.98,0-2.61-1.8-2.56-4.22-2.79-1.07,0-2.14,0-3.33.12-.61,0-1.13.03-1.68.06-.6.04-1.22.07-1.87.07-.6,0-2.19-.11-3.69-.21-1.27-.09-2.47-.17-2.87-.17-3.16,0-3.41,2.25-3.41,4.77,0,1.6.03,3.21.06,4.82.03,1.61.06,3.23.06,4.84,0,.76-.06,2.83-.13,4.84-.06,1.91-.12,3.78-.12,4.44,0,1.11.03,2.25.06,3.38.03,1.15.06,2.3.06,3.42,0,.5-.03,1.84-.06,3.17-.03,1.33-.06,2.64-.06,3.14,0,.63.06,2.43.13,4.18.06,1.68.12,3.32.12,3.86,0,1.03,0,1.92-.13,2.95C.37,418.19,0,423.52,0,424.61,0,426.09.18,432.04.29,435.55c.04,1.5.08,2.56.08,2.67,0,1.56-.06,3.15-.13,4.74-.06,1.57-.12,3.13-.12,4.67,0,.31-.03,1.26-.06,2.19C.03,450.74,0,451.66,0,451.97,0,452.76.29,455.37,4.03,455.37c.57,0,2.18-.06,3.74-.13,1.5-.06,2.95-.12,3.44-.12l3.34.02c4.23.03,10.7.08,12.34-.02l1.2-.02c1.58-.03,3.99-.07,4.65.03h.06c.34,0,1.38.05,2.41.11,1.07.06,2.13.13,2.5.13,1.2,0,1.55-.13,1.87-.29.62-.24,1.54-.85,1.54-2.63,0-.58.07-2.12.13-3.61.06-1.38.11-2.72.11-3.2,0-8.81-.13-10.46-4.15-10.46Z"/>
  <path class="cls-2" d="M89.15,392.87c-6.08-5.71-13.4-5.71-16.52-5.71-3.36,0-9.62,0-15.71,4.9-4.57,3.54-6.6,9.81-6.89,11.29-.49,1.6-1.6,7.38-1.85,9-.49,2.68-.49,5.41-.49,8.05,0,7.82,0,8.64.12,10.47.72,12.25,5.34,18.18,8.03,20.63,4.87,4.62,11.41,5.23,17.16,5.23,16.07,0,20.98-11.78,22.49-18.8.14-.57,1.71-9.42,1.71-16.05,0-10.68-.28-16.01-3.02-22.07-1.04-2.31-2.73-4.64-5.03-6.94ZM77.5,431.56c-.5,3.66-2.76,6.23-5.49,6.23-5.62,0-5.62-8.33-5.62-11.07,0-.38.03-1.51.06-2.63.03-1.1.06-2.21.06-2.57-.12-4.43-.12-6.42.51-9.67,1.07-4.27,3.01-6.59,5.49-6.59,4.51,0,5.51,6.56,5.51,9.09,0,12.95,0,14.31-.51,17.22Z"/>
  <path class="cls-2" d="M143.13,419.86c-.17-.21-.35-.42-.49-.63-1.19-1.55-1.27-1.63-2.08-2.31-.26-.08-1.97-1.08-3.75-2.15-1.55-.91-3.16-1.87-4.03-2.34-1.51-.76-3.61-1.8-4.47-2.96-.73-.72-.9-1.67-.9-2.33,0-2.18,2.47-3.53,4.76-3.53,1.04,0,3.15.68,4.02,1.05.37.16.77.34,1.19.51.85.38,1.73.78,2.49.93.35.11.49.11.71.11,1.28,0,3.04-1.47,3.04-2.3l.12-1.79c0-.37-.06-1.66-.12-2.94-.06-1.31-.13-2.63-.13-3.06,0-1.04,0-2.06.13-2.96.12-.71.24-1.41.24-1.99,0-2.51-2.31-3.31-4.25-3.54-2.53-.21-8.11-.61-10.92-.61-15.1,0-18.08,5.94-20.7,11.19-1.14,2.38-1.65,4.87-1.65,8.06,0,5.89.92,9.75,5.94,14.52,1.16.91,1.51,1.16,5.33,3.62q5.85,3.86,6.5,4.38c1.68,1.32,2.53,2.74,2.53,4.21,0,2.71-2.55,4.27-6.99,4.27-3.11,0-6.44-1.02-7.54-1.57-1.8-.84-1.94-.91-2.74-.91-1.41,0-3.78.56-3.78,4.28,0,.69.03,2.66.06,4.56.03,1.83.06,3.62.06,4.23,0,4.75,0,5.14,3.07,6.31,4.03,1.42,6.11,2.05,13.09,2.05,14.05,0,20.03-5.49,22.57-10.1,2.12-3.77,3.24-8.13,3.24-12.61,0-7.46-2.08-10.81-4.13-13.08-.17-.25-.31-.42-.45-.58Z"/>
  <path class="cls-2" d="M232.83,444.39c-.21-1.01-.43-2.02-.68-3.01-.99-5.22-2-10.5-2.49-15.71-.48-6.08-.61-6.75-1.21-9.95-.27-1.48-.88-4.58-1.56-8-.99-5.05-2.13-10.8-2.42-12.57-.1-.69-.31-2.32-.55-4.14-.36-2.82-.79-6.1-.94-7-.13-1.26-1.49-8.02-1.84-9.47-.81-4.29-1.78-5.09-6.04-5.09-5.53.22-11.15.28-16.74,0-1.37-.12-2.71-.25-4.05-.25-4.57,0-5.66,0-7.64,8.66-.49,2.37-.79,4.8-1.1,7.21-.31,2.47-.63,4.94-1.13,7.38-.27,1.37-.58,2.74-.89,4.08-.4,1.78-.8,3.54-1.08,5.29-.19,1.11-.31,2.18-.43,3.25-.13,1.1-.25,2.19-.44,3.32-.24,1.73-.57,3.51-.9,5.3-.35,1.89-.71,3.79-.96,5.69-.19.94-.51,3.34-.83,5.75-.36,2.63-.72,5.3-.91,6.2-.14.8-.31,1.64-.49,2.46-.14.63-.27,1.25-.38,1.85-.04.36-.51,3.05-1.04,6.18-.7,4.09-1.76,10.25-1.79,10.78,0,.45.28,1.92,1.54,2.31.85.21,1.76.21,2.73.21.65,0,2.44-.03,4.12-.07,1.52-.03,2.96-.06,3.43-.06.52,0,1.89.1,3.2.2,1.19.09,2.33.17,2.75.17,1.62,0,3.3-.45,3.41-3.81l.07-1.01c.32-4.58.63-7.58,1.16-8.42.86-1.37,2.25-1.61,4.88-1.61,6.04,0,7.64.01,8.28.33,1.76.8,2.04,2.56,2.3,5.36.25,1.85.5,3.74.5,5.51s.39,3.66,3.29,3.66c.5,0,1.95-.09,3.35-.19,1.35-.1,2.66-.18,3.09-.18.71,0,2.59.09,4.42.19,1.72.09,3.4.18,4,.18,1.65,0,3.04-2.01,3.04-4.4,0-1.19-.12-2.37-.35-3.56-.24-.96-.46-1.99-.68-3.02ZM203.34,421.08c-3.97,0-4.51-2.72-4.51-5.38,0-1.8.38-3.71.75-5.56.2-1.07.33-2.09.46-3.12.22-1.7.45-3.46.92-5.27.37-1.35.86-3.54,1.1-5,.11-.86.6-3.77,2.27-3.77.66,0,1.97.64,2.27,3.06.13.78.23,1.59.33,2.41.09.69.17,1.4.29,2.14.12,1,.31,1.97.49,2.94.19,1.01.38,2.02.5,3.02.73,4.56.75,9.31.75,9.51,0,5.01-4.24,5.01-5.63,5.01Z"/>
  <path class="cls-2" d="M261.09,442.68c0-1.24.03-2.86.06-4.48.03-1.6.06-3.2.06-4.44v-6.93c0-1.15-.1-4.22-.19-7.19-.09-2.83-.18-5.58-.18-6.55l.02-3.64c.03-4.57.07-11.47-.02-13.27,0-.43.03-1.52.06-2.54.03-.91.06-1.79.06-2.08,0-.82-.03-3.09-.06-5.31-.03-2.14-.06-4.23-.06-4.97,0-3.05.13-5.06.5-7.66v-1.25c-.01-1.9-1.51-2.91-2.92-2.91-.45,0-1.63.03-2.75.07-1.06.03-2.09.06-2.45.06h-6.93c-3.83,0-4.28.52-4.28,5.01,0,.48,0,.6.12,1.91.25,2.38.25,4.02.25,5.02s-.1,3.57-.2,6.08c-.09,2.31-.18,4.53-.18,5.3,0,.7.03,2.55.06,4.36.03,1.75.06,3.45.06,4.05,0,.7-.03,2.63-.06,4.52-.03,1.79-.06,3.54-.06,4.14.12,1.94.37,10.47.37,12.25,0,.7-.03,2.64-.06,4.52-.03,1.8-.06,3.54-.06,4.15,0,1.79.03,3.58.06,5.37.03,1.8.06,3.6.06,5.39,0,.91-.06,3.42-.13,5.84-.06,2.22-.12,4.35-.12,5.05,0,.47.16,2.79,3.29,2.79.36,0,1.39-.06,2.43-.13,1.07-.06,2.14-.12,2.52-.12.52,0,1.97.06,3.37.13,1.28.06,2.52.12,2.94.12,2.4,0,2.88-.06,2.98-.09,1.26-.31,1.79-1.01,1.79-4.31,0-.69-.09-2.5-.19-4.28-.09-1.72-.18-3.4-.18-4.01Z"/>
  <path class="cls-2" d="M318.03,406.54c0-7.96-1.25-10.17-2.54-11.75-2.75-3.2-10.55-6.63-19.55-6.63-4.8,0-12.24,1.31-17.15,2.45-2.6.48-3.84,1.55-3.84,3.31,0,.36.06,1.43.13,2.49.06,1.11.12,2.21.12,2.59s-.03,1.5-.06,2.56c-.03.95-.06,1.85-.06,2.15,0,2.67.99,4.15,2.78,4.15.59,0,.93-.1,4.42-1.43,2.58-1.03,5.02-1.54,7.47-1.54.4,0,1.42.07,2.39.14.84.06,1.65.11,1.94.11,2.74.13,6.74.31,6.74,5.26,0,1.36-1.02,3.28-3.27,3.28-.29,0-1.41-.1-2.66-.21-1.51-.14-3.23-.29-3.78-.29h-.62c-2.2,0-4.27,0-11.03,3.38-2.43,1.27-4.6,3.48-6.6,6.76-1.49,2.73-1.99,6.26-1.99,13.94,0,5.68,1.71,10.2,5.22,13.8,4.84,4.95,9.82,4.95,12.8,4.95,1.78,0,6.5,0,9.38-2.52.46-.45,1.06-1.06,1.77-1.06.62,0,1.16.35,1.45.94.14.2.23.51.3.76.02.03.19.45.2.49.11.22.58.67,1.14.67.49,0,1.83-.09,3.17-.17,1.38-.1,2.77-.19,3.27-.19s1.86.03,3.16.06c1.2.03,2.36.06,2.78.06.76,0,2.54-.26,2.54-2.66,0-.55-.09-2.17-.18-3.79-.1-1.67-.19-3.32-.19-3.89,0-.77.1-2.96.19-5.11.09-2.02.18-4.01.18-4.67,0-.69-.03-2.55-.06-4.37-.03-1.74-.06-3.44-.06-4.05,0-.39.03-1.5.06-2.56.03-.95.06-1.86.06-2.14,0-.56-.06-2.08-.13-3.54-.06-1.41-.12-2.78-.12-3.26,0-.7.06-2.58.13-4.41.06-1.72.12-3.41.12-4.01ZM294.81,441.87c-2.21,0-5.5-1.86-5.5-6.99,0-6.25,3.37-8.47,6.25-8.47,3.63,0,5.26,3.69,5.26,7.36,0,5.15-2.19,8.1-6,8.1Z"/>
  <path class="cls-2" d="M357.87,415.08c0,1.92.04,4.42.06,6.93.03,2.5.06,5.01.06,6.93,0,.37.03,1.41.06,2.45.03,1.07.06,2.13.06,2.51,0,.44-.06,1.73-.13,3.01-.06,1.25-.12,2.5-.12,2.93,0,.32.04,1.08.07,1.8.03.68.06,1.3.06,1.54-.13,1.62-.37,8.44-.37,9.78,0,1.5,1.06,2.42,2.05,2.42.77,0,2.96-.06,5.05-.13,1.92-.06,3.76-.12,4.36-.12,1.27,0,2.53,0,3.79.12.52.12,1.09.12,1.66.12,2.39,0,2.42-2.15,2.42-2.17,0-.25-.07-.98-.13-1.66-.06-.65-.11-1.26-.11-1.44-.12-1.56-.13-3.31-.13-4.95,0-1.19.13-4.43.25-7.62.12-3.09.24-6.13.24-7.23,0-.57-.03-2.16-.06-3.69-.03-1.46-.06-2.88-.06-3.36.12-1.4.37-7.44.37-8.67l.04-.73c.1-1.95.18-3.49.98-4.57.17-.26,1.23-1.69,3.36-1.69,2.81,0,4.33,1.89,4.51,5.59.13,4.24.13,4.85.13,6.85,0,.62-.07,2.4-.13,4.17-.06,1.76-.12,3.51-.12,4.12v4.08c0,.64-.04,2.42-.07,4.16-.03,1.63-.06,3.22-.06,3.76,0,5.51,0,6.36-.25,8.99,0,.43-.03.94-.06,1.46-.04.48-.06.96-.06,1.43,0,.56,0,2.24,1.43,3.01.29.14.64.15,1.61.15.63,0,2.39-.06,4.11-.13,1.65-.06,3.26-.12,3.81-.12s2,.06,3.44.13c1.31.06,2.58.12,3,.12.46,0,1.68,0,1.68-2.17.13-.61.37-3.01.37-3.47,0-.43-.1-1.69-.2-2.91-.09-1.16-.17-2.29-.17-2.66,0-1.39.16-2.75.33-4.08.12-.93.24-1.85.28-2.77v-5.03c0-.3-.06-1.21-.12-2.11-.06-.95-.12-1.91-.12-2.22,0-.69.03-1.38.06-2.08.03-.67.06-1.34.06-2,0-.51-.06-1.82-.13-3.1-.06-1.23-.12-2.42-.12-2.85,0-.58.1-2.19.2-3.75.09-1.44.17-2.83.17-3.3,0-1.27-.73-8.42-1.09-9.83-1.65-7.81-7.29-12.64-14.69-12.64-4.88,0-9.36,2.54-10.54,3.43-1.89,1.25-2.32,1.52-3.33,1.52-1.27,0-2.35-.94-3.31-1.75-1.17-.81-5.39-3.44-10.55-3.44-4.75,0-7.79,2.33-8.15,2.76-.48.39-.77.62-1.02.83-1.84,1.49-2.63-.02-2.89-.6l-.28-.64c-.13-.3-.24-.57-.43-.82-.67-1.04-1.38-1.04-2.21-1.04-.63,0-2.24.13-3.82.25-1.55.12-3.06.24-3.61.24-.96,0-1.91-.03-2.84-.06-.89-.03-1.76-.06-2.6-.06-2.42,0-4.03,0-4.03,4.52,0,.55.03,2.16.06,3.76.03,1.61.06,3.23.06,3.79,0,1.02-.09,3.79-.19,6.53-.09,2.61-.18,5.19-.18,6.1,0,1.97.09,3.97.19,5.97.09,2.02.19,4.04.19,6.04,0,.85-.06,3.1-.13,5.27-.05,1.97-.11,3.86-.11,4.52,0,.75.09,2.82.19,4.85.09,1.96.18,3.89.18,4.56s-.07,2.4-.13,4.1c-.06,1.6-.12,3.16-.12,3.7,0,2.67,1.4,2.67,2.42,2.67.83,0,3.01-.06,5.08-.13,1.94-.06,3.78-.12,4.44-.12.25,0,1.04.03,1.84.06.76.03,1.51.06,1.76.06,1.97,0,3.29-.48,3.29-2.79,0-.52-.13-2.53-.22-2.91-.15-3.26-.15-6-.15-7.37,0-.95.1-3.69.19-6.39.09-2.59.18-5.13.18-5.99s-.13-3.06-.26-5.19c-.12-2-.23-3.92-.23-4.58,0-1.89.25-6.87.5-8.65.43-2.86,2.91-3.91,4.38-3.91,4.76,0,4.76,4.95,4.76,7.61Z"/>
  <path class="cls-2" d="M423.22,451.5c4.87,4.62,11.41,5.23,17.16,5.23,16.06,0,20.99-11.78,22.49-18.8.14-.57,1.71-9.42,1.71-16.05,0-10.68-.28-16.01-3.02-22.07-1.03-2.31-2.72-4.64-5.03-6.94-6.08-5.71-13.4-5.71-16.52-5.71-3.36,0-9.63,0-15.72,4.9-4.56,3.54-6.6,9.81-6.9,11.29-.49,1.6-1.6,7.38-1.85,9-.49,2.68-.49,5.41-.49,8.05,0,7.82,0,8.64.12,10.47.72,12.25,5.34,18.18,8.04,20.63ZM433.83,424.08c.03-1.1.06-2.21.06-2.57-.13-4.43-.12-6.42.51-9.67,1.06-4.27,3.01-6.59,5.48-6.59,4.52,0,5.51,6.56,5.51,9.09,0,12.95,0,14.31-.51,17.22-.51,3.66-2.77,6.23-5.49,6.23-5.63,0-5.63-8.33-5.63-11.07,0-.38.03-1.51.06-2.63Z"/>
  <path class="cls-2" d="M486.33,437.29c-3.11,0-6.44-1.02-7.53-1.57-1.8-.84-1.94-.91-2.74-.91-1.41,0-3.78.56-3.78,4.28,0,.69.03,2.66.06,4.56.03,1.83.06,3.62.06,4.23,0,4.75,0,5.14,3.08,6.31,4.03,1.42,6.11,2.05,13.08,2.05,14.05,0,20.04-5.49,22.57-10.1,2.12-3.77,3.24-8.13,3.24-12.61,0-7.46-2.09-10.81-4.13-13.08-.18-.25-.31-.42-.45-.58-.17-.21-.35-.42-.49-.63-1.2-1.55-1.28-1.63-2.09-2.31-.26-.08-1.97-1.08-3.75-2.15-1.54-.91-3.15-1.87-4.02-2.34-1.52-.76-3.61-1.8-4.48-2.96-.73-.72-.9-1.67-.9-2.33,0-2.18,2.47-3.53,4.76-3.53,1.04,0,3.14.68,4.02,1.05.37.16.77.34,1.18.51.85.38,1.73.78,2.5.93.34.11.49.11.71.11,1.28,0,3.04-1.47,3.04-2.3l.13-1.79c0-.37-.06-1.66-.13-2.94-.06-1.31-.12-2.63-.12-3.06,0-1.04,0-2.06.13-2.96.12-.71.24-1.41.24-1.99,0-2.51-2.31-3.31-4.25-3.54-2.53-.21-8.11-.61-10.92-.61-15.1,0-18.08,5.94-20.7,11.19-1.14,2.38-1.65,4.87-1.65,8.06,0,5.89.91,9.75,5.94,14.52,1.16.91,1.51,1.16,5.33,3.62q5.86,3.86,6.51,4.38c1.67,1.32,2.53,2.74,2.53,4.21,0,2.71-2.55,4.27-6.99,4.27Z"/>
  <path class="cls-2" d="M694.08,447.63c0,.31-.03,1.26-.05,2.19-.03.92-.06,1.83-.06,2.14,0,.79.29,3.41,4.04,3.41.56,0,2.18-.06,3.73-.13,1.5-.06,2.95-.12,3.44-.12l3.34.02c4.23.03,10.69.08,12.34-.02l1.2-.02c1.57-.03,3.98-.07,4.65.03h.05c.34,0,1.38.05,2.41.11,1.07.06,2.13.13,2.49.13,1.2,0,1.54-.13,1.88-.29.62-.24,1.54-.85,1.54-2.63,0-.58.07-2.12.12-3.61.06-1.38.12-2.72.12-3.2,0-8.81-.12-10.46-4.15-10.46-.39,0-1.35.06-2.28.13-.89.06-1.74.12-2.05.12-2.21,0-4.86-.01-5.68-.14-3.89-.46-6.13-3.32-6.13-7.85,0-.27.03-1.12.07-1.91.03-.65.05-1.26.05-1.43,0-.5-.06-1.85-.13-3.16-.06-1.27-.12-2.48-.12-2.91,0-2.12,0-4.73.13-6.73,0-1.2.05-1.96.09-2.47l.03-.57c0-.56-.1-2.07-.19-3.53-.09-1.42-.18-2.79-.18-3.28,0-.58.06-2.21.13-3.79.06-1.47.12-2.91.12-3.39,0-.69-.06-2.61-.13-4.48-.06-1.81-.12-3.57-.12-4.18,0-3.05.24-8.91.63-11.5-.01-.28.02-.64.05-1.01.03-.32.06-.63.06-.98,0-2.58-1.8-2.79-4.16-2.79-1.07-.03-2.17,0-3.38.12-.61,0-1.14.03-1.68.06-.59.04-1.21.07-1.86.07-.6,0-2.2-.11-3.7-.21-1.27-.09-2.47-.17-2.86-.17-3.15,0-3.42,2.25-3.42,4.77,0,1.6.03,3.21.06,4.82.03,1.61.05,3.23.05,4.84,0,.76-.06,2.83-.13,4.84-.05,1.91-.11,3.78-.11,4.44,0,1.11.02,2.25.06,3.38.02,1.15.05,2.3.05,3.42,0,.5-.03,1.84-.05,3.17-.04,1.33-.06,2.64-.06,3.14,0,.63.06,2.43.12,4.18.06,1.68.11,3.32.11,3.86,0,1.03,0,1.92-.13,2.95-.11,1.15-.48,6.48-.48,7.58,0,1.48.18,7.43.29,10.94.04,1.5.09,2.56.09,2.67,0,1.56-.06,3.15-.13,4.74-.06,1.57-.13,3.13-.13,4.67Z"/>
  <path class="cls-2" d="M769.54,413.65c-.28,0-1.41-.1-2.65-.21-1.51-.14-3.24-.29-3.79-.29h-.61c-2.2,0-4.27,0-11.04,3.38-2.44,1.27-4.6,3.48-6.6,6.76-1.49,2.73-1.99,6.26-1.99,13.94,0,5.68,1.72,10.2,5.22,13.8,4.84,4.95,9.82,4.95,12.8,4.95,1.78,0,6.51,0,9.37-2.52,1.1-1.11,2.63-1.34,3.22-.13.15.2.23.51.3.75.02.02.18.45.2.49.11.22.57.67,1.14.67.48,0,1.82-.09,3.16-.17,1.38-.1,2.77-.19,3.28-.19s1.85.03,3.15.06c1.2.03,2.37.06,2.79.06.76,0,2.54-.26,2.54-2.66,0-.55-.09-2.17-.18-3.79-.1-1.67-.19-3.32-.19-3.89,0-.77.1-2.96.2-5.11.09-2.02.17-4.01.17-4.67,0-.69-.03-2.55-.06-4.37-.04-1.74-.06-3.44-.06-4.05,0-.39.03-1.5.06-2.56.03-.95.05-1.86.05-2.14,0-.56-.06-2.08-.13-3.54-.06-1.41-.12-2.78-.12-3.26,0-.7.07-2.58.13-4.41.06-1.72.12-3.41.12-4.01,0-7.96-1.25-10.17-2.54-11.75-2.76-3.2-10.55-6.63-19.55-6.63-4.82,0-12.24,1.31-17.15,2.45-2.6.48-3.84,1.55-3.84,3.31,0,.36.06,1.43.12,2.49.06,1.11.12,2.21.12,2.59s-.03,1.5-.06,2.56c-.03.95-.06,1.85-.06,2.15,0,2.71.96,4.15,2.79,4.15.6,0,.92-.1,4.41-1.43,2.58-1.03,5.03-1.54,7.47-1.54.39,0,1.41.07,2.39.14.84.06,1.66.11,1.95.11,2.72.13,6.74.31,6.74,5.26,0,1.36-1.02,3.28-3.28,3.28ZM766.82,441.87c-2.21,0-5.51-1.86-5.51-6.99,0-6.25,3.37-8.47,6.25-8.47,3.63,0,5.26,3.69,5.26,7.36,0,5.15-2.19,8.1-6,8.1Z"/>
  <path class="cls-2" d="M833.78,387.91c-5.06,0-8.32,2.06-9.71,2.95-.18.1-.44.26-.73.45-1.12.71-1.28.8-1.57.8-.38,0-1.09-.19-1.5-1.42-.1-.23-.16-.49-.23-.76-.08-.31-.14-.56-.27-.74-.41-.65-1.57-.71-2.77-.61-.4.03-.79.06-1.18.06-1.04.12-2.41.25-5.06.25-.15,0-.41-.01-.73-.04-.5-.03-1.2-.08-1.88-.08-1.17-.13-2.24-.13-2.6-.13-.92,0-2.23.16-3.02,1.58-.34.61-.51,2.35-.51,5.18,0,.63.1,2.39.19,4.09.09,1.66.18,3.28.18,3.83,0,.4-.03,1.5-.06,2.57-.03.94-.06,1.84-.06,2.14,0,.51.04,1.81.06,3.05.03,1.19.06,2.34.06,2.76-.12,2.65-.25,5.26-.5,7.99-.13,2.89-.24,5.38-.24,7.97,0,1.15.1,4.32.19,7.39.09,2.92.18,5.76.18,6.73,0,.62-.06,2.31-.12,3.99-.06,1.66-.12,3.32-.12,3.93,0,2.73,1.47,3.69,3.65,3.48.33-.03.67-.07,1-.07.92-.12,2.06-.12,3.21-.12h4.71c.27,0,1.38.07,2.41.14.85.06,1.64.11,1.81.11,1.77,0,2.05-1.98,2.05-3.16,0-.7,0-1.4-.12-2.1-.13-2.32-.26-4.57-.26-6.32,0-1.88.1-3.74.19-5.57.09-1.79.19-3.55.19-5.32,0-.55-.06-2.09-.13-3.61-.06-1.56-.12-3.13-.12-3.69,0-3.04.37-9.8.62-13.31.28-4.9,3.51-5.44,4.88-5.44,4.76,0,4.76,4.27,4.76,5.88v3.22c-.05,1.16-.16,2.28-.25,3.4-.1,1.1-.18,2.22-.25,3.33-.12,1.72-.12,3.55-.12,5.27,0,1.06.1,3.97.19,6.84.1,2.79.18,5.55.18,6.53,0,.89-.16,3.34-.32,5.74-.15,2.27-.3,4.49-.3,5.28,0,.91.86,2.01,1.38,2.53.19.13.72.38,2.27.38.49,0,1.89-.09,3.3-.17,1.44-.1,2.89-.19,3.38-.19.56,0,2.11.11,3.49.21,1.02.08,1.95.15,2.21.15,2.43,0,3.29-1.87,3.29-7.12,0-.45-.07-1.67-.12-2.86-.06-1.14-.12-2.22-.12-2.58,0-.64.06-2.34.13-3.98.05-1.54.11-3.03.11-3.57,0-.57-.03-2.09-.06-3.56-.03-1.41-.06-2.77-.06-3.24,0-.7.06-2.74.13-4.73.06-1.88.12-3.71.12-4.31,0-.57-.03-2.16-.06-3.69-.03-1.46-.06-2.88-.06-3.36s.06-1.69.13-2.88c.05-1.06.11-2.09.11-2.44,0-4.38-.47-9.92-4.12-13.95-1.38-1.52-5.25-5.05-11.42-5.05Z"/>
  <path class="cls-2" d="M908.22,369.48s-.71-.28-1.42-.27c-.65,0-1.28.08-1.82.13-1.69.21-1.86.1-2.5.05-.45-.03-.91-.06-1.36-.06-.66,0-1.32,0-1.97.11-1.06.14-1.96.14-2.98.14-2.49,0-2.78,0-3.31.1-2.35.19-2.82,2.1-2.82,3.68,0,.52.09,1.76.19,3.18l.05.73c.26,2.28.38,6.7.38,8.97,0,.19-.03.8-.06,1.4-.03.57-.06,1.14-.06,1.31,0,.56,0,2.04-1.54,2.04-.8,0-.99-.16-2.02-1.06-1.15-1.05-4.74-2.03-7.39-2.03-5.44,0-12.94,3.95-16.11,11.27-.32.64-2.55,7.39-3.03,12.14-.35,2.71-.49,4.66-.49,6.97,0,3.04.11,12.27.49,15.12.84,6.48,3.9,15.2,8.62,19.04,2.82,2.48,8.58,3.41,9.39,3.41.49,0,2.21-.23,3.6-.41l1.65-.21c2.09-.55,3.73-1.37,4.39-1.92,1.93-1.51,3.29-.84,3.29.86q0,.62.55.89c1.02.51,1.89.26,2.83.1,1.58-.18,2.98-.18,5.36-.18h3.46c1.42.19,2.9.66,3.73.04.05-.04,1.3-.88,1.3-2.95,0-.46,0-.89-.11-1.29-.14-1.4-.27-13.63-.27-14.56,0-1.07.13-4.13.25-7.15.12-2.9.24-5.74.24-6.71,0-.51-.03-1.97-.06-3.38-.03-1.34-.05-2.64-.05-3.05,0-1.45.03-2.86.05-4.26.04-1.36.06-2.69.06-4.03,0-.76-.03-2.87-.06-4.93-.03-1.99-.05-3.93-.05-4.6v-2.84c0-1.23-.04-2.44-.06-3.64-.03-1.21-.06-2.42-.06-3.66,0-1.63,0-3.26.13-5.01.24-2.45.24-2.69.24-3.65v-3.35c.13-1.05.26-2.01.26-2.97,0-1.71-.58-3.22-.89-3.52h0ZM888.58,432.14c-1.24,3.92-4.1,4.04-4.42,4.04-2.63,0-4.49-2.08-5.25-5.85-.27-1.64-.5-6.81-.5-9.06,0-4.04.6-13.43,6.24-13.43,2.41,0,4.47,2.49,5.25,6.33.26,1.19.26,3.67.26,5.48.12,1.05.25,2.32.25,3.59,0,2.84-1.62,8.5-1.82,8.89Z"/>
  <path class="cls-2" d="M955.28,419.86c-.17-.21-.34-.42-.48-.63-1.19-1.55-1.28-1.63-2.09-2.31-.26-.08-1.96-1.07-3.74-2.13-1.56-.93-3.16-1.89-4.04-2.35-1.51-.75-3.6-1.8-4.47-2.96-.74-.72-.91-1.67-.91-2.33,0-2.18,2.48-3.53,4.76-3.53,1.05,0,3.15.68,4.03,1.05.37.16.77.34,1.18.51.85.38,1.73.78,2.49.93.35.11.49.11.71.11,1.28,0,3.04-1.47,3.04-2.3l.13-1.79c0-.37-.06-1.66-.13-2.94-.06-1.31-.12-2.63-.12-3.06,0-1.04,0-2.06.13-2.96.12-.71.24-1.41.24-1.99,0-2.51-2.31-3.31-4.25-3.54-2.53-.21-8.1-.61-10.92-.61-15.1,0-18.07,5.94-20.7,11.19-1.14,2.38-1.65,4.87-1.65,8.06,0,5.89.92,9.75,5.95,14.52,1.15.91,1.5,1.16,5.32,3.62q5.86,3.86,6.5,4.38c1.67,1.31,2.53,2.74,2.53,4.21,0,2.71-2.55,4.27-6.98,4.27-3.11,0-6.45-1.02-7.54-1.57-1.8-.84-1.94-.91-2.73-.91-1.42,0-3.79.56-3.79,4.28,0,.69.03,2.66.06,4.56.03,1.83.06,3.62.06,4.23,0,4.75,0,5.14,3.08,6.31,4.02,1.42,6.1,2.05,13.07,2.05,14.06,0,20.04-5.49,22.57-10.1,2.13-3.78,3.25-8.13,3.25-12.61,0-7.46-2.09-10.8-4.13-13.08-.18-.25-.31-.42-.45-.58Z"/>
  <path class="cls-2" d="M990.58,387.91c-9.43,0-17.64,5.04-21.44,13.15-1.14,2.63-3.14,8.54-3.64,13.12-.12,1.7-.37,13.17-.37,14.02,0,7.4.88,10.12,2.91,14.52,3.49,7.89,7.26,11.23,14.42,12.8,1.58.39,7.29.56,9.37.6,2.65,0,3.25-.31,3.65-.5.34-.17,1.72-.93,1.72-2.53,0-.26-.03-.93-.06-1.56-.03-.57-.05-1.11-.05-1.29,0-6.09,0-6.83.12-9.32.13-1.11.13-1.47.13-2.07,0-1.83-1.64-2.24-1.96-2.31-.55-.14-1.13-.16-1.75-.16-.47-.02-.93-.03-1.41-.08-3-.25-7.51-3.32-7.51-10.7,0-8.59.35-10.26,1.3-12.56.92-1.98,2.62-4.58,6.8-4.58,3.05,0,4.77-.14,4.77-3.16v-2.48c0-.47-.03-1.69-.07-2.82-.02-.96-.05-1.85-.05-2.14,0-.51.07-2,.13-3.43.06-1.31.11-2.58.11-3,0-3.36-1.83-3.53-7.12-3.53Z"/>
  <path class="cls-2" d="M1050.78,406.54c0-7.96-1.26-10.17-2.54-11.75-2.75-3.2-10.54-6.63-19.55-6.63-4.81,0-12.24,1.31-17.15,2.45-2.6.48-3.84,1.55-3.84,3.31,0,.36.06,1.43.12,2.49.06,1.11.12,2.21.12,2.59s-.04,1.5-.07,2.56c-.03.95-.05,1.85-.05,2.15,0,2.71.97,4.15,2.79,4.15.6,0,.93-.1,4.42-1.43,2.57-1.03,5.01-1.54,7.46-1.54.4,0,1.42.07,2.39.14.85.06,1.65.11,1.94.11,2.72.13,6.74.3,6.74,5.26,0,1.36-1.02,3.28-3.27,3.28-.28,0-1.4-.1-2.66-.21-1.51-.14-3.23-.29-3.78-.29h-.62c-2.19,0-4.27,0-11.03,3.38-2.45,1.27-4.61,3.48-6.61,6.76-1.48,2.73-1.98,6.26-1.98,13.94,0,5.68,1.7,10.2,5.21,13.8,4.85,4.95,9.82,4.95,12.8,4.95,1.79,0,6.51,0,9.37-2.52.45-.45,1.06-1.06,1.76-1.06.62,0,1.16.35,1.46.94.14.2.23.51.29.75.02.02.19.45.2.49.12.22.58.67,1.14.67.49,0,1.82-.09,3.16-.17,1.38-.1,2.77-.19,3.27-.19s1.86.03,3.16.06c1.2.03,2.37.06,2.78.06.77,0,2.54-.26,2.54-2.66,0-.55-.09-2.17-.18-3.79-.1-1.67-.19-3.32-.19-3.89,0-.77.1-2.96.19-5.11.09-2.02.18-4.01.18-4.67,0-.69-.03-2.55-.06-4.37-.04-1.74-.06-3.44-.06-4.05,0-.39.03-1.5.06-2.56.03-.95.05-1.86.05-2.14,0-.56-.06-2.08-.13-3.54-.06-1.41-.12-2.78-.12-3.26,0-.7.07-2.58.13-4.41.06-1.72.12-3.41.12-4.01ZM1027.57,441.87c-2.21,0-5.5-1.86-5.5-6.99,0-6.25,3.37-8.47,6.25-8.47,3.63,0,5.25,3.69,5.25,7.36,0,5.15-2.19,8.1-6,8.1Z"/>
  <path class="cls-2" d="M1109.45,415.45c-.12-6.32-.35-7.12-1.86-12.35-1.09-3.81-2.3-8.03-6.64-11.66-2.99-2.42-7.36-3.52-10.13-3.52-1.72,0-5.98.38-8.37,3.97-1.19,1.5-1.37,1.72-1.91,1.72-.39,0-1.29-.21-1.29-2.16,0-.37.04-.66.08-.93.02-.18.05-.36.05-.56,0-.35,0-1.43-2.18-1.43-.28,0-.57.03-.85.06-.34.04-.67.06-1.01.06-1.16.25-2.46.25-3.84.25-.43,0-1.65-.03-2.87-.06-1.2-.02-2.39-.06-2.82-.06-.21,0-.89-.04-1.49-.07-.47-.03-.88-.06-.99-.06-.78,0-1.31.29-2,1.08-.68.88-.79,1.93-.79,4.06,0,.91.04,3.34.07,5.67.03,2.17.06,4.26.06,4.97v4.7c0,.69.06,2.58.13,4.41.05,1.79.12,3.51.12,4.13,0,.69-.1,2.6-.18,4.5-.1,1.87-.19,3.74-.19,4.41,0,1.39.1,5.17.19,8.86.09,3.54.18,7.01.18,8.22,0,1.34-.06,5.02-.13,8.61-.06,3.39-.12,6.71-.12,7.86v3.21c0,2.31,1.98,2.79,3.66,2.79.43,0,1.57-.03,2.71-.06,1.15-.03,2.3-.06,2.73-.06.25,0,3.5,0,6.11.13h1.08c.97,0,2.17,0,2.17-2.42,0-.5-.07-1.89-.13-3.23-.06-1.28-.12-2.53-.12-2.96,0-1.56.78-3.15,2.29-3.15.51,0,1.05.27,1.57.52.19.1.4.2.58.27,2.24,1.18,4.96,1.3,6.02,1.3,8.78,0,15.05-8.18,16.94-13.34.34-.77,2.2-7.25,2.32-7.87.67-2.73.98-5.62.98-9.19,0-.38-.03-2.25-.05-4.32-.03-2.62-.07-5.56-.07-6.32ZM1089.18,433.64c-.17.54-1.63,3.16-4.31,3.16-5.49,0-5.49-8.94-5.49-12.31,0-6.22.46-10.41,1.41-12.8,1.35-3.23,3.66-3.47,4.33-3.47,1.47,0,4.37,1.19,4.89,5.66.12.99.49,5.83.49,9.13,0,1.87-.1,8.18-1.32,10.64Z"/>
  <path class="cls-2" d="M1136.69,369.72c-.87-.5-1.24-.57-3.68-.38-.82.06-1.66.12-1.97.12-.62,0-2.37-.06-4.11-.12-1.73-.06-3.45-.12-4.05-.12-3.39,0-3.66,2.04-3.66,4.52,0,.44.03,1.59.06,2.69.03,1.03.05,2.02.05,2.39,0,2.44,1.17,3.78,3.28,3.78.26,0,.86-.04,1.42-.07.52-.03,1-.05,1.17-.05h9.54c2.94,0,3.53-1.83,3.53-4.77,0-.19-.12-5.31-.12-5.31-.1-1.26-.15-1.86-1.47-2.68Z"/>
  <path class="cls-2" d="M1137.55,410.49v-10.15c0-1.62,0-3.14.13-4.76,0-.45.03-.97.06-1.47.02-.48.06-.96.06-1.43,0-4.15-1.17-4.15-5.03-4.15-2.13,0-10.98.13-12.09.36-2.12.37-2.21,1.4-2.21,5.28,0,.28.06,1.15.12,2.06.06,1.04.13,2.13.13,2.53,0,.56-.06,2.12-.12,3.68-.06,1.53-.13,3.07-.13,3.62,0,.94.06,3.61.13,6.23.06,2.54.12,5.04.12,5.89,0,1.09-.04,4.11-.07,7.06-.03,2.75-.05,5.42-.05,6.31,0,.84.03,3.08.06,5.23.03,1.98.06,3.89.06,4.55,0,.7-.07,2.64-.13,4.54-.06,1.78-.12,3.52-.12,4.12,0,3.74.13,5.39,3.16,5.39.45,0,1.67-.06,2.85-.13,1.14-.06,2.23-.12,2.6-.12.51,0,1.91.03,3.28.06,1.27.03,2.49.06,2.9.06,4.27,0,4.27-.48,4.27-2.79,0-1.09.03-4.11.06-7.05.03-2.75.06-5.42.06-6.32v-7.55c0-.41.04-1.48.06-2.42.03-.76.06-1.44.06-1.66,0-1.21-.13-2.29-.25-3.38-.13-1.14-.13-2.29-.13-3.43,0-.82.03-3.06.06-5.26.03-2.1.05-4.17.05-4.9Z"/>
  <path class="cls-2" d="M1181.07,387.91c-5.06,0-8.32,2.06-9.71,2.95-.18.1-.44.26-.73.45-1.12.71-1.28.8-1.57.8-.39,0-1.09-.19-1.5-1.42-.1-.23-.16-.49-.23-.76-.08-.31-.14-.56-.27-.74-.41-.65-1.58-.71-2.77-.61-.39.03-.78.06-1.18.06-1.04.12-2.42.25-5.07.25-.14,0-.4-.01-.72-.04-.51-.03-1.19-.08-1.88-.08-1.17-.13-2.24-.13-2.6-.13-.92,0-2.23.16-3.02,1.58-.34.61-.51,2.35-.51,5.18,0,.63.1,2.39.19,4.09.09,1.66.18,3.28.18,3.83,0,.4-.03,1.5-.06,2.57-.03.94-.06,1.84-.06,2.14,0,.51.04,1.81.06,3.05.03,1.19.06,2.34.06,2.76-.12,2.65-.25,5.26-.49,7.99-.13,2.89-.25,5.38-.25,7.97,0,1.15.11,4.32.19,7.39.1,2.92.18,5.76.18,6.73,0,.62-.06,2.31-.12,3.99-.06,1.66-.12,3.32-.12,3.93,0,2.73,1.46,3.69,3.65,3.48.33-.03.67-.07,1-.07.92-.12,2.07-.12,3.21-.12h4.71c.27,0,1.37.07,2.4.14.85.06,1.64.11,1.8.11,1.79,0,2.05-1.98,2.05-3.16,0-.7,0-1.4-.12-2.1-.13-2.32-.26-4.57-.26-6.32,0-1.88.1-3.74.19-5.57.09-1.79.18-3.55.18-5.32,0-.55-.06-2.09-.13-3.61-.06-1.56-.12-3.13-.12-3.69,0-3.04.36-9.8.62-13.31.27-4.9,3.51-5.44,4.89-5.44,4.75,0,4.75,4.27,4.75,5.88v3.22c-.05,1.16-.16,2.28-.25,3.4-.09,1.1-.18,2.22-.25,3.33-.12,1.72-.12,3.55-.12,5.27,0,1.06.09,3.97.19,6.84.09,2.79.18,5.55.18,6.53,0,.89-.16,3.34-.32,5.74-.15,2.27-.3,4.49-.3,5.28,0,.91.86,2.01,1.37,2.53.2.13.72.38,2.28.38.49,0,1.89-.09,3.3-.17,1.44-.1,2.89-.19,3.39-.19.56,0,2.1.11,3.47.21,1.04.08,1.96.15,2.22.15,2.42,0,3.29-1.87,3.29-7.12,0-.45-.08-1.67-.13-2.86-.06-1.14-.12-2.22-.12-2.58,0-.64.06-2.34.13-3.98.06-1.54.12-3.03.12-3.57,0-.57-.04-2.09-.06-3.56-.04-1.41-.06-2.77-.06-3.24,0-.7.06-2.74.13-4.73.06-1.88.12-3.71.12-4.31,0-.57-.03-2.16-.06-3.69-.03-1.46-.05-2.88-.05-3.36s.06-1.69.13-2.88c.06-1.06.12-2.09.12-2.44,0-4.38-.47-9.92-4.12-13.95-1.38-1.52-5.25-5.05-11.42-5.05Z"/>
  <path class="cls-2" d="M1253.1,408.52c0-.83-.07-3.1-.13-5.28-.06-2.02-.12-3.96-.12-4.63,0-.57.06-2.11.13-3.6.05-1.38.12-2.72.12-3.2,0-2.93-.07-3.34-4.19-3.41-.54,0-1.14,0-1.66.11-1.34.14-2.85.27-4.99.27-.5,0-2.02-.13-3.53-.25-.8-.03-1.66-.05-2.32-.08l-.84-.04c-.83,0-.92.14-1.06,1.51,0,.9-.53,1.59-1.29,1.59-.51,0-.72-.18-1.88-1.12-2.54-1.98-5.54-2.34-7.66-2.34-12.24,0-16.89,14.14-16.93,14.28-.43,1.13-2.32,8.33-2.32,14.5,0,4.68.24,5.95.95,9.71.91,5.21,1.54,8.24,4.34,11.97,2.25,3.07,3.86,3.88,5.05,4.46,3.65,1.77,6.66,1.77,7.93,1.77,4.46,0,5.58-.46,7.62-1.3.77-.38,1.59-.8,2.53-.8,1.32,0,2.53,1.27,2.53,2.65,0,2.95-3.52,6.25-8.22,6.25-.4,0-1.42-.07-2.39-.14-.85-.06-1.66-.11-1.94-.11l-1.27-.08c-1.32-.07-2.58-.14-3.87-.44-.51-.17-.96-.35-1.43-.53-.69-.27-1.38-.56-2.03-.7-1.3-.35-2.21-.35-2.56-.35-.85,0-2.35.29-2.81,2.24-.11,1-.22,4.04-.22,5.13q0,6.61,1.22,7.37c1.39.81,7.86,2.36,17.03,2.36,12,0,16.87-2.88,19.78-5.38,5.34-4.62,6.41-10.58,6.41-18.71,0-2.59,0-5.3-.13-7.88l-.11-3.76c-.12-3.87-.26-8.22-.26-8.41,0-1.07.12-4.06.26-7.02.12-2.83.24-5.63.24-6.6ZM1234.51,419.41c-.09,2.27-.3,8.23-5.26,8.23-3.85,0-5.01-2.89-5.44-3.97-.55-1.64-.92-5.66-.92-7.23,0-3.05.91-6.89,2.01-8.39,1.23-1.63,2.75-2.44,4.48-2.44,4.05,0,5.13,5.79,5.13,8.85v4.95Z"/>
  <g>
    <path class="cls-1" d="M971.23,546.08c-.34,0-.59.05-1.52.24-1.14.24-1.57.35-2.02.84-.29.33-1.08,1.91-1.18,3.04,0,.49-.04.53-.49.97-.39.4-.44.46-1.71.46-.35,0-1.97-.06-2.36-.06-.2,0-1.23.1-1.48.1s-1.47-.2-1.52-.25c-.34-.2-.78-.83-.78-1.47,0-.35.05-.79.19-1.19.11-.24.2-.49.25-.73.1-.28.1-.64.15-.92.05-.41.1-.71.14-1.04.05-.29.4-1.52.45-1.81.14-.74.14-1.47.25-2.16.09-.48.54-2.51.69-3.04.1-.4.25-.84.34-1.24.15-.73.19-1.48.34-2.16.05-.29.69-3.29.88-3.68.1-.29.3-.58.34-.93.05-.2.05-.44.1-.64.05-.36.64-3.6.79-4.03.05-.2.1-.44.15-.64.04-.3.1-.54.19-.83.1-.4.29-.79.39-1.19.15-.39.2-.79.25-1.22.55-3.74,1.34-5.36,4.09-5.36.19,0,.68,0,1.22.05,1.32.1,2.99,0,5-.1,1.28-.2,2.7.14,3.64.84.83.63,1.13,1.17,1.47,2.54.2.65.34,1.33.54,2.03.14.53.39,1.08.53,1.61l.4,1.86c.05.3.05.6.15.89.05.25.15.49.25.73.1.35.49,1.61.69,2.65.14.94.14,1.04.34,1.72.19.59.59,2.16.63,2.46.05.49.05.98.16,1.43.09.29.25.59.34.88.04.29.39,1.53.43,1.81.09.5.09,1.04.19,1.54.1.33.25.62.35.97.15.55.49,1.87.54,2.36.05.54.05.64.19.98.25.64.58,1.97.75,2.76.09.39.14.73.24,1.07.1.36.29.64.34.94.05.2.15,1.32.15,1.43,0,.93-1.18.93-2.11.93-.4,0-2.26.15-2.7.15-2.99,0-3.38-.3-4.02-2.07-.15-.44-.19-.88-.4-1.28-.1-.2-.19-.38-.29-.58-.28-.69-.49-.99-1.38-1.38-.48-.2-2.45-.3-2.99-.3h-1.57ZM969.66,533.61c-.05.33-.15.68-.25,1.01-.15.56-.29,1.09-.29,1.68,0,1.67,1.23,2.35,3.1,2.35.48,0,1.52-.1,2.25-.23.49-.11,1.03-.25,1.03-1.24,0-.2,0-.39-.05-.59-.14-1.41-.19-1.86-.58-3.09-.15-.49-.35-.98-.44-1.52-.15-.49-.2-1.08-.29-1.57-.1-.36-.25-.64-.34-.99-.15-.38-.39-1.37-.49-1.77-.29-1.07-.93-1.07-1.13-1.07-.34,0-.64.23-.83.54-.4.53-1.03,2.98-1.07,3.13-.05.4-.1.79-.15,1.19-.11.38-.2.73-.25,1.13-.1.35-.15.68-.2,1.04Z"/>
    <path class="cls-1" d="M997.01,520.49c0-.19-.15-1.21-.15-1.47,0-.38,0-.84.1-1.12.1-.35.44-.78.98-.78.14,0,.84.14,1.04.14h.29c.15-.05.29-.05.45-.05h.73l.1.05h.29s.29,0,.54-.05h.63c.3,0,1.29.05,1.58.14.15.05.24.1.39.14.3.1.64,0,.94.1.29.1.84.58.88.64.44.5,2.7,4.12,2.95,4.52.14.14.29.34.39.49.2.3.34.59.55.84.98,1.57,1.08,1.72,1.37,2.36.29.63.89,1.46,1.37,2.1.93,1.37,1.77,2.86,2.51,4.33.1.24.77,1.42.93,1.72.25.39.63,1.03.78,1.03.49,0,.44-1.18.44-2.11,0-.2.05-1.13.05-1.33,0-.35-.05-.65-.05-.93,0-.25.1-1.28.1-1.52s-.14-1.52-.14-1.83c0-.29.14-1.72.14-2.05,0-.35-.14-2.08-.14-2.41-.06-.55,0-2.99,0-3.59,0-.15-.1-1.08-.1-1.32,0-.73.54-1.09.78-1.18.16-.04.34-.04,1.32-.04h1.28c.15,0,.49,0,.89.04.34,0,.73.05.88.05.34,0,.64-.05.98-.05.1,0,.75-.1.88-.1.5,0,1.28.5,1.28,1.82,0,.34-.15,1.86-.15,2.25,0,.29.05,1.97.05,2.31,0,.44-.05,2.65-.05,3.13v1.62c0,.5,0,.99-.05,1.49,0,.38-.14,2.35-.14,2.78,0,.35.1,2.12.1,2.52.04,1.02,0,2.69,0,3.77,0,1.23.04,3.24.04,4.52,0,.25-.04.49-.04.69-.05.35-.1.65-.1.93,0,.2.05,1.15.05,1.32,0,.5.29,3.01.29,3.55,0,.48,0,1.68-1.81,1.68-.25,0-.54,0-.79-.06-.14,0-.79.06-.93.06-.24,0-1.47-.11-1.72-.11-.19,0-.98.11-1.18.11-1.13,0-1.72-1.03-2.26-2.11-.43-.89-.49-.89-1.08-1.77-.59-.79-1.13-1.68-1.57-2.51-.93-1.72-1.72-2.94-1.77-3.05-.18-.35-.44-.64-.68-.93-.19-.35-.39-.68-.64-1.04-.29-.44-.64-.93-.99-1.37-.18-.34-.39-.69-.58-1.04-.34-.54-.73-1.12-1.03-1.67-.39-.64-.69-1.34-1.03-1.97-.15-.24-.29-.48-.49-.68-.19-.15-.58-.45-.83-.45-.05,0-.54,0-.64.93-.05.35-.15,2.17-.15,2.56,0,.2.05,1.13.05,1.37,0,.15-.05,1.04-.05,1.23v1.12c0,.16-.04.99-.04,1.19,0,.1,0,.43.04.78.05.34.05,1.58.05,2.06,0,.2.1,1.37.1,1.62.05.25,0,1.43,0,1.72,0,.15,0,.35.05.48,0,.25.19,1.39.19,1.63,0,.78-1.03,1.52-1.28,1.57-.15.05-.78,0-.93,0-.19,0-1.23.2-1.47.2-.1.05-.93.05-1.08.05-.25,0-1.48.1-1.72.1-.78,0-1.18-.25-1.33-.35-.63-.43-.58-.83-.58-1.21.05-.4,0-2.16,0-2.62,0-.37.09-2.34.09-2.78,0-.2-.04-1.19-.04-1.43v-1.23c0-.3.1-1.95.1-2.3,0-.15-.1-1.19-.1-1.37-.05-.46-.05-.89-.05-1.28,0-1.27.05-2.59.09-3.83.11-1.03.11-1.08.11-1.37,0-.94-.15-1.87-.2-2.76,0-.44.05-2.6.05-3.09,0-.44-.1-2.5-.1-2.99,0-.15.05-.93.05-1.08,0-.15-.05-.69-.05-.83v-.65Z"/>
    <path class="cls-1" d="M1040.3,532.18c0-.25.04-1.49.04-1.76,0-.64-.04-3.93-.04-4.72,0-.29.04-1.81.04-2.21,0-.44-.15-2.86-.15-3.4,0-.88.2-2.3,1.08-2.65.25-.1,3.93-.19,4.52-.19.19,0,.73.06,1.33.06.54.04,1.08.09,1.27.09,1,0,1.97-.19,2.96-.19.14,0,.88.05,1.02.05.1,0,.64-.05.78-.05.1,0,.73.1.88.1h.64c.78,0,1.96.29,2.16.38.2.06.4.15.59.2.39.11.79.16,1.18.28.25.16.49.36.73.46.26.1.5.1.74.2.2.09.45.24.64.33.25.15.54.2.78.31.4.19,4.52,2.64,6.43,7.01.1.2,1.13,2.65,1.23,2.94.19.69.55,3.15.55,3.73,0,.2-.05,1.1-.05,1.29,0,.29.1,1.52.1,1.81,0,.84-.04,1.03-.44,2.86-.29,1.61-.34,1.81-.59,2.31-.1.28-.25.53-.4.82-.14.34-.24.74-.39,1.08-.19.35-.43.64-.69.99-.24.4-.45.78-.68,1.19-.25.33-2.22,2.5-2.41,2.7-.69.64-2.01,1.42-2.5,1.66-.49.2-.98.35-1.47.48-.34.16-.69.31-1.04.46-.54.2-1.17.29-1.76.44-1.82.44-2.85.44-7.91.44h-.15c-.64,0-3.73-.15-4.47-.15h-1.47c-.84,0-3.14,0-3.14-1.72,0-.25.1-1.37.1-1.61,0-.88-.15-4.87-.15-5.4,0-.16.05-1.43.05-2.47.05-1.17.1-2.5.1-3.73,0-.34-.15-1.92-.15-2.3,0-.2.11-1.19.11-1.42v-.69ZM1050.65,525.6c-.54.1-.58.14-.93.44-.6.55-1.04.88-1.17,2.65-.05.29,0,1.82,0,2.16,0,.55-.16,3.09-.16,3.69,0,1.81,0,4.96.2,6.67.1,1.37.25,2.75,5.26,2.75.39,0,.78,0,1.17-.04.89-.15,2.7-.79,3.4-1.19,2.75-1.67,3.38-6.58,3.38-7.36,0-.3-.06-1.67-.15-2.17-.09-.48-.24-.94-.34-1.43-.05-.29-.1-.64-.19-.93-.2-.39-.49-.74-.74-1.12-.15-.2-.25-.4-.34-.6-.49-.83-.79-1.03-1.62-1.57-.25-.19-1.44-1.12-1.72-1.28-1.23-.64-3.73-.79-4.42-.79-.34,0-.98.05-1.62.1Z"/>
    <path class="cls-1" d="M1103.29,530.95c0-.25.05-2.01.05-2.25,0-.2-.05-1.08-.05-1.32,0-.15.05-.89.05-1.04,0-.2-.05-1.04-.1-1.21v-1.63c-.05-.73-.25-4.42-.25-4.66,0-.74.19-1.04.98-1.52.29-.2.49-.25.79-.25h.34l.05.06h.25c.28,0,2.16-.06,2.35-.06.04-.04.98-.09.98-.09,1.18,0,1.47.09,3.14,2.89.44.69,1.23,1.76,1.67,2.51.19.3.34.64.54.98.19.34.49.64.75.99.19.24.98,1.37,1.17,1.61.59.83,1.57,2.12,2.21,2.95.54.73,1.28,1.72,1.86,1.72.69,0,1.23-.93,1.57-1.52.25-.35,1.47-2.12,1.72-2.5.2-.34.39-.64.58-.98.3-.48.73-.94,1.04-1.48.14-.29.29-.59.44-.83.29-.64.69-1.24.98-1.82.4-.79.69-1.58,1.13-2.31.2-.25.35-.48.49-.79.16-.24.25-.48.4-.68.1-.1.68-.64,1.42-.64.39,0,2.1.11,2.5.11.44,0,.89-.11,1.29-.11.18,0,.92.11,1.07.11.89,0,1.62.88,1.62,1.52,0,.09-.1,1.27-.1,1.52-.05.88-.05,1.82-.05,2.69v3.29c0,.3-.2,1.87-.2,2.21,0,.66.2,3.7.2,4.43,0,.24-.05,1.57-.05,1.86,0,.66.15,3.88.15,4.63,0,.49-.05,2.94-.05,3.49v.64c-.05.34-.29,2.17-.29,2.56,0,.34.24,2.1.24,2.5,0,.15-.05.88-.05,1.07v.5c0,1.12-.88,1.67-2.36,1.67-.34,0-1.92-.05-2.26-.05h-1.37c-.16,0-.93.05-1.13.05-.4,0-1.13-.29-1.13-1.42,0-.2-.1-1.14-.1-1.34,0-.29.1-1.85.1-2.21,0-.29-.05-1.52-.05-1.77,0-.28.1-1.67.1-1.96,0-.45-.04-.94-.04-1.37,0-.25.1-1.44.1-1.72v-1.67c0-.16-.1-.74-.1-.89,0-.3-.45-.84-.85-.84-.92,0-1.76,1.08-2.1,1.52-.44.53-.84,1.08-1.33,1.57-.73.69-.83.79-1.28,1.43-.98,1.41-1.27,1.67-2.21,1.67-.19,0-.34-.05-.58-.19-.6-.3-.64-.35-1.13-1.08-.49-.79-1.81-2.41-2.5-3.15-.2-.2-.39-.34-.54-.54-.19-.19-.34-.43-.53-.68-1.03-1.52-1.53-2.01-2.06-2.01-.29,0-.84.15-1.04.34,0,.05-.48.6-.48,2.01v2.61c0,.29.05,1.76.05,2.06,0,.34-.25,1.92-.25,2.31,0,.64.1,3.83.1,4.56,0,.2.05,1.23.05,1.42,0,1.04-.94,1.44-1.57,1.44-.15,0-.69-.06-1.23-.1-.54,0-1.13-.05-1.32-.05-.14,0-.58.05-1.02.05-.4.05-.84.1-1.04.1-1.19,0-1.32-.31-1.63-.84-.24-.55-.3-.66-.3-1.04,0-.4.06-2.41.06-2.84,0-.25-.06-1.39-.06-1.63,0-1.09.16-2.12.16-3.14,0-.45-.05-2.51-.05-3.01v-1.91c0-.24-.05-1.52-.05-1.81,0-.69.1-1.32.1-2.01,0-.15-.05-.84-.05-1.04s.1-1.32.1-1.63Z"/>
    <path class="cls-1" d="M1147.98,531.78c.1-.69.73-3.29.93-3.72.09-.25.83-1.97.93-2.12.14-.29.4-.58.59-.88.14-.25.93-1.72,1.13-2.01.24-.34.63-.64.88-.99.29-.33.54-.73.88-1.06.3-.31.64-.54.99-.79.34-.25.58-.54.93-.79.39-.34,1.52-.93,2.17-1.18.34-.14.69-.19,1.03-.34.44-.14.88-.4,1.32-.54.69-.19,3.98-.59,4.23-.59.4,0,2.31.35,2.75.4.84.09,1.67.19,2.46.49.19.11,3.29,1.52,3.49,1.67.6.29,1.96,1.62,2.56,2.21.29.29.58.68.88,1.04.19.25.44.49.69.68.43.54.73.88,1.03,1.68.19.38.34.78.49,1.17.29.64.63,1.23.93,1.87.25.58.39,1.17.48,1.82.15.79.5,5.56.5,6.13,0,.64-.35,2.65-.5,3.2-.18.68-.78,2.84-1.02,3.44-.31.78-.7,1.76-2.02,3.53-.44.64-2.41,2.69-3.09,3.09-.44.31-.99.44-1.48.68-.3.2-.54.4-.88.54-.15.1-2.51,1.04-2.7,1.08-.45.1-.93.16-1.43.25-.29.05-.59.16-.84.19-.58.09-1.08.14-1.57.14-.53,0-2.31-.05-2.75-.1-.34-.04-.73-.13-1.07-.23-.44-.05-.89-.09-1.34-.25-.29-.04-.62-.15-.92-.3-.64-.28-.68-.33-1.38-.53-.44-.15-.83-.31-1.22-.53-.44-.31-.83-.64-1.28-.99-2.01-1.43-2.26-1.57-3.73-3.58-.83-1.03-.88-1.19-1.47-2.31-.2-.44-.49-.84-.69-1.24-.39-.93-.73-2.74-.84-3.4-.1-1.06-.29-4.06-.29-5.05,0-.58.09-1.18.25-1.77ZM1155.89,535.91c.04.59.29,1.18.44,1.77.44,1.62.48,1.82.98,2.64.83,1.48,2.65,2.86,2.89,2.95.25.1.6.1.9.2.19.05.34.15.53.2.15.05.29.1.49.15.64.14.69.14,1.37.14.1,0,.74.06.89.06.04,0,1.17,0,1.43-.06.78-.14,2.5-1.23,2.94-1.57,1.03-.78,2.17-2.5,2.31-2.7.1-.2.2-.64.78-2.79.2-.94.26-1.44.26-1.87,0-.53-.05-1.04-.05-1.57v-.64c0-.29,0-.55-.05-.83-.04-.2-.78-2.36-1.17-2.94-.29-.51-.74-.83-1.08-1.28-.35-.39-.64-.89-1.04-1.18-.39-.34-2.46-1.23-2.65-1.29-.44-.13-2.26-.17-2.56-.17-.43,0-.88,0-1.22.09-1.28.29-1.33.34-2.07.83-1.42.88-1.57.98-2.16,1.72-.49.54-1.31,1.92-1.52,2.35-.29.58-.29,1.34-.44,2.02-.09.53-.25,1.02-.29,1.57v.28c0,.2.1,1.88.1,1.92Z"/>
    <path class="cls-1" d="M1191.74,530.8c0-1.63.19-3.19.25-4.82,0-.58-.05-3.38-.05-4.01,0-.29-.1-1.67-.1-1.97,0-1.37,0-3.15,2.02-3.15.19,0,1.08.1,1.26.1.2,0,1.14-.05,1.34-.05.28,0,1.76.05,2.1.05h1.62c.25,0,1.48-.05,1.77-.05.54,0,1.37-.06,1.92-.06.34,0,2.7.1,3.04.2.4.06,2.02.49,2.51.64.34.2,2.21,1.04,2.31,1.08.78.44,1.77,1.28,2.06,1.58.1.13,1.42,1.96,1.52,2.1.16.2,1.14,2.31,1.18,3.79,0,.14-.04.93-.04,1.08,0,.29.1,1.67.1,1.96,0,1.08-.6,3.78-1.23,5.06-.44.79-1.62,2.21-2.16,2.79-1.71,1.82-1.91,2.01-1.91,2.65,0,.69.45,1.04.89,1.36,1.02.79,2.35,1.43,2.7,1.53.28.1.54.15.83.25.74.43.74,1.12.74,1.47s-.05.74-.05,1.09c0,.19.1,1.07.1,1.27,0,.3-.15,1.83-.15,2.16,0,.16.05.88.05,1.04,0,1.52-1.82,1.72-2.05,1.72-2.12,0-4.09-1.57-4.43-1.87-.73-.59-2.21-1.91-3.14-3-.15-.2-.34-.43-.54-.58-.29-.24-.59-.45-.93-.64-.15-.15-.93-.79-1.08-.88-1.27-.84-1.72-.88-2.45-.88-.25,0-.64.2-.75.24-.44.29-.54.54-.73.98-.29.64-.35.79-.35,2.16,0,.35,0,.45.16,1.49.05.19.24,1.32.24,1.57,0,.92-.68,1.38-1.32,1.38-.34,0-.69-.11-1.03-.16-.3-.04-.64-.1-.99-.1-.04,0-.93.06-1.03.06-.34.04-.63.04-1.14.04-.24,0-1.52.05-1.76.05-1.22,0-1.48-1.21-1.48-1.72,0-.39.11-.79.16-1.17.04-.35.04-.68.04-.99s-.04-1.66-.04-2.01c0-.64.04-1.32.1-2.01.04-.83.1-1.42.1-1.67,0-.73-.1-1.52-.1-2.26,0-.54-.05-2.56-.05-3.1,0-.25.05-1.41.05-1.72,0-.28-.1-1.77-.1-2.1,0-.59,0-1.33.04-1.97ZM1201.02,524.72c-.54.25-.59.34-.84.88-.34.84-.4.98-.4,1.57,0,.35.1,2.01.1,2.41,0,.34-.1,1.96-.1,2.31,0,.38.16,2.3.16,2.74.05.45.1,1.19.88,1.44.25.09,1.37.13,1.43.13q.19,0,.93-.09c.44-.09.53-.15,1.13-.4.25-.09.44-.19.69-.29.2-.15.39-.39.64-.54.19-.25.43-.38.63-.58.45-.35.55-.48,1.33-1.87.34-.64.98-1.81.98-3.63,0-.93-.54-3.14-2.7-3.83-1.03-.3-1.17-.35-1.91-.35-.1,0-2.02-.2-2.06-.2-.19,0-.55.15-.89.3Z"/>
    <path class="cls-1" d="M1241.71,517.05c.2,0,1.37-.09,1.62-.09s1.48-.05,1.77-.05c.44,0,2.6.14,3.09.14.29,0,1.67-.09,1.96-.09,1.17,0,1.67.64,1.67,1.62,0,.2-.04,1.27-.04,1.52,0,.36.14,1.96.14,2.32,0,.58-.04.64-.54,1.27q-.25.36-.64.5c-.4.15-.64.24-1.18.24-.24,0-1.22-.04-1.47-.04-.29,0-1.81.09-2.21.09-.15,0-.34,0-.54-.05-.44,0-.83-.09-1.28-.13-.43-.06-.83-.06-1.27-.06-2.75,0-3.54.39-3.54,2.42,0,2.3,0,3.13,1.62,3.37,1.08.15,1.18.15,1.82.15.39,0,2.2-.15,2.65-.15.29,0,1.91.2,2.26.2.64,0,1.33-.1,1.96-.1.4,0,1.14,0,1.38.1.15.1.89.59.89,1.47,0,0-.04,1.13-.1,1.37-.05.79-.05.93-.05,1.97,0,.39-.05.49-.1.99-.1.64-.25,1.72-2.16,1.76h-2.51c-.19,0-1.08-.03-1.28-.03-.14,0-.88.03-1.03.03-.19,0-1.33-.14-1.57-.14-.49,0-.98.11-1.47.11h-.39c-.3,0-.84.14-1.04.24-.88.4-.88,1.62-.88,2.06,0,3.15,0,4.23,3.93,4.23.29,0,1.71-.06,2.01-.06.25,0,1.37.06,1.67.06.34,0,2.26-.06,2.61-.11.34-.05.69-.05,1.02-.05.25,0,1.58.05,2.02.94.34.69.34,1.63.34,2.08v.33c.05.45.2.94.25,1.38v1.29c0,.58-.04,1.61-1.67,1.61-.1,0-.45-.05-.79-.05-.34-.05-.73-.05-.88-.05s-.64.05-1.13.05c-.49.05-.99.1-1.17.1-.15,0-.64-.05-1.13-.05-.49-.05-.99-.05-1.18-.05-.05,0-1.08.05-2.11.05-1.08.05-2.2.1-2.46.1-.29,0-1.17-.06-2.11-.1-.89,0-1.82-.05-2.17-.05h-1.57c-.63.05-1.33.05-1.58.05s-.92,0-1.42-.45c-.39-.34-.79-1.17-.79-1.86,0-.2.06-1.13.06-1.33,0-.59-.1-1.12-.1-1.71v-.88c0-.35-.1-1.87-.1-2.22,0-.83.04-2.12.04-2.95,0-.2.05-1.06.05-1.26,0-.31-.05-1.72-.05-2.07,0-.24-.04-1.52-.04-1.8v-3.4c0-.29,0-.53.04-.83,0-.2.1-1.12.1-1.32,0-.29-.14-1.77-.14-2.06,0-.79.1-1.52.1-2.27,0-.28.1-2.25.1-2.49,0-.4-.16-2.12-.16-2.51,0-1.47.16-1.87.25-2.06.15-.28.64-1.22,1.72-1.22.3,0,1.58.04,1.87.04.4,0,2.36-.09,2.8-.09.34,0,2.06.09,2.4.09h1.82Z"/>
  </g>
  <path class="cls-1" d="M734.33,89.98c-6.48,3.09-18.94,9.38-23.49,11.61l4.61,10.62c2.57-4.26,6.26-9.15,7.91-10.31,2.2-1.54,4.03-.9.68,2.99-2.33,2.71-4.31,5.96-5.68,9.38l12.55-2.26c-.31-3.43.31-8.29,1.21-14.56.28-1.81,2.02-5.84,2.22-7.47Z"/>
  <path class="cls-1" d="M423.24,257.66c-3.22-.6-3.99-4.8.6-3.7,3.71.89,15.71,4.5,23.28,8.9-5.24-7.02-11.58-14.75-15.66-17.48-4.56.55-10.45.94-16.15,1.31-5.35.35-16.59.81-16.59.81,4.32,6.78,11.33,16.92,13.35,20.52,6.33.2,23.39.62,34.57.89-3.71-1.92-14.44-9.61-23.41-11.24Z"/>
  <path class="cls-1" d="M527.44,306.73c1.72,4.74,3.87,11.92,3.76,14.9-.13,3.71-2.56,5.94-3.26.34-.6-4.7-4.5-9.68-6.37-15.17-3.08,6.59-6.88,14-10.16,18.1,5.62,4.29,13.05,14.42,17.07,20.18,4.93-4.59,13.8-15.64,18.49-21.77-2.9-4.12-11.83-10.88-19.53-16.58Z"/>
  <path class="cls-1" d="M458.31,278.04c-.81,5.43-4.07,15.51-7.01,20.69-1.31,2.32-4.31,2.39-2.46-1.33,1.77-3.64,3.7-10.89,4.43-17.49-6.23,5.73-14.36,12.83-20.71,16.24,7.11,6.62,9.43,15.41,9.43,15.41,4.86-1.38,16.03-8.1,23.67-12.46-2.39-5.6-5.73-14.26-7.34-21.05Z"/>
  <path class="cls-1" d="M603.75,140.09c-1.4,3.41-3.96,7.85-6.66,11.85,5.4-1.53,12.58-2.87,17.15-2.91,2.68-.01,4.24,2.54.1,2.81-4.08.29-11.42,2.3-17.52,5.02,6.53,2.36,14.97,6.76,19.13,9.63,2.09-1.51,4.84-4.28,7.33-5.95,1.91-1.28,3.71-2.49,5.02-3.42.36-2.04,2.05-7.43,2.94-11.37-7.04-1.12-21.09-3.47-27.49-5.66Z"/>
  <path class="cls-1" d="M571.47,223.94c-6.77,2.03-20,10.06-24.83,12.64,1.12,3.28,1.85,7.67,2.56,11.95.2,1.25.4,2.45.6,3.56,2.12-5.05,6.99-12.99,10.81-17.18,1.79-1.98,5.01-2.18,2.4,1.06-2.6,3.23-6.18,10.13-8.31,16.54,0,0-.09.08-.24.22l13.13-1.12c1.32-5.67,4.64-21.46,3.87-27.66Z"/>
  <path class="cls-1" d="M713.36,175.04c-.09-.05-.18-.09-.27-.13,1.48,4.63,2.73,10.03,3.05,13.88.22,2.67-1.79,5.15-2.41,1.05-.52-3.65-2.67-9.87-5.41-15.37l-8.15,13.76c3.85,4.39,15.12,14.65,20.62,17.62,2.28-6.7,3.08-20.53,3.79-25.95-3.33-.98-7.33-2.96-11.2-4.85Z"/>
  <path class="cls-1" d="M516.11,293.18c-2.11-4.85-3.78-10.96-9.11-16.8-2.85-3.12.12-5.65,2.72-2.17,2.19,2.92,9.1,12.14,12.14,18.1l2.62-16.55c-3.72-1.73-22.52-15.63-24.61-16.89-2,4.74-4.02,17.97-4.67,23.1,2.08,1.05,4.64,2.22,7.41,3.5,4.23,1.93,9.25,5.03,13.54,7.8l-.04-.08Z"/>
  <path class="cls-1" d="M683.24,298.76c-5.61-.91-11.39-1.36-15.88-1.65,2.74,3.12,6.35,7.27,7.54,8.82,2.01,2.6-.18,4.63-1.76,1.63-1.25-2.39-7.2-6.02-11.47-8.33l-.24,17.11c10.06.42,19.27,3.49,23.73,4.29-.32-6.1-2.09-16.72-1.91-21.86Z"/>
  <path class="cls-1" d="M707.23,267.97c-1.94.1-6.07.87-10.54,1.85,5.48,1.75,12.48,4.63,15.99,7.62,4.74,4.03,3.44,4.74-1.53,2.01-5.57-3.05-10.89-3.96-18.95-5.5,4.85,4.09,10.1,9.98,15.28,16.11.35.43.69.82.97,1.16,6.26-.95,20.08.25,28.61.44-7.22-6.98-22.79-19.99-29.83-23.68Z"/>
  <path class="cls-1" d="M735.4,214.93c-3.63,3.37-8.69,9.41-12.52,13.22-5.39,5.36-8.98,8.92-11.17,10.67.01.81.06,1.73.09,2.74.11,2.63.23,5.74.08,8.81,3.51-1.11,9-4.61,10.74-10.57,1.94-6.7,3.58-1.98,3.1.8-.69,4.09-6.04,9.64-11.08,13.93l17.21-2.84c.16-1.12.36-2.43.59-3.88,1.27-8.32,4.33-24.57,2.96-32.88Z"/>
  <path class="cls-1" d="M444.59,203.28c.43.94,8.82,11.93,10.14,19.63.02.12.04.23.06.35,2.62-9.5,4.85-18.92,4.85-21.71-1.98-1.34-8.91-4.34-13.61-6.37-4.12-1.77-9.07-5.36-11.9-6.77-1.84,5.97-2.79,18.23-3.72,23.12l-.2,1.01c8.74,5.51,15.93,9.57,20.77,12.31-.08-3.58-5.01-15.63-8.35-20.68-1.92-2.89,1.52-1.83,1.96-.88Z"/>
  <path class="cls-1" d="M670.25,15.73c-2.67-2.24.94-2.2,1.6-1.42.49.57,6.4,4.94,10.97,9.95-.08-2.12-.16-4.44-.23-6.92-.06-2.28-.12-4.39-.2-6.05-3.82-.6-13.08-3.91-25.27-6.45,2.64,6.18,5.25,13.32,5.68,17.91l.4,1.39c4.6,1.52,13.37,3.63,19.1,5.67-2.92-4.48-8.5-11.11-12.05-14.08Z"/>
  <path class="cls-1" d="M526.67,247.19c-3.27-1.17.1-2.38,1.02-1.88.73.4,9.59,2.87,15.91,6.68l-4-10.39-30.12-13.07,9.37,27.04,21.29-1.23c-4.3-2.82-9.94-5.88-13.48-7.15Z"/>
  <path class="cls-1" d="M663.72,166.92c-8-.76-19.96-1.96-30.37-4.49,4.52,3.22,13.67,7.23,14.48,7.62,1.04.5,1.62,2.46-.48,2.08-4.86-.85-12.6-4.05-17.25-6.79,2.96,5.32,6.24,11.29,8.18,15.04,3.13-.05,7.61-.46,12.3-.91,6.21-.57,14.53.29,18.87.45-.28-.95-4.81-11.33-5.73-12.99Z"/>
  <path class="cls-1" d="M648.74,261.57c-.68-3.81,1.07-3.46,2.24-.28,1.11,2.94,3.72,13.91,3.81,21.7,2.54-9.09,4.78-17.4,5.45-20.45-3.04-3.33-9.01-12.06-12.17-15.65-4.31,4.55-12.05,13.13-16.45,16.71,5.61,3.91,13.25,11.08,19.18,18.7-.09-6.84-1.38-16.77-2.07-20.73Z"/>
  <path class="cls-1" d="M538.99,217.49c1-4.49,1.76-2.82,2.06.08.21,2.2.64,8.51,1.34,13.57l11.25-12.52c-2.22-3.19-8.41-11.95-10.55-14.92-3.74.7-16.27,10.08-20.16,13.77,1.33,2.63,8.24,9.04,15.46,14.84-.31-4.78-.2-11.25.59-14.82Z"/>
  <path class="cls-1" d="M545.54,129.44l-19.49,17.52c3.05,4.2,6.98,9.51,9.6,12.76.96-5.02,4.18-13.01,5.36-16.17,1.38-3.66,3.47-4.38,2.46.1-.83,3.78-3.04,12.52-2.3,17.42l13.99-1.77,3.94-7.75c-4.8-5.35-10.77-14.63-13.56-22.1Z"/>
  <path class="cls-1" d="M683.19,83.09c-4.57-2.81-2.45-3.71,1.69-1.81,3.1,1.42,10.45,4.61,15.6,7.55l-6.11-12.11c-3.63-.88-14.27-3.71-22.41-5.94.12,6.5-4.1,22.71-4.1,22.71,4.13.77,11.24.42,16.89.64h.02c4.91.19,9.66.11,13.93-.22-4.14-4.09-12-8.66-15.52-10.81Z"/>
  <path class="cls-1" d="M484.76,120.02c-1.9-3.72-1.07-5.21,3.47.01,3.97,4.55,12.72,9.51,16.91,15.67,1.04-6.52,1.37-15.27,1.26-21.37-6.62-2.15-24.95-10.63-34.82-17.08.12,1.94.66,8.29.74,10.56.27,8.1,1.25,17.05,3.42,21.91,1.13.29,2.6.62,4.27,1.02,5.9,1.42,13.79,3.3,20.11,5.19-5.4-6.79-13.77-12.81-15.36-15.91Z"/>
  <path class="cls-1" d="M671.39,44.4c-4.2.48-3.35-2.17.56-2.24,2.15-.02,6,.22,10.29.86l-20.27-8.99c.33,5.71,1.77,17.15,1.69,22.42,7.26-.31,16.13-1.07,18.95-1.32,1.29-1.12,4.19-3.66,6.93-6.08-5.92-2.15-15.12-5.01-18.15-4.66Z"/>
  <path class="cls-1" d="M717.79,119.12c-4.68,3.79-8.88,6.56-12,8.58,4.03-.81,8.78-1.21,10.73-1.13,3.09.13,3.27,1.79.41,1.91-2.25.11-6.46,1.6-11.9,3.59,5.16,2.48,10.69,4.91,13.61,7.11,3.22-3.4,11.97-10.7,16.94-14.8,0,0-13.58-2.65-17.79-5.25Z"/>
  <path class="cls-1" d="M653.23,67.14c-2.07-.91-1.04-1.76.63-1.62,1.19.11,6.16,2.04,9.44,3.61l-4.56-7.62c-3.18-1.51-27.49-12.16-27.49-12.16,1.06,2.09,5.02,6.16,6.23,8.58,3.43,6.92,7.63,16.71,9.49,19.03.21.27,8.97-.04,15.97-2.86-3.65-3.91-7.74-6.1-9.7-6.95Z"/>
  <path class="cls-1" d="M761.44,248.52c-2.53,1.75-9.16,5.55-14.69,7.26,3.3.92,6.91,1.97,10.38,3.03,5.23-2.03,12.5-5.21,15.8-7.27.63-2.34,1.49-4.92,2.39-7.63,1.3-3.9,4.41-9.73,5.2-13.42-10.28,3.13-29.15,9.29-34.14,10.55l-4.72,11.55c7.07-2.45,13.86-3.45,17.34-6.27,3.48-2.82,5.92-.19,2.45,2.21Z"/>
  <path class="cls-1" d="M775.51,277.97c-2.55-3.37-9.24-8.9-11.04-10.96-4.99-1.72-12.12-3.88-18.33-5.62,6.94,4.17,15.75,11.01,18.7,14.32,4.05,4.56,2.85,5.37-1.44,1.91-9.7-7.82-17.87-11.57-23.48-14.58-.47,3.34-1.1,7.48-1.8,11.04,14.39,5.71,29.16,13.32,36.59,17.96.94-3.62.82-11.35.8-14.06Z"/>
  <path class="cls-1" d="M691.38,237.28c-2.28-2.43-4.75-6.21-7.28-8.83-3.05,6.17-7.62,16.92-9.66,21.12,6,4.42,10.77,9.15,15.72,14.11,1.23-3.5.22-11.4-.64-15.01-.88-3.7.95-4.79,2.25-1.2,1.13,3.11,2.64,13.24,2.75,17.11,3.63-3.41,8.56-10.07,10.15-14.01-2.8-2.26-6.99-6.65-13.27-13.3Z"/>
  <path class="cls-1" d="M753.24,34.11c-6.22,2.02-17.14,4.62-23.4,5.64-.13.21-.28.42-.47.6-.74.69-1.45,1.34-2.15,1.98l-.12,11.72c3.2-1.98,10.66-5.38,12.92-7.19,2.33-1.85,3.7-.89,1.44,1.43-1.63,1.7-6.97,5.85-10.36,8.07,4.22.72,9.35,1.71,12.46,2.53l7.67-5.75c-.12-2.99,1.63-11.72,2.01-19.02Z"/>
  <path class="cls-1" d="M704.67,30.55c1.38-3.65,3.45-4.39,2.46.09-.9,4.04-1.96,16.38-.46,21.57,1.98-1.22,6.61-4.64,17.03-14.2-3.28-4.23-10.66-15.88-14.93-23.51-2.97,3.25-7.64,8.8-12.99,13.14-1.5,1.2-2.87,2.31-3.97,3.26,1.77,4.41,4.92,13.78,5.7,18.37,1.08.6,2.23,1.2,3.32,1.73.45-5.33,2.57-17.09,3.84-20.45Z"/>
  <path class="cls-1" d="M656.48,119.58l-6.32-15.1c-4.79-1.72-17.32-6.32-22.71-9.03-.67.69-1.38,1.64-2.1,2.74l-.67,3.59c2.15.5,6.47,2.04,12.05,4.6,2.12.97,3.19,3.69-1.04,2.1-3.85-1.46-8.71-2.75-11.7-3.03l-.58,3.12c-.2,1.07-1,1.92-2.06,2.18l-5.26,1.33c-.74.95-1.42,1.86-1.94,2.68,11.05.58,25.11,1.5,42.7,6.23l-.37-1.42Z"/>
  <path class="cls-1" d="M607.15,62.08c-.96,1.63-13.38,24.59-18.94,29.8,1.73,5.53,4.17,12.62,5.61,15.49,4.43.42,9.04.54,12.23.57.6-6.18.26-15.26-.52-18.92-.8-3.82.86-3.76,1.94-.63.99,2.91,2.79,11.59,2.96,19.48l7.84-2.04,3.32-17.83c-2.67-5.75-8.8-19.77-14.44-25.91Z"/>
  <path class="cls-1" d="M542.59,89.5c1.63-1.4,3.26-2.82,4.81-4.24-4.32-3.43-10.62-13.13-17.08-15.05-4.54-1.35-2.45-3.52.9-2.39,3.06,1.03,11.34,5.34,21.34,16.06,1.63.91,4.17,2.4,6.82,4.19l2.77-5.98-14.36-18.85c-5.28-.48-20.81-4.54-30.25-7.73,2.46,8.86,4.94,20.38,4.74,25.62l20.31,8.38Z"/>
  <path class="cls-1" d="M552.59,101.52c-2.48-3.41.24-3.99,2.21-.61,1.63,2.8,4.6,9.25,6.49,15.87,1.98-7.12,4.5-16.56,4.61-17.06-.58-1.43-8.68-8.73-14.6-12.21-6.07,5.5-13.41,13.19-17.08,16.11,4.28,3.77,13.84,10.96,20,15.59,1.27.95,2.46,1.85,3.57,2.68-.84-5.87-3.17-17.59-5.2-20.38Z"/>
  <path class="cls-1" d="M461.27,220.68c-.64,2.36-1.37,4.98-2.21,7.9.2.57.41,1.14.62,1.65,4.18-2.56,14.47-4.58,16.35-6.51,2.17-2.23,3,.35,1.79,1.68-1.08,1.21-12.12,5.31-14.49,8l.44.09c4.14.82,10.92,2.16,19.57,4.3,1.85-3.22,5.38-16.95,5.87-28.91-7.09,3.39-19.96,8.84-27.93,11.8Z"/>
  <path class="cls-1" d="M464.45,198.5c.56.81,1.68,2.44-1.58,15.93,4.05-1.34,8.26-2.79,12.12-4.21-3.22-7.59-7.86-20.2-9.95-26.93-4.23,3.04-7.72,6.38-10.54,9.51,6.6,2.94,8.99,4.3,9.96,5.69Z"/>
  <path class="cls-1" d="M425.63,216.21c-.97-.61-1.46-1.77-1.23-2.91l.54-2.82c.09-.48.19-1,.29-1.53-3.86-1.22-9.64-1.7-10.5-1.72-1.15-.05-2.49-1.72-.39-2.09,1.71-.31,7.73-.31,11.5.64.37-1.91.78-3.96,1.23-6.04-2.38-.93-5.38-1.91-8.41-2.72-2.43.39-22.85.55-22.85.55.86,1.65,3.88,5.12,5.04,7.57,2.22,4.66,4.71,9.91,7.49,14.26,4.99-.08,11.65-1.37,17.83-2.85-.18-.12-.36-.23-.54-.34Z"/>
  <path class="cls-1" d="M434.01,176.41c.71.86,3.34,6.62,6.46,10.24,2.36,1.08,5.14,2.29,7.74,3.42.58.25,1.12.48,1.65.71,1.58-1.58,3.38-3.26,5.42-4.98l.53-.63c-4.54-3.83-15.29-14.1-24.59-21.8-2.56,2.7-7.96,9.49-10.94,14.09,1.49,5.6,3.76,11.78,5.35,15.81.9.3,1.8.61,2.69.95.89-3.68,1.84-7,2.77-9.09.32-.75.98-1.31,1.78-1.53.79-.23,1.63-.09,2.33.36.12.07.24.16.38.24-1.51-2.06-3.18-4.93-3.46-6.69-.18-1.17.13-3.24,1.9-1.09Z"/>
  <path class="cls-1" d="M485.06,297.64c.58-.95,1.62-1.43,2.78-1.27.31.04.66.1,1.04.17l.82-9.94c-4.25,2.18-8.1,5.54-10.95,9.27-3.11,4.11-4.11,2.45-3.07-.01,1.27-2.96,10.76-13.06,13.77-13.85l-22.66,3.44.03.47c1.48,4.83,3.25,9.73,4.9,13.1.64,1.31.16,2.88-1.09,3.61-.55.32-1.43.83-2.53,1.46l.27,3.83,11.62-1.25c1.54-2.96,3.22-6.04,5.09-9.04Z"/>
  <path class="cls-1" d="M624.37,166.5c-2.56,1.73-5.1,3.46-6.75,4.75-.53.4-1.16.6-1.8.58-.09-.01-.18-.01-.28-.04-.74-.1-1.4-.49-1.84-1.09-.62-.72-2.7-1.9-5.41-3.21.16,6.8.2,14.74.35,18.9,5.78.04,11.21-1.01,14.95-.88,4.03.18,7.05.41,9.4.79.02-1.14.04-2.49.06-3.93-2.12-4.06-5.66-10.47-8.67-15.87Z"/>
  <path class="cls-1" d="M740.08,157.98c-2.2,1.98-7.1,6.19-9.42,9.74,2.41.81,5.31,1.77,7.9,2.62,3.03-1,5.93-2.23,8.46-3.42,3.56-7.75,8.49-20.92,8.49-20.92-2.84-1.45-15.55,3.19-25.48,2.91l-2.96,16.12c3.17-2.97,9.05-6.77,11.34-8.32,2.75-1.84,4.54-1.35,1.66,1.27Z"/>
  <path class="cls-1" d="M756.27,168.45c-.62.37-1.25.75-1.89,1.12-1.67,1.01-6.66,2.69-10,4.12,4.74,3.7,12.75,12.27,14.98,13.56,2.69,1.57.39,2.99-1.2,2.15-1.44-.76-12.84-10.58-16.86-11.93l.03.54c.22,4.22,6.12,10.87,6.17,19.76,3.56,1.02,17.74,1.1,29.48-1.34-6.06-7.31-17.1-22.05-20.7-27.97Z"/>
  <path class="cls-1" d="M778.44,118.11c-.56-1.06-1.69-2.42-3.26-3.89-.28-.07-.55-.19-.8-.36l-11.92-7.88c-.63-.27-1.26-.54-1.9-.78,1.06,5.32,7.64,17.89,9.03,19.83,1.58,2.2.8,4.08-1.7,1.13-5.96-7.03-9.04-13.08-11.25-20.07l-3.71,4.36c-.02,2.78-.66,10.88,1.52,17.83,0,0,14.16,9.08,29.71,11.38-1.69-5.82-6.41-16.98-5.74-21.56Z"/>
  <path class="cls-1" d="M771.98,84.13l-7.72,13.82c3.95-1.21,10.23-2.67,12.47-3.78,2.66-1.32,3.8-.09,1.13,1.71-1.98,1.33-8.18,4.31-11.95,5.75l10.45,7.12c8.72-8.49,17.94-19.99,21.21-25.09-7.62-.06-21.1.55-25.58.46Z"/>
  <path class="cls-1" d="M491.75,102.94c-.24-2.24-.5-4.01-.69-5.61-.24-2.12,1.53-3.5,2.42-.4.6,2.09,2.11,5.76,3.03,7.95,1.02.4,2.03.79,3.01,1.16,1.97-5.15,4.63-11.78,5.3-15.19-3.66-1.68-10.37-6.17-16.1-10.29-3.16,4.35-6.6,11.81-8.67,16.87,3.51,1.89,7.61,3.78,11.71,5.51Z"/>
  <path class="cls-1" d="M464.23,117.56c-4.55-4.04-5.66-4.97-7.19-5.7-1.64-.78-1.1-2.42,1.24-1.38,1.86.83,6.56,2.83,9.44,4.25-.16-2.9-.27-5.85-.36-8.69-.03-.77-.05-1.54-.08-2.29l-7.46-2.17c-6.34-.36-21.85-2.48-21.85-2.48,3.65,5.86,8.57,14.41,11.88,20.99,4.89-.97,9.91-1.84,14.38-2.52Z"/>
  <path class="cls-1" d="M473.15,134.8c-.1-.02-.19-.06-.28-.1-7.26-.83-15.18-.5-18.25-.62-2.12-.09-3.5-1.79-.73-2.5,3.57-.93,12.01-.75,16.37-.6-.87-2.35-1.46-5.26-1.87-8.48-10.39,1.27-26.21,3.78-34.71,6.28,8.44,7.48,20.36,15.67,26.33,18.58,3.59-1.39,10.96-6.77,17.18-11.57-1.71-.41-3.11-.75-4.05-1Z"/>
  <path class="cls-1" d="M661.17,222.23c-1.25-3.07-.06-4.22,1.87-.79,1.64,2.93,9.29,12.57,11.45,15.27.47-.98.96-1.96,1.43-2.94-2.37-5.25-8.29-16-20.31-25.76-.47,1.65-.49,4.9-.87,6.31-1.74,6.35-4.32,10.88-7.19,14.9,0,0,8.65,2.16,12.58,3.34,3.4,1.02,6.33,1.91,8.84,2.72-3.81-5.24-6.86-10.75-7.8-13.05Z"/>
  <path class="cls-1" d="M767.93,79.95c.49-.9,1.53-1.32,2.48-1.42,0,0,2.72.06,6.58.14-2.43-6.19-5.09-13.08-7.18-16.61-5.05,5.97-13.44,14.89-18.66,19.48,1.97,5.93,3.76,13.69,3.98,16.1.31.36.81.81,1.34.84h.25c.25-.08.64-.24,1.17-.49l10.05-18.03Z"/>
  <path class="cls-1" d="M796.43,93.89c-2.4,2.95-5.19,6.03-7.94,8.96,4.81-.4,11.78-.6,15.7.45,2.37.33,2.06,2.23-.08,2.13-4.84-.39-15.19.01-21.15,3.12-.99.99-1.93,1.92-2.8,2.77,1.37,1.45,2.45,2.86,3.15,4.18,3.84.69,8.47,1.35,12.84,1.52,2.37.09,4.46.02,6.25-.19,2.82-5.23,13.51-10.24,18.99-13.27-6.84-2.41-17.7-6.24-24.95-9.67Z"/>
  <path class="cls-1" d="M732.55,21.69c.12-1.73,2.57-2.74,2.38-.27-.53,4.75-1.94,9.21-3.41,12.62,2.4-.3,4.91-.65,7.33-1.05,1.73-7.08,3.04-18.94,2.6-24.9-5.52,3.68-15.76,9.4-23.14,13.07,3.22,4.76,6.76,9.49,9.03,12.43,1.82-3.15,4.17-7.24,5.22-11.89Z"/>
  <path class="cls-1" d="M668.32,127.31c-1.63-.58-1.91-3.23.41-2.34,5.79,2.4,10.69,6.12,13.56,8.91-.29-3.76-.76-8.63-.96-11.51-5.61-1.62-16.34-4.76-21.99-7.79l2.5,7.6c.31.95.09,1.97-.57,2.72-.56.64-1.38.96-2.2.93l1.08,7.66,18.64,2.71c-2.57-2.69-6.02-6.42-10.48-8.88Z"/>
  <path class="cls-1" d="M634.61,79.9c-1.88.81-5.07,2.64-8.51,4.61.53,1.1.85,1.82.92,1.97.23.53.31,1.1.2,1.66l-.22,1.2c.08,0,.16-.01.24-.01.56.01,1.08.17,1.54.5.96.68,3.79,1.93,7.37,3.38-.26-4.79-.61-10.09-1.53-13.31Z"/>
  <path class="cls-1" d="M584.77,99.33s0-.01,0-.02c-.08-.23-.16-.45-.23-.67,0-.02-.01-.04-.02-.06-.07-.21-.13-.42-.21-.62-.01-.03-.02-.07-.03-.1-.06-.19-.12-.38-.19-.57-.02-.05-.03-.09-.04-.14-.06-.18-.12-.35-.17-.52-.02-.05-.03-.11-.05-.16-.05-.17-.11-.34-.17-.51-.01-.04-.02-.08-.03-.12-.06-.16-.11-.33-.16-.49-.01-.05-.03-.1-.05-.15-.05-.15-.09-.29-.14-.44-.02-.06-.04-.12-.05-.17-.04-.13-.08-.26-.12-.38-.02-.06-.03-.11-.05-.16-.04-.13-.08-.25-.12-.37-.01-.04-.02-.08-.04-.12-.04-.12-.07-.24-.11-.35-.01-.05-.03-.09-.04-.14-.03-.1-.06-.2-.09-.29-.02-.08-.04-.14-.06-.22-.01-.05-.03-.1-.05-.16-.07-.24-.13-.45-.19-.62-.33-1.1.05-2.29.95-2.99.31-.24.63-.52.95-.81.12-.11.24-.23.36-.35.19-.19.39-.37.58-.58.16-.17.32-.35.48-.52.16-.17.31-.34.47-.52.19-.22.38-.44.57-.67.13-.15.25-.3.38-.45.22-.27.43-.54.65-.82.1-.13.19-.25.29-.37.24-.32.49-.65.73-.98.06-.09.13-.18.19-.27.27-.37.54-.76.81-1.15.03-.04.06-.09.09-.14.3-.43.59-.87.89-1.31l-22.61,2.25-3.58,9.87c1.73,1.48,3.22,3.02,4.19,4.53,2.95-1.24,5.05-2.29,6.92-3.14,1.93-.88,3.79.38,1.1,2.17-1.96,1.32-5.36,4.2-7.06,5.67-.13.69-.31,1.65-.51,2.81-.16.88-.31,1.74-.46,2.58l12.47,6.59c.78-2.83,2.24-7.32,4.06-12.39-.17-.49-.34-.98-.5-1.46Z"/>
  <path class="cls-1" d="M504.22,325.1c0-.11.03-.22.05-.33-2.21-.38-5.18-.76-8.7-1.07,1.38,6.94,2.35,15.73,2.89,22.16,3.5-2.12,8.15-5.89,11.42-7.95,1.63-1.04,3.14-1.99,4.54-2.87-3.23-3.25-6.46-6.05-8.75-7.3-.96-.52-1.52-1.55-1.45-2.63Z"/>
  <path class="cls-1" d="M411.74,273.56c-3.5,1.25-7.5,2.6-9.43,2.95-3.82.7-3.69-2.68-1.57-2.6,1.93.08,2.09.42,6.81-2.61-.72-1.29-2.26-4.02-4.13-7.27-9.5,3.2-21.03,6.82-24.98,8.31,0,0,21.63,12.64,25.37,14.73,2.08-.8,7.02-5.27,14.7-13.31-2.79-.07-5.14-.14-6.75-.2Z"/>
  <path class="cls-1" d="M513.6,310.38c.42-1.1.78-2.22,1.06-3.34-5.68,1.6-16.6,4.63-18.82,4.89-3.03.34-2.71-1.73-.37-2.34,4.26-1.1,9.81-2.81,13.69-4.25-6.11-.36-12.86-1.64-17.68-2.62-.99-.2-1.87-.38-2.67-.54-2.26,3.79-10.16,14.84-10.81,16.06,2.36-.02,7.51-.68,10.03-.59,0,0,13.61.58,20.23,2.29,1.48-2.26,3.37-5.68,5.34-9.56Z"/>
  <path class="cls-1" d="M599.25,136.1c-2.51-2.62-5.08-5.2-7.19-6.92-1.62,4.67-4.16,12.36-7.93,18.27l1.93,5.01,4.67-1.09c3.97-5.43,7.9-12.47,8.52-15.26Z"/>
  <path class="cls-1" d="M513.75,166.5c-4.61-.65-4.54-2.51.09-2.32,4.56.17,13.24-1.75,16.62-2.57l-4.1-2.21c-13.63-.71-25.64-2.13-33.22-4.01-1.18,1.98-2.1,3.74-2.93,5.29-1.39,2.61-7.92,7.8-7.92,7.8,17.86,2.38,32.32,4.44,40.28,8.5,1.78-2.62,4.86-7.07,8.01-11.35-5.95,1.42-13.23,1.36-16.83.87Z"/>
</svg>