<?xml version="1.0" encoding="UTF-8"?>
<svg id="Layer_1" data-name="Layer 1" xmlns="http://www.w3.org/2000/svg" viewBox="0 0 397.15 397.15">
  <defs>
    <style>
      .cls-1 {
        fill: none;
      }

      .cls-2 {
        fill: #d82d1f;
      }

      .cls-3 {
        fill: #423937;
      }
    </style>
  </defs>
  <g>
    <path class="cls-3" d="M338.73,322.37c-.34-3.97-1.76-7.85-4.22-11.19,0,0-45.52-61.8-45.52-61.8h3.42c4.15,0,8.13-1.17,11.53-3.26,3.4-2.09,6.23-5.1,8.1-8.79,1.88-3.71,2.63-7.79,2.29-11.78-.34-3.97-1.75-7.85-4.22-11.19.01.02-31.36-42.59-31.36-42.59,2.06-.55,4.02-1.4,5.81-2.5,3.4-2.09,6.23-5.1,8.1-8.79,1.88-3.71,2.63-7.79,2.29-11.78-.34-3.97-1.75-7.85-4.22-11.19.01.02-74.44-101.03-74.44-101.03-2.04-2.8-4.71-5.04-7.74-6.58-3.05-1.55-6.46-2.39-9.98-2.39s-6.9.83-9.94,2.38c-3.03,1.54-5.7,3.79-7.76,6.62.02-.03-74.43,101.02-74.43,101.02-2.45,3.31-3.87,7.18-4.21,11.14-.35,3.99.39,8.08,2.25,11.79,1.89,3.72,4.72,6.74,8.11,8.82,1.8,1.11,3.77,1.96,5.84,2.51l-31.37,42.56c-2.45,3.31-3.87,7.19-4.21,11.14-.35,3.99.39,8.08,2.25,11.79,1.89,3.72,4.72,6.74,8.11,8.82,3.4,2.09,7.38,3.26,11.53,3.26h3.42l-45.53,61.83c-2.45,3.31-3.87,7.18-4.21,11.14-.35,3.99.39,8.08,2.25,11.79,1.89,3.72,4.72,6.74,8.12,8.82,3.4,2.09,7.38,3.26,11.53,3.26h63.62v1.47c0,6.06,2.45,11.56,6.42,15.54,2.02,2.02,4.43,3.66,7.12,4.78,2.6,1.08,5.45,1.67,8.41,1.67h65.36c2.97,0,5.81-.59,8.41-1.67,2.69-1.12,5.11-2.75,7.12-4.78,3.96-3.98,6.42-9.48,6.42-15.54v-1.47h63.62c4.15,0,8.13-1.17,11.53-3.26,3.4-2.09,6.23-5.1,8.1-8.79,1.86-3.72,2.61-7.79,2.27-11.77Z"/>
    <path class="cls-2" d="M301.66,324.23H95.49c-6.28,0-9.89-7.15-6.18-12.2l62.35-84.64h-31.74c-6.28,0-9.89-7.12-6.18-12.16l47.62-64.66h-22.09c-6.28,0-9.89-7.15-6.18-12.2l59.35-80.5c3.04-4.18,9.26-4.18,12.3,0l59.35,80.5c3.71,5.05.1,12.2-6.15,12.2h-22.09l47.62,64.62c3.71,5.05.1,12.16-6.15,12.16h-31.78l62.32,84.67c3.71,5.05.13,12.2-6.18,12.2Z"/>
    <path class="cls-3" d="M227.43,207.8l-21.88,19.08-2.88-42.16c-.27-3.88-5.96-3.88-6.23,0l-6.26,91.46-27.01-25.71c-2.58-2.46-6.6.64-4.89,3.76l29.69,54.11-1.39,20.38h25.93l-5.53-80.88,25.05-35.91c2.11-3.02-1.84-6.56-4.61-4.14Z"/>
  </g>
  <rect class="cls-1" width="397.15" height="397.15"/>
</svg>