<?xml version="1.0" encoding="UTF-8"?>
<svg id="Layer_1" data-name="Layer 1" xmlns="http://www.w3.org/2000/svg" viewBox="0 0 397.15 397.15">
  <defs>
    <style>
      .cls-1 {
        fill: none;
      }

      .cls-2 {
        fill: #d82d1f;
      }

      .cls-3 {
        fill: #423937;
      }
    </style>
  </defs>
  <g>
    <rect class="cls-3" x="49.69" y="49.69" width="297.78" height="297.78" rx="8.16" ry="8.16"/>
    <g>
      <path class="cls-2" d="M249.26,152.71c-2.59-5.74-7.36-10.34-13.35-12.46-6.6-2.47-12.49-1.74-18.18,1.27l-117.04,59.71c-5.77,2.92-9.99,8.16-11.72,14.46-1.65,6.42-.59,13.05,2.98,18.47l33.52,51.32c2.89,4.45,7.04,7.63,11.84,9.25,3.62,1.24,7.63,1.47,11.61.77l121.87-22.92c6.89-1.41,12.73-5.72,16.03-11.9,3.24-6.1,3.51-13.43.77-19.91l-38.33-88.05Z"/>
      <path class="cls-2" d="M95.28,180.3c22.58,0,77.82-31.74,100.47-45.42,4.67-2.79,7.83-7.49,8.74-12.79.97-5.4-.44-10.81-3.89-15.09l-28.74-35.29h-100.16v97.37c5.38,4.52,9.89,7.78,13.05,9.14,2.32.99,7.96,2.09,10.52,2.09Z"/>
      <path class="cls-2" d="M261.15,120.89c-5.56,5.38-7.13,13.86-3.68,20.75l52.99,110.42c.84,1.7,1.88,3.21,3.08,4.52,3.08,3.29,7.31,5.35,11.9,5.69v-122.22l-43.46-22.29c-6.89-3.58-15.3-2.24-20.83,3.13Z"/>
      <path class="cls-2" d="M120.29,317.5c.78-3.05.23-6.29-1.57-8.88l-47.01-68.42v85.23h40.93l1.98-.99c2.82-1.36,4.88-3.92,5.66-6.94Z"/>
      <path class="cls-2" d="M308.89,280.78c-51.32,13.03-138.38,34.01-153.28,35.08-6,.57-11.17,4.28-13.86,9.55h183.69v-39.78c-4.15-4.33-10.39-6.4-16.55-4.86Z"/>
      <path class="cls-2" d="M223.56,113.79c1.85,1.28,4.07,1.96,6.34,1.96,1.54,0,3.08-.34,4.52-.94l91.02-42.05v-1.04h-103.03l-3.34,32.11c-.39,3.89,1.33,7.67,4.49,9.97Z"/>
      <path class="cls-2" d="M305.73,105.28c.05,4.02,2.3,7.7,5.87,9.55l13.84,7.13v-33.88l-14.04,7.57c-3.55,1.91-5.74,5.61-5.66,9.63Z"/>
      <path class="cls-2" d="M188.84,71.71l7.83,9.66c3.29,4.07,9.87,2.27,10.65-2.9l1.02-6.76h-19.5Z"/>
      <path class="cls-2" d="M71.71,182.7l8.46,12.5c1.44,2.11,1.8,4.8.97,7.23l-9.42,27.93v-47.67Z"/>
    </g>
  </g>
  <rect class="cls-1" width="397.15" height="397.15"/>
</svg>