<?xml version="1.0" encoding="UTF-8"?>
<svg id="Layer_1" data-name="Layer 1" xmlns="http://www.w3.org/2000/svg" viewBox="0 0 397.15 397.15">
  <defs>
    <style>
      .cls-1 {
        fill: none;
      }

      .cls-2 {
        fill: #d82d1f;
      }

      .cls-3 {
        fill: #423937;
      }
    </style>
  </defs>
  <g>
    <path class="cls-3" d="M67.65,339.79c5.78,5.64,13.72,9.14,22.45,9.14l216.94.02c8.74,0,16.68-3.51,22.45-9.14,5.92-5.78,9.56-13.79,9.76-22.5,1.03-43.06,10.42-84.79,28.32-125.43,1.94-4.47,2.53-9.37,1.69-14.12s-3.17-9.25-6.37-12.62c-3.2-3.37-7.42-5.9-12.26-7.02-4.69-1.09-9.61-.77-14.14.92-9.64,3.57-18.85,8.71-27.53,14.95,4.26-12.04,9.05-24,14.37-35.88,1.94-4.38,2.52-9.05,1.88-13.49-.67-4.72-2.68-9.01-5.59-12.45s-7.05-6.36-12.06-7.77c-4.63-1.3-9.58-1.2-14.34.39-18.39,6.21-35.01,17.06-49.73,30.52-7.67-30.67-16.92-57.45-21.87-70.95-1.75-4.8-4.89-8.87-8.99-11.73-4.32-3.02-9.28-4.43-14.08-4.43-4.79,0-9.75,1.4-14.05,4.41-4.09,2.85-7.24,6.9-9.02,11.73-4.95,13.52-14.21,40.3-21.88,70.98-.5-.45-1-.91-1.5-1.35-14.17-12.69-30.31-23.12-48.2-29.17-4.7-1.59-9.67-1.7-14.31-.41-5.05,1.4-9.17,4.3-12.11,7.8-2.91,3.45-4.92,7.76-5.58,12.49-.62,4.44-.04,9.13,1.92,13.49,5.31,11.87,10.1,23.82,14.36,35.85-8.7-6.25-17.94-11.41-27.6-14.99-4.56-1.68-9.46-1.97-14.11-.89-4.8,1.11-9,3.61-12.21,6.97-3.21,3.37-5.55,7.74-6.42,12.71-.83,4.79-.22,9.71,1.74,14.15,17.87,40.55,27.25,82.28,28.28,125.33.21,8.71,3.83,16.72,9.76,22.51Z"/>
    <g>
      <path class="cls-2" d="M299.91,124.53c-72.89,24.63-123.68,142.89-121.17,203.57h83.53c-.55-68.48,13.45-134.64,42.02-198.46,1.29-2.9-1.37-6.12-4.39-5.11h0Z"/>
      <path class="cls-2" d="M53.41,178.58c-1.57-.58-3.09-.1-4.05.9s-1.35,2.53-.68,4.06c18.94,42.99,28.94,87.4,30.04,133.24.15,6.26,5.11,11.29,11.37,11.29h35.65v-.08c.25-31.86-2.87-63.39-9.11-94.43-17.45-24.93-63.24-54.99-63.24-54.99Z"/>
      <path class="cls-2" d="M343.74,178.58c-23.53,8.72-45.79,30.07-63.24,55.02-6.25,31.04-9.36,62.59-9.11,94.43v.08h35.65c6.26,0,11.23-5.04,11.37-11.29,1.1-45.85,11.11-90.25,30.04-133.24,1.34-3.08-1.58-6.16-4.72-4.99h0Z"/>
      <path class="cls-2" d="M97.24,124.53c-3-1.02-5.67,2.21-4.37,5.11,28.57,63.82,42.57,129.97,42.02,198.46h34.74c-1.05-27.55,7.78-64.64,23.9-100.39-21.49-46.06-55.41-89.35-96.29-103.17h0Z"/>
      <path class="cls-2" d="M229.42,167.99c-7.73-40.33-21.06-79.27-27.36-96.49-1.19-3.27-5.77-3.27-6.97,0-6.3,17.24-19.65,56.16-27.36,96.49,11.84,14.94,22.14,31.79,30.8,49.21,8.66-17.46,19.05-34.26,30.9-49.21Z"/>
    </g>
  </g>
  <rect class="cls-1" width="397.15" height="397.15"/>
</svg>