<?xml version="1.0" encoding="UTF-8"?>
<svg id="Layer_1" data-name="Layer 1" xmlns="http://www.w3.org/2000/svg" viewBox="0 0 397.15 397.15">
  <defs>
    <style>
      .cls-1 {
        fill: none;
      }

      .cls-2 {
        fill: #d82d1f;
      }

      .cls-3 {
        fill: #423937;
      }
    </style>
  </defs>
  <g>
    <path class="cls-3" d="M231.62,355.5c47.86-47.86,90.45-107.35,100.87-129.15,3.75-7.84,3.38-17.03-1-24.55-10.02-17.19-46.78-59.32-69.14-85.07-.26-.3-.52-.6-.82-.94-10.92-12.51-22.2-30.07-33.36-47.54-6.96-10.9-14.28-22.41-20.68-30.63-4.74-6.08-11.91-9.77-19.6-10.09-7.7-.32-15.15,2.76-20.38,8.42-21.42,23.2-48.12,64.85-68.52,96.54-11.4,17.71-20.84,32.36-27.35,41.21l-4.33,5.8c-6.49,8.69-6.96,20.48-1.19,29.67,40.86,65,72.2,117.58,98.31,143.69,12.85,12.85,21.54,16.79,31.54,16.79,8.96,0,24.82-3.3,35.65-14.14Z"/>
    <path class="cls-2" d="M207.91,180.22c16.56,57.43,23.9,91.27,6.13,150.89-.49,1.63,1.59,2.78,2.71,1.49,41.66-48.09,80.01-95.66,90.67-114.88.92-1.67.85-3.66-.19-5.25-10.62-16.29-43.07-53.61-65.47-79.41-18.89-21.65-37.57-54.99-51.1-74.06-1.95-2.76-5.96-2.98-8.16-.42-29.62,34.47-70.04,103.89-89.83,130.83l-2.2,2.95c-1.29,1.72-1.37,4.08-.22,5.9,34.67,55,64.85,98.7,86.61,129.96,2.54,3.65,8.19,2.61,9.26-1.71,8.15-32.81,11.84-109.13,6.66-146.64-3.37-24.22,13.1-6.7,15.13.36Z"/>
  </g>
  <rect class="cls-1" width="397.15" height="397.15"/>
</svg>