<?xml version="1.0" encoding="UTF-8"?>
<svg id="Layer_1" xmlns="http://www.w3.org/2000/svg" viewBox="0 0 397.15 397.15">
  <defs>
    <style>
      .cls-1 {
        fill: none;
      }

      .cls-2 {
        fill: #ee3524;
      }

      .cls-3 {
        fill: #423937;
      }
    </style>
  </defs>
  <g>
    <path class="cls-3" d="M224.13,55.37c-3.13-3.97-7.03-7.05-11.34-9.14s-9.38-3.26-14.21-3.26c-4.83,0-9.71,1.07-14.21,3.26-4.32,2.1-8.22,5.17-11.34,9.14-21.2,26.92-90.64,118.06-90.64,178.28,0,18.11,3.49,34.82,9.81,49.73,6.3,14.85,15.34,27.7,26.21,38.2,21.7,20.96,50.72,32.6,80.18,32.6s58.48-11.64,80.18-32.6c10.88-10.5,19.91-23.35,26.21-38.2,6.32-14.9,9.81-31.62,9.81-49.73,0-60.22-69.44-151.36-90.64-178.28Z"/>
    <path class="cls-2" d="M207.04,68.83c-4.32-5.48-12.62-5.48-16.93,0-23.18,29.44-85.98,113.87-85.98,164.82,0,61.04,46.87,98.77,94.45,98.77s94.45-37.73,94.45-98.77c0-50.94-62.8-135.38-85.98-164.82Z"/>
    <path class="cls-3" d="M209.58,308.98c27.75-16.51,44.83-34.91,54.67-67.2,2.71-8.5,4.92-17.32,6.97-26.56.43-1.95,2.62-1.91,3.14.12,2.42,9.36,2.87,19.15,2.13,28.81-1.7,23.97-14.49,49.32-36.71,60.66-9.06,4.73-19.21,7.73-29.38,7.43-1.87-.05-2.38-2.34-.83-3.27Z"/>
  </g>
  <rect class="cls-1" width="397.15" height="397.15"/>
</svg>