<?xml version="1.0" encoding="UTF-8"?>
<svg id="Layer_1" data-name="Layer 1" xmlns="http://www.w3.org/2000/svg" viewBox="0 0 238.63 152.97">
  <defs>
    <style>
      .cls-1 {
        fill: #fff;
      }

      .cls-2 {
        fill: #f2ae14;
      }

      .cls-3 {
        fill: #0e4595;
      }
    </style>
  </defs>
  <path class="cls-3" d="M12.24,0h214.15c6.76,0,12.24,5.48,12.24,12.24v128.49c0,6.76-5.48,12.24-12.24,12.24H12.24C5.48,152.97,0,147.49,0,140.73V12.24C0,5.48,5.48,0,12.24,0Z"/>
  <path class="cls-1" d="M89.7,106.69l10.21-59.89h16.32l-10.21,59.89h-16.32ZM164.99,48.09c-3.23-1.21-8.3-2.52-14.63-2.52-16.13,0-27.49,8.12-27.59,19.76-.09,8.61,8.11,13.41,14.3,16.27,6.35,2.94,8.49,4.81,8.46,7.43-.04,4.01-5.07,5.85-9.77,5.85-6.53,0-10-.91-15.37-3.14l-2.1-.95-2.29,13.41c3.81,1.67,10.86,3.12,18.18,3.19,17.16,0,28.3-8.03,28.43-20.46.06-6.81-4.29-12-13.71-16.27-5.71-2.77-9.2-4.62-9.16-7.42,0-2.49,2.96-5.15,9.35-5.15,5.34-.08,9.21,1.08,12.22,2.29l1.46.69,2.21-12.98ZM207,46.8h-12.61c-3.91,0-6.83,1.07-8.55,4.97l-24.24,54.88h17.14s2.8-7.38,3.44-9c1.87,0,18.53.03,20.91.03.49,2.1,1.99,8.97,1.99,8.97h15.15l-13.21-59.85h0ZM186.99,85.47c1.35-3.45,6.5-16.74,6.5-16.74-.1.16,1.34-3.47,2.16-5.72l1.1,5.16s3.13,14.3,3.78,17.29h-13.55ZM75.84,46.8l-15.98,40.84-1.7-8.3c-2.98-9.57-12.25-19.93-22.61-25.12l14.61,52.38,17.27-.02,25.7-59.78h-17.29"/>
  <path class="cls-2" d="M44.95,46.8h-26.32l-.21,1.25c20.48,4.96,34.03,16.94,39.66,31.33l-5.72-27.52c-.99-3.79-3.85-4.92-7.4-5.06"/>
</svg>