<?xml version="1.0" encoding="UTF-8"?>
<svg id="Layer_1" xmlns="http://www.w3.org/2000/svg" version="1.1" viewBox="0 0 50 32.1">
  <!-- Generator: Adobe Illustrator 29.3.1, SVG Export Plug-In . SVG Version: 2.1.0 Build 151)  -->
  <defs>
    <style>
      .st0 {
        fill: #fff;
      }

      .st1 {
        fill: #f2ae14;
      }

      .st2 {
        fill: #0e4595;
      }
    </style>
  </defs>
  <path class="st2" d="M2.6,0h44.9C48.9,0,50,1.1,50,2.6v26.9c0,1.4-1.1,2.6-2.6,2.6H2.6c-1.4,0-2.6-1.1-2.6-2.6V2.6C0,1.1,1.1,0,2.6,0Z"/>
  <path class="st0" d="M18.8,22.4l2.1-12.5h3.4l-2.1,12.5h-3.4ZM34.6,10.1c-.7-.3-1.7-.5-3.1-.5-3.4,0-5.8,1.7-5.8,4.1,0,1.8,1.7,2.8,3,3.4,1.3.6,1.8,1,1.8,1.6,0,.8-1.1,1.2-2,1.2s-2.1-.2-3.2-.7l-.4-.2-.5,2.8c.8.3,2.3.7,3.8.7,3.6,0,5.9-1.7,6-4.3,0-1.4-.9-2.5-2.9-3.4-1.2-.6-1.9-1-1.9-1.6,0-.5.6-1.1,2-1.1,1.1,0,1.9.2,2.6.5h.3c0,.1.5-2.6.5-2.6h0ZM43.4,9.8h-2.6c-.8,0-1.4.2-1.8,1l-5.1,11.5h3.6s.6-1.5.7-1.9c.4,0,3.9,0,4.4,0,.1.4.4,1.9.4,1.9h3.2l-2.8-12.5h0ZM39.2,17.9c.3-.7,1.4-3.5,1.4-3.5,0,0,.3-.7.5-1.2l.2,1.1s.7,3,.8,3.6h-2.8,0ZM15.9,9.8l-3.3,8.6-.4-1.7c-.6-2-2.6-4.2-4.7-5.3l3.1,11h3.6s5.4-12.5,5.4-12.5h-3.6"/>
  <path class="st1" d="M9.4,9.8H3.9v.3c4.2,1,7.1,3.5,8.3,6.6l-1.2-5.8c-.2-.8-.8-1-1.6-1.1"/>
</svg>