<?xml version="1.0" encoding="UTF-8"?>
<svg id="Layer_1" xmlns="http://www.w3.org/2000/svg" version="1.1" viewBox="0 0 50 32.1">
  <!-- Generator: Adobe Illustrator 29.3.1, SVG Export Plug-In . SVG Version: 2.1.0 Build 151)  -->
  <defs>
    <style>
      .st0 {
        fill: #fff;
      }

      .st1 {
        fill: #eb001b;
      }

      .st2 {
        fill: #ff5f00;
      }

      .st3 {
        fill: #f79e1b;
      }
    </style>
  </defs>
  <path d="M2.6,0h44.9C48.9,0,50,1.1,50,2.6v26.9c0,1.4-1.1,2.6-2.6,2.6H2.6c-1.4,0-2.6-1.1-2.6-2.6V2.6C0,1.1,1.1,0,2.6,0Z"/>
  <g>
    <path class="st0" d="M14.7,28.4v-1.7c0-.6-.4-1-1-1s-.7.1-.9.5c-.2-.3-.5-.5-.9-.5-.3,0-.6.1-.8.4v-.3h-.5v2.7h.5v-1.5c0-.5.3-.7.7-.7s.6.2.6.7v1.5h.5v-1.5c0-.5.3-.7.7-.7s.6.2.6.7v1.5h.6ZM23.4,25.8h-1v-.8h-.5v.8h-.6v.5h.6v1.2c0,.6.2,1,.9,1,.3,0,.5,0,.7-.2l-.2-.5c-.1,0-.3.1-.5.1-.3,0-.4-.2-.4-.4v-1.3h1v-.4h0ZM28.3,25.7c-.3,0-.6.1-.7.4v-.3h-.5v2.7h.5v-1.5c0-.4.2-.7.6-.7.1,0,.2,0,.4,0l.2-.5c-.1,0-.3,0-.4,0h0ZM20.8,26c-.3-.2-.7-.3-1.1-.3-.7,0-1.1.3-1.1.8s.3.7.9.8h.3c.3,0,.5.2.5.3s-.2.3-.6.3c-.3,0-.6,0-.9-.3l-.3.4c.4.3.9.3,1.1.3.8,0,1.2-.4,1.2-.9s-.3-.7-.9-.8h-.3c-.2,0-.5-.1-.5-.3s.2-.3.5-.3.7.1.8.2l.3-.4h0ZM28.9,27.1c0,.8.5,1.4,1.4,1.4s.7,0,.9-.3l-.3-.4c-.2.2-.4.2-.7.2-.5,0-.8-.4-.8-.9s.4-.9.8-.9c.3,0,.5,0,.7.2l.3-.4c-.3-.2-.6-.3-.9-.3-.8,0-1.4.5-1.4,1.3h0ZM25.2,25.7c-.8,0-1.3.6-1.3,1.4s.6,1.4,1.4,1.4c.4,0,.8-.1,1.1-.4l-.3-.4c-.2.2-.5.3-.8.3-.4,0-.7-.2-.8-.7h2v-.2c0-.8-.5-1.4-1.2-1.4h0ZM25.1,26.2c.4,0,.7.2.7.7h-1.4c0-.4.3-.7.7-.7ZM18,27.1v-1.3h-.5v.3c-.2-.2-.5-.4-.9-.4-.7,0-1.3.6-1.3,1.4s.6,1.4,1.3,1.4.7-.1.9-.4v.3h.5v-1.3h0ZM15.8,27.1c0-.5.3-.9.8-.9s.8.4.8.9-.3.9-.8.9c-.5,0-.8-.4-.8-.9ZM36.3,25.7c-.3,0-.6.1-.7.4v-.3h-.5v2.7h.5v-1.5c0-.4.2-.7.6-.7.1,0,.2,0,.4,0l.2-.5c-.1,0-.3,0-.4,0h0ZM34.2,27.1v-1.3h-.5v.3c-.2-.2-.5-.4-.9-.4-.7,0-1.3.6-1.3,1.4s.6,1.4,1.3,1.4.7-.1.9-.4v.3h.5v-1.3h0ZM32.1,27.1c0-.5.3-.9.8-.9s.8.4.8.9-.3.9-.8.9c-.5,0-.8-.4-.8-.9ZM39.5,27.1v-2.4h-.5v1.4c-.2-.2-.5-.4-.9-.4-.7,0-1.3.6-1.3,1.4s.6,1.4,1.3,1.4.7-.1.9-.4v.3h.5v-1.3h0ZM37.4,27.1c0-.5.3-.9.8-.9s.8.4.8.9-.3.9-.8.9c-.5,0-.8-.4-.8-.9h0Z"/>
    <path class="st2" d="M20.2,5.7h9.6v15.6h-9.6V5.7Z"/>
    <path class="st1" d="M21.2,13.5c0-3,1.4-5.9,3.8-7.8-4.1-3.2-9.9-2.7-13.4,1.1-3.5,3.8-3.5,9.7,0,13.5s9.4,4.3,13.4,1.1c-2.4-1.9-3.8-4.8-3.8-7.8h0Z"/>
    <path class="st3" d="M41.1,13.5c0,3.8-2.2,7.3-5.6,8.9-3.4,1.7-7.5,1.2-10.5-1.1,2.4-1.9,3.8-4.8,3.8-7.8s-1.4-5.9-3.8-7.8c3-2.4,7.1-2.8,10.5-1.1,3.4,1.7,5.6,5.1,5.6,8.9Z"/>
  </g>
</svg>