<?xml version="1.0" encoding="UTF-8"?>
<svg id="Layer_1" xmlns="http://www.w3.org/2000/svg" version="1.1" viewBox="0 0 50 32.1">
  <!-- Generator: Adobe Illustrator 29.3.1, SVG Export Plug-In . SVG Version: 2.1.0 Build 151)  -->
  <defs>
    <style>
      .st0 {
        fill: #fff;
      }

      .st1 {
        fill: #2557d6;
      }
    </style>
  </defs>
  <path class="st1" d="M2.6,0h44.9C48.9,0,50,1.1,50,2.6v26.9c0,1.4-1.1,2.6-2.6,2.6H2.6c-1.4,0-2.6-1.1-2.6-2.6V2.6C0,1.1,1.1,0,2.6,0Z"/>
  <path class="st0" d="M0,15.1h2.4l.5-1.3h1.2l.5,1.3h4.7v-1l.4,1h2.5l.4-1v1h11.7v-2.1s.2,0,.2,0c.2,0,.2,0,.2.3v1.8h6.1v-.5c.5.3,1.3.5,2.3.5h2.6l.5-1.3h1.2l.5,1.3h4.9v-1.2l.7,1.2h3.9v-7.9h-3.9v.9l-.5-.9h-4v.9l-.5-.9h-5.4c-.9,0-1.7.1-2.3.5v-.5h-3.7v.5c-.4-.3-1-.5-1.6-.5h-13.6l-.9,2-.9-2h-4.3v.9l-.5-.9H1.7L0,11v4.1H0ZM15.2,14h-1.4v-4.4s-2,4.4-2,4.4h-1.2l-2-4.4v4.4h-2.9l-.5-1.3h-2.9l-.5,1.3H0l2.5-5.6h2.1l2.4,5.3v-5.3h2.3l1.8,3.8,1.7-3.8h2.3v5.6ZM4.5,11.6l-1-2.2-1,2.2h1.9ZM20.9,14h-4.7v-5.6h4.7v1.2h-3.3v1h3.2v1.2h-3.2v1.1h3.3v1.2h0ZM27.5,9.9c0,.9-.6,1.4-1,1.5.3.1.6.3.7.5.2.3.2.5.2,1v1.1h-1.4v-.7c0-.3,0-.8-.2-1.1-.2-.2-.5-.2-1-.2h-1.5v2h-1.4v-5.6h3.2c.7,0,1.2,0,1.7.3.4.3.7.6.7,1.2h0ZM25.7,10.7c-.2.1-.4.1-.7.1h-1.7v-1.3h1.7c.2,0,.5,0,.7.1.2,0,.3.3.3.5s-.1.4-.3.5h0ZM29.8,14h-1.4v-5.6h1.4v5.6ZM46.4,14h-2l-2.7-4.2v4.2h-2.9l-.5-1.3h-2.9l-.5,1.3h-1.6c-.7,0-1.5-.1-2-.6-.5-.5-.8-1.1-.8-2.1s.2-1.6.8-2.2c.5-.4,1.2-.7,2.1-.7h1.4v1.2h-1.3c-.5,0-.8,0-1.1.3-.2.2-.4.7-.4,1.3s.1,1,.4,1.3c.2.2.6.3,1,.3h.6l2-4.4h2.1l2.4,5.3v-5.3h2.1l2.5,3.9v-3.9h1.4v5.6h0ZM37.9,11.6l-1-2.2-1,2.2h1.9ZM50,23c-.3.5-1,.7-1.9.7h-2.7v-1.2h2.7c.3,0,.5,0,.6-.1.1,0,.2-.2.2-.4,0-.2,0-.3-.2-.4-.1,0-.2-.1-.5-.1-1.3,0-3,0-3-1.7s.5-1.7,2-1.7h2.8v-1.1h-2.6c-.8,0-1.4.2-1.8.5v-.5h-3.8c-.6,0-1.3.1-1.7.5v-.5h-6.9v.5c-.5-.4-1.5-.5-1.9-.5h-4.5v.5c-.4-.4-1.4-.5-2-.5h-5.1l-1.2,1.2-1.1-1.2h-7.6v7.9h7.4l1.2-1.2,1.1,1.2h4.6s0-1.8,0-1.8h.5c.6,0,1.3,0,2-.3v2.1h3.8v-2h.2c.2,0,.3,0,.3.2v1.8h11.5c.7,0,1.5-.2,1.9-.5v.5h3.6c.8,0,1.5-.1,2.1-.4v-1.5h0ZM27.2,19.9c0,1.6-1.2,1.9-2.4,1.9h-1.8v1.9h-2.7l-1.7-1.9-1.8,1.9h-5.6v-5.6h5.6l1.7,1.8,1.8-1.8h4.5c1.1,0,2.4.3,2.4,1.9h0ZM16.1,22.5h-3.5v-1.1h3.1v-1.1h-3.1v-1h3.5l1.5,1.6s-1.6,1.7-1.6,1.7ZM21.6,23.2l-2.2-2.3,2.2-2.2s0,4.5,0,4.5ZM24.8,20.7h-1.8v-1.4h1.8c.5,0,.9.2.9.7s-.3.7-.9.7h0ZM34.3,18.1h4.7v1.2h-3.3v1h3.2v1.1h-3.2v1.1h3.3v1.2h-4.7v-5.6h0ZM32.5,21.1c.3.1.6.3.7.5.2.3.2.5.2,1v1.1h-1.4v-.7c0-.3,0-.8-.2-1.1-.2-.2-.5-.2-1-.2h-1.5v2.1h-1.4v-5.6h3.2c.7,0,1.2,0,1.7.3.4.3.7.6.7,1.3s-.6,1.4-1,1.5h0ZM31.7,20.4c-.2.1-.4.1-.7.1h-1.7v-1.3h1.7c.2,0,.5,0,.7.1.2,0,.3.3.3.5s-.1.4-.3.5h0ZM44.4,20.7c.3.3.4.6.4,1.2,0,1.2-.8,1.8-2.2,1.8h-2.7v-1.2h2.7c.3,0,.5,0,.6-.1,0,0,.2-.2.2-.4s0-.3-.2-.4c-.1,0-.3-.1-.5-.1-1.3,0-3,0-3-1.7s.5-1.7,2-1.7h2.8v1.2h-2.6c-.3,0-.4,0-.6.1-.2,0-.2.2-.2.4s.1.4.3.4c.1,0,.3,0,.5,0h.8c.8,0,1.3.2,1.6.5h0ZM50,19.2h-2.6c-.3,0-.4,0-.6.1-.1,0-.2.2-.2.4s.1.4.3.4c.1,0,.3,0,.5,0h.8c.8,0,1.3.2,1.6.5,0,0,0,0,.1.1v-1.6h0Z"/>
</svg>