<?xml version="1.0" encoding="UTF-8"?>
<svg id="Layer_1" xmlns="http://www.w3.org/2000/svg" version="1.1" viewBox="0 0 50 32.1">
  <!-- Generator: Adobe Illustrator 29.3.1, SVG Export Plug-In . SVG Version: 2.1.0 Build 151)  -->
  <defs>
    <style>
      .st0 {
        fill: #f47216;
      }

      .st0, .st1 {
        fill-rule: evenodd;
      }

      .st2 {
        fill: #4d4d4d;
      }

      .st1 {
        fill: #fff;
      }
    </style>
  </defs>
  <path class="st2" d="M2.6,0h44.9c1.4,0,2.5,1.1,2.5,2.6v26.9c0,1.4-1.1,2.6-2.6,2.6H2.6c-1.4,0-2.6-1.1-2.6-2.6V2.6C0,1.1,1.1,0,2.6,0Z"/>
  <path class="st1" d="M21,10.3c.6,0,1,.1,1.6.4v1.5c-.5-.5-1-.7-1.7-.7-1.2,0-2.2,1-2.2,2.2s.9,2.2,2.3,2.2,1.1-.2,1.6-.7v1.5c-.6.3-1.1.4-1.7.4-2,0-3.6-1.4-3.6-3.3s1.6-3.3,3.6-3.3h0v-.2ZM14.7,10.4c.7,0,1.4.2,2,.7l-.7.8c-.3-.4-.7-.5-1.1-.5-.6,0-1,.3-1,.7s.2.5,1,.8c1.5.5,1.9,1,1.9,2s-1,2.1-2.3,2.1-1.7-.4-2.3-1.2l.9-.8c.3.6.8.8,1.4.8s1-.4,1-.9-.1-.5-.4-.7c-.1,0-.4-.2-.9-.4-1.2-.4-1.7-.9-1.7-1.7s.9-1.8,2.1-1.8h.1ZM29.8,10.5h1.4l1.8,4.3,1.8-4.3h1.4l-2.9,6.5h-.7l-2.9-6.5h.1ZM4.3,10.5h1.9c2.1,0,3.6,1.3,3.6,3.2s-.5,1.8-1.2,2.4c-.6.5-1.4.7-2.4.7h-1.9v-6.4h0ZM10.5,10.5h1.3v6.4h-1.3v-6.4ZM36.9,10.5h3.7v1.1h-2.4v1.4h2.3v1.1h-2.3v1.7h2.4v1.1h-3.7v-6.4h0ZM41.5,10.5h2c1.5,0,2.4.7,2.4,1.9s-.5,1.6-1.5,1.8l2.1,2.7h-1.6l-1.8-2.6h-.2v2.6h-1.3v-6.4h-.1ZM42.8,11.5v1.9h.4c.8,0,1.3-.3,1.3-1s-.4-.9-1.3-.9h-.4ZM5.6,11.6v4.2h.4c.9,0,1.4-.2,1.8-.5.5-.4.7-1,.7-1.6s-.3-1.2-.7-1.6c-.4-.4-1-.5-1.8-.5,0,0-.4,0-.4,0Z"/>
  <path d="M23,13.7h0c0-1.9,1.6-3.4,3.6-3.4s3.6,1.5,3.6,3.4h0c0,1.9-1.6,3.4-3.6,3.4s-3.6-1.5-3.6-3.4Z"/>
  <path class="st0" d="M26.6,10.3c-2,0-3.6,1.5-3.6,3.4h0c0,1.9,1.6,3.4,3.6,3.4s3.6-1.5,3.6-3.4h0c0-1.9-1.6-3.4-3.6-3.4Z"/>
  <path class="st0" d="M50,18.5v11c0,1.4-1.1,2.6-2.6,2.6H14.3c21.5-4.1,34-12.4,35.7-13.6h0Z"/>
</svg>