<?xml version="1.0" encoding="UTF-8"?>
<svg id="Layer_1" data-name="Layer 1" xmlns="http://www.w3.org/2000/svg" viewBox="0 0 397.15 397.15">
  <defs>
    <style>
      .cls-1 {
        fill: none;
      }

      .cls-2 {
        fill: #d82d1f;
      }

      .cls-3 {
        fill: #423937;
      }
    </style>
  </defs>
  <rect class="cls-1" width="397.15" height="397.15"/>
  <g>
    <path class="cls-3" d="M186.56,157.11c2.94-5.47,4.32-11.51,4.19-17.5-.13-6.01-1.79-12-4.97-17.36,0,0-25.27-42.44-25.27-42.44-4.64-7.8-11.88-13.22-19.97-15.73-8.09-2.5-17.12-2.12-25.34,1.69,0,0-25.46,11.78-25.48,11.78-5.92,2.75-11.34,6.78-15.65,11.92-3.77,4.5-6.73,9.9-8.34,16.02-5.12,19.45-3.82,39.97,1.55,59.82,9.79,36.2,33.67,72.46,62.95,101.73,29.29,29.27,65.56,53.12,101.78,62.87,19.85,5.34,40.36,6.61,59.81,1.46,6.07-1.61,11.44-4.56,15.92-8.32,5.09-4.28,9.08-9.64,11.8-15.52,0,0,11.83-25.57,11.83-25.58,3.81-8.23,4.19-17.26,1.68-25.35-2.51-8.09-7.93-15.32-15.72-19.96,0,0-42.44-25.27-42.44-25.27-5.34-3.18-11.32-4.85-17.34-4.98-6.01-.13-12.06,1.27-17.51,4.2,0,0-21.77,11.67-21.76,11.66,0,0-43.39-43.39-43.37-43.37,0,0,11.66-21.77,11.66-21.76Z"/>
    <path class="cls-2" d="M156.55,176.17l14.63-27.3c2.98-5.55,2.82-12.27-.39-17.69l-25.27-42.44c-4.71-7.91-14.64-10.99-22.99-7.12l-25.46,11.78c-6.96,3.22-12.51,9.15-14.46,16.55-23.57,89.54,115.23,228.3,204.73,204.56,7.31-1.94,13.18-7.43,16.36-14.3l11.83-25.57c3.87-8.36.79-18.28-7.12-22.99l-42.44-25.27c-5.42-3.22-12.12-3.38-17.69-.39l-27.3,14.63c-3.49,1.87-7.8,1.24-10.6-1.56l-52.27-52.27c-2.8-2.81-3.43-7.11-1.56-10.61h0Z"/>
  </g>
  <rect class="cls-1" x="0" width="397.15" height="397.15"/>
</svg>