<?xml version="1.0" encoding="UTF-8"?>
<svg id="Layer_1" data-name="Layer 1" xmlns="http://www.w3.org/2000/svg" viewBox="0 0 397.15 397.15">
  <defs>
    <style>
      .cls-1 {
        fill: none;
      }

      .cls-2 {
        fill: #d82d1f;
      }

      .cls-3 {
        fill: #423937;
      }
    </style>
  </defs>
  <rect class="cls-1" width="397.15" height="397.15"/>
  <g>
    <rect class="cls-3" x="47.35" y="100.29" width="302.45" height="196.56" rx="9.84" ry="9.84"/>
    <g>
      <path class="cls-2" d="M248.3,199.52l79.09,69.78c.83.73,2.12.14,2.12-.96v-139.7c0-1.1-1.3-1.69-2.13-.96l-79.09,69.92c-.58.51-.58,1.41,0,1.92Z"/>
      <path class="cls-2" d="M216.42,225.75c-5.06,4.51-11.45,6.78-17.85,6.78s-12.78-2.26-17.87-6.77c0,0-15.2-13.42-18.98-16.77-.48-.43-1.21-.43-1.69,0l-78.02,68.81c-.88.78-.33,2.24.85,2.24h231.43c1.18,0,1.73-1.46.85-2.24l-78.03-68.83c-.48-.43-1.21-.43-1.69,0l-18.98,16.78Z"/>
      <path class="cls-2" d="M67.63,128.64v139.71c0,1.1,1.3,1.69,2.12.96l79.09-69.77c.58-.51.58-1.41,0-1.92l-79.09-69.94c-.83-.73-2.13-.14-2.13.96Z"/>
      <path class="cls-2" d="M198.62,218.07c2.94,0,5.89-1.06,8.24-3.15-.01.01,85.92-75.95,106.33-94,1.51-1.33.56-3.81-1.45-3.81H83.01c-1.18,0-1.73,1.46-.85,2.24l108.12,95.59c2.39,2.1,5.36,3.15,8.34,3.14Z"/>
    </g>
  </g>
  <rect class="cls-1" x="0" width="397.15" height="397.15"/>
</svg>