<?xml version="1.0" encoding="UTF-8"?>
<svg id="Layer_1" data-name="Layer 1" xmlns="http://www.w3.org/2000/svg" viewBox="0 0 397.15 397.15">
  <defs>
    <style>
      .cls-1 {
        fill: none;
      }

      .cls-2 {
        fill: #d82d1f;
      }

      .cls-3 {
        fill: #423937;
      }
    </style>
  </defs>
  <rect class="cls-1" width="397.15" height="397.15"/>
  <g>
    <path class="cls-3" d="M316.05,292.98c0,7.01-2.63,12.97-6.02,17.53-7.96,10.74-22.51,17.15-36.02,21.24-20.11,6.09-46.77,9.6-75.44,9.6-44.28,0-89.61-8.42-107.87-26.69-4.91-4.91-9.61-12.22-9.61-21.68,0-8.28,3.63-14.98,7.81-19.77,9.74-11.15,28.05-18.24,48.09-22.59-20.39-29.66-40.58-65.65-40.58-92.68,0-18.24,4.87-35.8,13.69-51.07,8.82-15.27,21.59-28.26,37.4-37.4,15.8-9.12,33.43-13.67,51.06-13.67,17.63-.01,35.27,4.55,51.08,13.67,15.8,9.13,28.58,22.12,37.4,37.4,8.8,15.27,13.67,32.83,13.67,51.07,0,27.03-20.18,63.01-40.58,92.68,20.05,4.33,38.36,11.44,48.11,22.59,4.19,4.79,7.81,11.49,7.81,19.77Z"/>
    <g>
      <path class="cls-2" d="M238.87,265.5c-5.41,7.21-10.52,13.72-14.93,19.2-3.07,3.84-6.96,6.89-11.3,8.98-4.33,2.08-9.13,3.21-14.07,3.21s-9.73-1.12-14.05-3.2c-4.35-2.09-8.24-5.14-11.33-8.99-4.4-5.48-9.52-11.99-14.92-19.19-34.68,4.68-58.87,15.22-58.87,27.47,0,16.6,44.4,30.06,99.17,30.06s99.17-13.46,99.17-30.06c0-12.25-24.19-22.79-58.88-27.47Z"/>
      <path class="cls-2" d="M240.49,85.33c-25.95-14.97-57.9-14.97-83.83,0-25.95,14.98-41.93,42.66-41.93,72.61,0,33.38,41.39,89.92,66.08,120.64,4.32,5.38,10.85,8.53,17.76,8.53s13.44-3.15,17.75-8.53c24.69-30.72,66.08-87.26,66.08-120.64,0-29.96-15.98-57.63-41.92-72.61ZM198.57,191.85c-13.87,0-26.38-8.35-31.68-21.16-5.31-12.83-2.38-27.58,7.42-37.39,9.82-9.8,24.57-12.73,37.39-7.44,12.81,5.31,21.17,17.81,21.17,31.68-.04,18.94-15.37,34.27-34.3,34.3Z"/>
    </g>
  </g>
  <rect class="cls-1" width="397.15" height="397.15"/>
</svg>