<?xml version="1.0" encoding="UTF-8"?>
<svg id="Layer_1" data-name="Layer 1" xmlns="http://www.w3.org/2000/svg" viewBox="0 0 397.15 397.15">
  <defs>
    <style>
      .cls-1 {
        fill: #423937;
      }
    </style>
  </defs>
  <path class="cls-1" d="M341.77,155.33h-99.95V55.38c0-3.15-2.55-5.7-5.7-5.7h-75.09c-3.15,0-5.7,2.55-5.7,5.7v99.95H55.38c-3.15,0-5.7,2.55-5.7,5.7v75.09c0,3.15,2.55,5.7,5.7,5.7h99.95v99.95c0,3.15,2.55,5.7,5.7,5.7h75.09c3.15,0,5.7-2.55,5.7-5.7v-99.95h99.95c3.15,0,5.7-2.55,5.7-5.7v-75.09c0-3.15-2.55-5.7-5.7-5.7Z"/>
</svg>