<?xml version="1.0" encoding="UTF-8"?>
<svg id="Layer_1" data-name="Layer 1" xmlns="http://www.w3.org/2000/svg" viewBox="0 0 397.15 397.15">
  <defs>
    <style>
      .cls-1 {
        fill: #f1f2f2;
        fill-rule: evenodd;
      }

      .cls-2 {
        fill: #d82d1f;
      }
    </style>
  </defs>
  <rect class="cls-2" x="55.45" y="49.69" width="297.78" height="297.78" rx="8.16" ry="8.16"/>
  <path class="cls-1" d="M216.97,102.13l112.32,92.5c.27.22.53.47.76.74,1.77,2.15,1.47,5.35-.7,7.11l-112.05,92.27c-.92.89-2.17,1.45-3.56,1.45-2.81,0-5.08-2.27-5.08-5.08v-60.45h-126.12c-2.81,0-5.08-2.28-5.08-5.08v-54.07c0-2.81,2.27-5.08,5.08-5.08h126.12v-60.45c.02-1.13.4-2.27,1.16-3.21,1.77-2.15,4.96-2.46,7.11-.7l.02.03Z"/>
</svg>