<?xml version="1.0" encoding="UTF-8"?>
<svg id="Layer_1" data-name="Layer 1" xmlns="http://www.w3.org/2000/svg" viewBox="0 0 202.91 202.91">
  <defs>
    <style>
      .cls-1 {
        fill: #d82d1f;
      }
    </style>
  </defs>
  <path class="cls-1" d="M202.91,8.16v186.6c0,4.5-3.65,8.15-8.15,8.15h-75.75v-68.98h26.17l4.98-32.47h-31.15v-21.09c0-8.88,4.35-17.54,18.31-17.54h14.16v-27.63s-12.85-2.19-25.15-2.19c-25.66,0-42.42,15.55-42.42,43.7v24.75h-28.54v32.47h28.54v68.98H8.16c-4.51,0-8.16-3.65-8.16-8.15V8.16C0,3.65,3.65,0,8.16,0h186.6c4.5,0,8.15,3.65,8.15,8.16Z"/>
</svg>