<?xml version="1.0" encoding="UTF-8"?>
<svg id="Layer_1" data-name="Layer 1" xmlns="http://www.w3.org/2000/svg" viewBox="0 0 202.92 202.91">
  <defs>
    <style>
      .cls-1 {
        fill: #d82d1f;
      }
    </style>
  </defs>
  <path class="cls-1" d="M194.76,0H8.16C3.66,0,0,3.65,0,8.16v186.6c0,4.5,3.66,8.15,8.16,8.15h186.6c4.5,0,8.16-3.65,8.16-8.15V8.16c0-4.51-3.66-8.16-8.16-8.16ZM60.19,172.91h-30.11v-96.83h30.11v96.83ZM45.13,62.84c-9.64,0-17.44-7.82-17.44-17.46s7.8-17.44,17.44-17.44,17.45,7.82,17.45,17.44-7.82,17.46-17.45,17.46ZM172.91,172.91h-30.07v-47.09c0-11.23-.22-25.67-15.64-25.67s-18.05,12.23-18.05,24.86v47.9h-30.08v-96.83h28.87v13.22h.41c4.02-7.61,13.84-15.64,28.48-15.64,30.45,0,36.08,20.05,36.08,46.13v53.12Z"/>
</svg>