<?xml version="1.0" encoding="UTF-8"?>
<svg id="Layer_1" data-name="Layer 1" xmlns="http://www.w3.org/2000/svg" viewBox="0 0 397.15 397.15">
  <defs>
    <style>
      .cls-1 {
        fill: none;
      }

      .cls-2 {
        fill: #d82d1f;
      }

      .cls-3 {
        fill: #423937;
      }
    </style>
  </defs>
  <rect class="cls-1" x="0" width="397.15" height="397.15"/>
  <g>
    <path class="cls-3" d="M34.63,322.38c4.36,4.36,10.43,7.08,17.1,7.08h17.05c6.67,0,12.75-2.73,17.1-7.08,1.63-1.63,3.04-3.51,4.15-5.56h217.05c1.12,2.06,2.52,3.93,4.15,5.56,4.36,4.36,10.43,7.08,17.1,7.08h17.05c6.67,0,12.75-2.73,17.1-7.08,4.36-4.36,7.08-10.43,7.08-17.1V84.24c0-6.67-2.73-12.75-7.08-17.1-4.36-4.36-10.43-7.08-17.1-7.08h0s-17.05,0-17.05,0c-6.67,0-12.75,2.73-17.1,7.08-3.26,3.26-5.61,7.48-6.58,12.2H92.48c-.98-4.71-3.32-8.93-6.58-12.2-4.36-4.36-10.43-7.08-17.1-7.08h-17.05c-6.67,0-12.75,2.73-17.1,7.08-4.36,4.36-7.08,10.43-7.08,17.1v221.03c0,6.67,2.73,12.75,7.08,17.1Z"/>
    <g>
      <path class="cls-2" d="M345.41,78.94h-17.05c-2.93,0-5.3,2.37-5.3,5.3v13.98H74.09v-13.98c0-2.93-2.37-5.3-5.3-5.3h-17.05c-2.93,0-5.3,2.37-5.3,5.3v221.03c0,2.93,2.37,5.3,5.3,5.3h17.05c2.93,0,5.3-2.37,5.3-5.3v-7.35h248.97v7.35c0,2.93,2.37,5.3,5.3,5.3h17.05c2.93,0,5.3-2.37,5.3-5.3V84.24c0-2.93-2.37-5.3-5.3-5.3h0ZM74.09,267.94v-139.74h248.97v139.74H74.09Z"/>
      <rect class="cls-2" x="87.58" y="137.19" width="26.36" height="120.57"/>
      <rect class="cls-2" x="127.11" y="137.19" width="26.36" height="120.57"/>
      <rect class="cls-2" x="166.63" y="137.19" width="26.36" height="120.57"/>
      <rect class="cls-2" x="206.16" y="137.19" width="26.36" height="120.57"/>
      <rect class="cls-2" x="245.68" y="137.19" width="26.36" height="120.57"/>
      <rect class="cls-2" x="285.21" y="137.19" width="26.36" height="120.57"/>
    </g>
  </g>
</svg>