<?xml version="1.0" encoding="UTF-8"?>
<svg id="Layer_1" xmlns="http://www.w3.org/2000/svg" viewBox="0 0 879.95 625.37">
  <defs>
    <style>
      .cls-1 {
        fill: #EAEAEA;
      }
    </style>
  </defs>
  <path class="cls-1" d="M541.4,14.28c-27.12,54.83-62.2,243.81-61.91,280.07.3,12.67,9.73,23.29,22.11,24.76,17.98,2.36,46.58,14.45,75.18,28.01-62.5-9.44-111.73-22.7-145.64-34.49,0-.3,0-.89-.3-1.18l-.88-22.7c-2.06-40.1-56.31-104.95-56.31-191.92.29-1.77,0-3.54-.3-5.31-.89-3.83-2.65-7.37-5.01-10.32-40.68-51.3-273.58-10.91-349.35,8.55-9.43,2.65-16.51,10.02-18.57,19.75-1.77,9.73,2.06,19.45,10.02,25.06,35.97,26.83,143.57,193.39,202.83,292.16,3.54,5.89,9.43,10.32,16.21,11.79,6.48,1.48,13.86,0,19.46-3.53,1.77-1.18,6.78-4.42,13.56-8.26-27.71,63.97-50.41,133.55-52.48,153.89-.88,10.03,2.36,20.05,9.73,28.01,34.49,38.62,214.33-1.77,287.15-.88,5.01,0,10.02-1.48,14.45-4.42,1.18-.89,2.36-1.77,3.54-2.66,4.72-4.71,7.67-11.2,7.67-17.98l12.97-182.79c99.76,22.58,235.97,29.59,334.42,26.43v-74.81c-51.73,5.44-117.41,7.44-161.37,6.81l88.44-149.76c.89-.88,1.48-2.36,2.06-3.83,3.24-7.96,1.77-17.39-3.83-24.47-13.27-17.1-161.85-165.39-236.44-179.83-10.91-2.07-22.41,3.53-27.42,13.86ZM476.43,385.11c-21.11,32.36-65.76,70.69-85.79,88.72-26.18,23.84-9.87,28.36,15.15,11.58,20.91-14.13,74.45-48.71,103.33-75.78l-26.97,146.89c-90.43-2.59-206.22,39.64-232.11,26.48,0,0,44.95-119.97,77.34-190.58,23.11-10.9,49.49-22.06,77.09-31.2,23.6,7.77,49.98,16.54,71.96,23.9ZM260.38,368.28c-5.81,3.42-11.53,6.84-17.19,10.21-32.83-53.96-133.38-188.24-188.59-254.84,106.9-22.25,236.08-21.55,268.52-12.24.39,81,54.18,141.56,56.19,179.98l.24,4.92c-36.59-12.32-140.46-101.79-153.55-108.68-14.46-7.69-35.47,5.25-10.94,19.56,20.32,11.75,93.31,89.9,136.45,123.56-30.44,13-75.87,28.35-91.12,37.52ZM754.32,198.34l-74.26,125.36c-25.01-50.12-44.56-106.73-49.3-140.02-5.62-37.4-23.94-14.78-21.94,9.55,2.84,35.03,14.27,84.2,27.75,126.42-.88-.42-1.66-.81-2.49-1.22-35.32-17.27-71.77-35.23-102.06-44.19,6.45-49.4,13.68-175.42,34.49-236.44,50.03,27.04,152.73,120.56,187.8,160.54Z"/>
</svg>