<?xml version="1.0" encoding="UTF-8"?>
<svg id="Layer_1" xmlns="http://www.w3.org/2000/svg" viewBox="0 0 700.04 724.77">
  <defs>
    <style>
      .cls-1 {
        fill: #EAEAEA;
      }
    </style>
  </defs>
  <path class="cls-1" d="M699.17,311.81c-1.79-12.49-11.89-22.3-24.4-23.94-41.49-5.38-142.38,5.25-223.52,17.25l83.92-62.11c9.92-6.99,14.03-19.8,9.99-31.59,0,0-48.23-146.16-61.67-182.93-2.42-6.87-9.17-18.77-26.83-24.99-60.06-20.08-252.9,52.01-287.94,73.48-9.65,6.05-16.35,16.04-18.42,27.73-6.81,33.55,29.67,102.4,70.23,166.65L45.59,136.43c-8.33-6.55-19.98-7.59-29.97-2.67-9.5,4.38-15.48,14.24-15.62,25.14l1.15,343.21c-.2,12.25,7.65,22.76,18.88,26.41l2.83.83,259.38,60.66c21.42,42.24,46.45,91.82,67.69,134.75h82.03l-53.85-120.2,172.46,35.4c1.35.06,3.01.2,4.68.35,9.77.48,19.14-4.62,24.65-12.91,13.09-20.08,131.34-232.41,119.27-315.62ZM172.48,405.07c-7.47-7.5-43.73-5.37-15.31,15.37,30.8,22.5,76.88,68.47,110.57,108.14l-210.47-49.04-13.73-289.65,255.37,213.29,9.1,112.39c-50.56-55.14-129.58-104.5-135.55-110.5ZM313.73,309.43c-53.62-77.05-102.39-159.12-107.81-188.53,48.35-24.79,197-80.08,235.38-76.16,12.33,34.99,47.42,137.86,59.9,175.21l-145.24,89.51c7.67-51.16,21.59-113.8,25.79-135.76,5.34-29,2.72-47.41-19.83-6.63-17.94,32.42-37.53,95.03-48.19,142.36ZM542.31,580.49l-130.83-26.74c1.87-.87,2.99-1.42,2.99-1.42,39.04-56.2,93.64-113,128.11-136.95,34.65-24.07,2.82-31.32-20.29-17.19-49.1,29.73-119.25,93-154.26,136,1.19-11.35,2.67-23.57,4.31-36.29,5.29-43.62,10.8-88.4,9.28-123.46,54.28-11.2,205.87-51.37,277.48-51.75-10.22,62.48-87.71,206.47-116.8,257.81Z"/>
</svg>